<svg xmlns="http://www.w3.org/2000/svg" data-name="Layer 1" viewBox="0 0 300 300"><defs><clipPath id="a"><path fill="none" d="M122.32,198.63l.2.34c1.32,2.42.39,4.44-1.51,6a19,19,0,0,1-7.14,3.29,41.4,41.4,0,0,1-22.74-1.11c-2-.69-4.25-1.57-5.52-3L85.5,204a6.5,6.5,0,0,0,.71,5.36c2.61,4.89,10.25,9.92,23.19,8,14.73-2.19,18.22-10.59,15.62-15.64A9,9,0,0,0,122.32,198.63Z"/></clipPath><clipPath id="b"><path fill="none" d="M83.35,148.1a.17.17,0,0,1,0-.07c.64-4.24,1.87-8.54,2.63-12.3a21.53,21.53,0,0,0,.56-6.57,3.45,3.45,0,0,0-2.11-3,2.63,2.63,0,0,0-2.46.65,10.31,10.31,0,0,0-2.59,3.46c-1.05,2.08-1.78,4.46-2.51,6.32-.51,1.31-1.13,2.66-1.74,4a.19.19,0,0,1-.06.17l0,0c-1.41,3.14-2.78,6.42-2.76,9.73,0,4.49,3,8.62,5.17,12.36a54.77,54.77,0,0,1,4.84,11.84c2.59,9,2.69,18.45,6.7,27a.17.17,0,1,1-.31.14c-.22-.48-.44-1-.64-1.46a3,3,0,0,0-2.73,1.94,2.55,2.55,0,0,0,.58,2.29c1.24,1.57,3.46,2.52,5.38,3.27a36.88,36.88,0,0,0,22.51,1.23,17.9,17.9,0,0,0,7-3.6c1.79-1.67,2.68-3.79,1.44-6.33a6,6,0,0,0-1.38-1.84,8,8,0,0,0-6-2.47,47.85,47.85,0,0,1,2.65,5.13.17.17,0,1,1-.31.14c-2.41-5.51-6-10.43-9.68-15.19-1.1-1.44-2.25-2.84-3.28-4.32-.08-.13-.53-.6-.77-1l0-.06a13.6,13.6,0,0,1-4.47,5,.17.17,0,0,1-.19-.29,13,13,0,0,0,5.79-10.5,19.07,19.07,0,0,0-.55-4.37c-.76,1.34-1.35,2.65-1.84,3.68a.16.16,0,0,1-.22.08.17.17,0,0,1-.09-.23c1.22-2.57,3-6.78,6.6-9.1a33.87,33.87,0,0,0,5.82-4.72.16.16,0,0,1,.07-.09l0,0a15.2,15.2,0,0,0,1.84-2.33c.93-1.51,1.23-2.89.48-3.91a3.78,3.78,0,0,0-3.41-1.58,11.4,11.4,0,0,0-3.1.73h-.07c-4.18,2-6.27,3.56-10.83,7.56A18,18,0,0,0,94,168.65a.16.16,0,0,1-.2.12.17.17,0,0,1-.13-.2,18.37,18.37,0,0,1,5.45-9.3c5.29-4.65,7.29-6,13-8.59,4-1.81,3.16-7.25-.55-8.43-1.54-.49-3.55-.24-5.9,1.25-1.37,1-2.89,1.87-4.26,2.74a53.17,53.17,0,0,0-9.19,7.17c-2.06,2-3.95,4.32-4.51,7.21a.18.18,0,0,1-.2.14.19.19,0,0,1-.14-.2c.58-3,2.51-5.34,4.61-7.4a54.15,54.15,0,0,1,9.24-7.21c1.23-.78,2.58-1.54,3.84-2.42a.13.13,0,0,1,0-.07l.38-.25a14.21,14.21,0,0,0,1.56-1.33,3.35,3.35,0,0,0,.84-3.76A4,4,0,0,0,104,136a11.7,11.7,0,0,0-3.78,1h0c-.72.28-1.49.62-2.3,1l0,0a.16.16,0,0,1-.09,0,54.14,54.14,0,0,0-5.35,3c-4.58,2.9-8.93,6.55-10.17,9.65a.18.18,0,0,1-.22.1.19.19,0,0,1-.1-.23A9.9,9.9,0,0,1,83.35,148.1Z"/></clipPath><clipPath id="c"><path fill="none" d="M219.89,185.69a5.43,5.43,0,0,0,3.52,4.54,13,13,0,0,0,10.14.09c7.44-3.55,12.9-11.1,15.11-19,1.72-6.15,1.44-14.22-3.35-18.93a9.41,9.41,0,0,0-7.57-2.8,9.68,9.68,0,0,0-1.6.29,2.74,2.74,0,0,0-.79.35,7.35,7.35,0,0,1,1.74,1,9.82,9.82,0,0,1,3.48,6.09A21.4,21.4,0,0,1,239.41,168c-2.54,7-8.51,14.5-15.61,17A10.34,10.34,0,0,1,219.89,185.69Z"/></clipPath><clipPath id="d"><path fill="none" d="M228.7,153.73a1.9,1.9,0,0,0-.25-.19c-.84-.56-3.09-1.77-3.81-2.27a35.72,35.72,0,0,1-7.13-6.37c-3.24-3.91-5.55-8.42-9.56-11.68-7.33-6-17.75-6.78-26.66-8.61-3.57-.74-7.29-1.72-11-1.66a10.59,10.59,0,0,0-2.69.31,3.26,3.26,0,0,0-1.47.84,1.93,1.93,0,0,0-.17,2.4,8.9,8.9,0,0,0,3.16,2.94c4.52,2.56,9.52,3.67,14.55,4.68l.32.06a56.09,56.09,0,0,1,7.87-.67c1.09,0,2.19,0,3.27,0a5,5,0,0,1,1.64.22.19.19,0,0,1,.09.23.18.18,0,0,1-.23.09,4.3,4.3,0,0,0-1.51-.19c-1.08-.06-2.17-.07-3.25-.05a54.36,54.36,0,0,0-7.85.68h0c-.53.09-1.06.18-1.59.29-2,.4-3.87,1-4.85,2.93a14,14,0,0,0-1,3.33c-.18.84-.33,1.69-.46,2.54-.1.63-.18,1.26-.26,1.9,0,.34-.1.71-.14,1.1h0a13,13,0,0,0,0,3.53,3.54,3.54,0,0,0,2.56,3.17c0-.25.05-.5.08-.74.2-1.56.52-3.09.73-4.65a16.43,16.43,0,0,1,1.36-5.62,5.93,5.93,0,0,1,3.6-2.62,20.72,20.72,0,0,1,7.43-.79,40.37,40.37,0,0,1,4.78.52c.2,0,.6,0,.94.11a1.27,1.27,0,0,1,.63.28.18.18,0,0,1,0,.25.18.18,0,0,1-.24,0,.85.85,0,0,0-.44-.18c-.34-.07-.74-.08-.94-.12a39.46,39.46,0,0,0-4.74-.5,20,20,0,0,0-7.3.77,5.63,5.63,0,0,0-3.41,2.45,16.06,16.06,0,0,0-1.32,5.51c-.21,1.55-.53,3.09-.73,4.64a5.58,5.58,0,0,0,.13,2.87,7,7,0,0,0,3,2.9,5.3,5.3,0,0,0,2.41.88,11.78,11.78,0,0,1-.31-2.84,18.75,18.75,0,0,1,.24-4.28,5.29,5.29,0,0,1,2.27-3.56,7.18,7.18,0,0,1,2-.83,19.34,19.34,0,0,1,5.68-.37,16,16,0,0,0,1.95.16.18.18,0,0,1,.18.16.19.19,0,0,1-.16.19,19.12,19.12,0,0,1-2-.17,19.32,19.32,0,0,0-5.58.35,7,7,0,0,0-1.93.8,5,5,0,0,0-2.13,3.34,18.61,18.61,0,0,0-.23,4.2c0,1.53,0,3.28,1.29,4.37a9.67,9.67,0,0,0,5.74,1.93c.38,0,.77.08,1.14.07a1.68,1.68,0,0,0,1-.32,4.51,4.51,0,0,0,1.27-3,8.69,8.69,0,0,1-1.37.18c-.7,0-1.39,0-2.09,0a5.32,5.32,0,0,1-.69,0l-.3,0a.16.16,0,0,1-.16-.15.18.18,0,0,1,0-.12.23.23,0,0,1,.1-.07h.09l.28,0c.22,0,.44,0,.66,0,.68,0,1.37,0,2.06,0a10.85,10.85,0,0,0,5.6-2.2.17.17,0,0,1,.19.29,16.21,16.21,0,0,1-2.12,1.26.2.2,0,0,1,0,.13s0,.11,0,.18c.08.25.22.58.24.63a12.57,12.57,0,0,0,1.78,3,10.9,10.9,0,0,0,4.5,4c2,.77,4.72.71,8.81-1a.17.17,0,0,1,.22.1.16.16,0,0,1-.09.22,17.08,17.08,0,0,1-5.94,1.49,3.69,3.69,0,0,0,.34.35c.37.34.79.68,1.22,1,1.41,1.11,3.07,2.21,4.74,3.28,3.62,2.33,3.52,2.48,5.32,3.08a.17.17,0,0,1,.11.21.16.16,0,0,1-.21.11,8.32,8.32,0,0,1-1.65-.68c-2.49,3.91-2,8.65,1.82,10.11a5.38,5.38,0,0,0,1.51.33h0a10.14,10.14,0,0,0,4.1-.71c7.27-2.52,13.37-10.07,16-17.13a22.37,22.37,0,0,0,1.43-8.89,10.3,10.3,0,0,0-3.71-7.8,7,7,0,0,0-7.82-.47,7.26,7.26,0,0,0-2.46,2.19c.56.32,1.08.63,1.39.84a1.3,1.3,0,0,1,.36.28.2.2,0,0,1,0,.19.17.17,0,0,1-.21.1A.16.16,0,0,1,228.7,153.73Z"/></clipPath></defs><g data-name=" 5-User-Surveys1"><path fill="#f3f3f3" fill-rule="evenodd" d="M51.07,205.56c-5.5-2.93-9.75-12.53-12.49-17.94-9.23-18.26-19.07-53-3.84-70.71,6.18-7.2,14.54-5.15,20.62.91,9.24,9.19,19.88,21.23,33,11.8,18.62-13.36,15.47-65.27,46.84-62.56,18.69,1.61,21.3,23.15,22.92,39.33.62,6.25,1.57,17.12,7.74,20.13,6.35,3.09,13.32-6.15,16.94-10.46,8.71-10.36,21-30.81,36.48-24.74,19.56,7.68,10.84,35.25,6.57,50.41-1.55,5.48-3.48,12.35-1,17.86,7.62,16.88,36.57-.67,41.47,22.88,3.68,17.65-11.57,22.63-24.12,21.15-13.16-1.54-26-3.11-39.28-3.16C167.08,200.33,86.83,203.33,51.07,205.56Z"/><path fill="#fff" fill-rule="evenodd" d="M64.88,116.73a.43.43,0,0,0,0,.07.78.78,0,0,0,0,.82l6.84,10.69a1.32,1.32,0,0,0-.35.12,4.92,4.92,0,0,0-.72.42,3,3,0,0,0-1.46,2.48,7.11,7.11,0,0,0,1,2.5,48.81,48.81,0,0,0,4.59,6.79c-1.43,3.19-2.82,6.52-2.8,9.88,0,4.55,3.06,8.74,5.21,12.53A53.92,53.92,0,0,1,82,174.8c.18.6.34,1.21.5,1.83a52.57,52.57,0,0,0-7.77-11.55c-5.68-6.37-13.2-11.11-18-18.23-1.16-1.73-2.05-3.83-3.61-5.27a5.64,5.64,0,0,0-1.07-.81,1.48,1.48,0,0,0-.93-.17,2.17,2.17,0,0,0-1.3,1.27,13.68,13.68,0,0,0-.88,2.68,14.86,14.86,0,0,0,.41,7.12c.63,2.41,1.55,4.78,2.23,6.84a53.94,53.94,0,0,1,2.9,12.84c.23,3.21-.08,6.48.12,9.7a38.63,38.63,0,0,0-6.33-5.49C43,172,36.72,169.84,32,165.53a21.11,21.11,0,0,0-3.56-3.19,3.82,3.82,0,0,0-.93-.4,1.13,1.13,0,0,0-.73,0,1.66,1.66,0,0,0-.74,1.19,9.53,9.53,0,0,0-.17,2.1A9.89,9.89,0,0,0,27,169.39,56.72,56.72,0,0,0,30.27,175a40.65,40.65,0,0,1,4.37,8.78c1,3.06,1.28,6.37,2.68,9.28a22.49,22.49,0,0,0,11.15,10.17A36.07,36.07,0,0,0,40.83,205a3.78,3.78,0,0,0-1.23.78.94.94,0,0,0-.29.67,1.07,1.07,0,0,0,.38.75c1,.92,3,1.66,5.55,2.27,5.85,1.42,14.37,2.2,18.1,3.2a28.5,28.5,0,0,1,6.09,2c.7.4,1.19.84,1.24,1.38,0,.16-.11.32-.31.49a6.83,6.83,0,0,1-1.89.94c-5.86,2.14-21.08,4.18-23.9,4.9-1.36.34-4.46,1.11-5.89,2.26a1.55,1.55,0,0,0-.7,1.88,2.64,2.64,0,0,0,.88,1.06,8,8,0,0,0,2.32,1.12,43.9,43.9,0,0,0,6.72,1.36c10.25,1.64,20.8,1.65,31.26,2.18,51.69,2.61,114.12-1.85,126.47-6.3a6.49,6.49,0,0,0,2.33-1.28,1.54,1.54,0,0,0,.48-1,2.19,2.19,0,0,0-.87-1.62c-1.36-1.26-4.19-2.57-6.94-3.88a30.84,30.84,0,0,1-5.81-3.25,3.39,3.39,0,0,1-.89-1,1.09,1.09,0,0,1-.09-.91,1.9,1.9,0,0,1,.69-.8,9.53,9.53,0,0,1,2.78-1.26c17.34-5.45,39.59-2.19,57.83-2,1.82,0,12.68.1,17-1.11a4.62,4.62,0,0,0,1.53-.67,1,1,0,0,0,.4-.66,1.18,1.18,0,0,0-.38-.88,6,6,0,0,0-1.81-1.2c-5.36-2.6-19.3-5.15-21.77-5.61-21.59-4-43.86-5.59-66.14-6.16.36-3.43-1.9-5.13-4.33-6.89-.48-.35-1.1-.75-1.64-1.22a2.6,2.6,0,0,1-.79-3.41,16,16,0,0,1,.88-1.71A18.79,18.79,0,0,0,180,175a4.43,4.43,0,0,0-1.13-4.47,4.34,4.34,0,0,0-1.71-1,9.16,9.16,0,0,0-5.7.29c-1.87.59-3.71,1.49-5.38,2.11a16.73,16.73,0,0,1-3.27,1.05,3.16,3.16,0,0,1-2.07-.27,2.71,2.71,0,0,1-1.18-1.76,8,8,0,0,1-.19-2.32c.08-2.21.86-6,.25-8.73a4.31,4.31,0,0,0-1.6-2.68,4,4,0,0,0-2.24-.69,6.47,6.47,0,0,0-1.91.2c-4.73,1.19-7.28,5.3-9.59,9.72s-4.31,9-8.07,11.44a7.8,7.8,0,0,1-7,.82c-2.26-.64-4.51-1.75-7.14-1.9a8.54,8.54,0,0,0-5.4,1.77,24.88,24.88,0,0,0-6,6.63,16.83,16.83,0,0,0-1,2c-.63-.84-1.26-1.68-1.89-2.5-1.09-1.43-2.24-2.83-3.26-4.31-.09-.12-.53-.6-.77-.95a.82.82,0,0,1-.13-.23v0a13.08,13.08,0,0,0,1.27-5.39,18.63,18.63,0,0,0-.12-2l13.39-.06a.81.81,0,0,0,.71-.42.9.9,0,0,0,.1-.42c.17-.48.9-2.39,1-2.58a.9.9,0,0,0,0-.87l-5.29-8.24a15.8,15.8,0,0,0,1.84-2.35c1-1.66,1.29-3.17.47-4.29a4.07,4.07,0,0,0-3.7-1.72,5.92,5.92,0,0,0-1.12.14l.08,0a4.82,4.82,0,0,0,.93-8.27c-1.41-1.1-3.54-1.5-6.17-.34a2.23,2.23,0,0,0,.27-.26,3.66,3.66,0,0,0,.91-4.14,4.33,4.33,0,0,0-4.24-2.32,12,12,0,0,0-3.8.94L85.48,113.71a.85.85,0,0,0-.72-.39l-18,.07a.86.86,0,0,0-.74.45C65.92,114,65.16,116,64.88,116.73Z"/><path fill-rule="evenodd" d="M87.48,198.59c-13,.58-23.3,2.3-36.24,3.92-1,.12-7.38.86-10.27,2.07a3.59,3.59,0,0,0-1.09.64.62.62,0,0,0-.23.43.7.7,0,0,0,.28.48c.93.84,2.92,1.49,5.39,2.05,5.85,1.33,14.37,2.07,18.11,3a29.79,29.79,0,0,1,6.18,1.91c.81.44,1.34,1,1.39,1.55a.86.86,0,0,1-.42.74,7.27,7.27,0,0,1-2,.94c-5.87,2-21.11,3.93-23.93,4.61a23.89,23.89,0,0,0-5.09,1.64,3.48,3.48,0,0,0-1.14.87.86.86,0,0,0-.13.94,2.19,2.19,0,0,0,.77.88,8,8,0,0,0,2.21,1A46.85,46.85,0,0,0,48,227.53c10.24,1.54,20.77,1.55,31.21,2.05,51.64,2.44,114-1.73,126.34-5.91a7.42,7.42,0,0,0,2-.94,1.32,1.32,0,0,0,.6-.89,1.74,1.74,0,0,0-.77-1.27c-1.33-1.17-4.13-2.37-6.85-3.59a31.9,31.9,0,0,1-5.88-3.1c-.93-.73-1.37-1.47-1.08-2.17a2.11,2.11,0,0,1,.8-.9,10.32,10.32,0,0,1,2.89-1.23c17.37-5.13,39.65-2.08,57.93-1.94a123.36,123.36,0,0,0,15.07-.67,11.27,11.27,0,0,0,2.94-.74,1.59,1.59,0,0,0,.47-.3.48.48,0,0,0,.15-.29.66.66,0,0,0-.15-.42,2.3,2.3,0,0,0-.55-.51,15.17,15.17,0,0,0-3.65-1.61c-6.28-2.09-17.18-4-19.33-4.34-26.56-4.66-54.14-5.81-81.5-6-10.79-.09-21.62,0-32.4.43-2.73.1-12.06,1.23-17.87,1.86a9.07,9.07,0,0,1,2.74,1.78,7.49,7.49,0,0,1,.69.69h0a9.52,9.52,0,0,1,3.57,3.91c2.66,5.41-.81,14.51-15.88,16.86-13.14,2-20.89-3.36-23.55-8.58-1.15-2.27-1.35-4.5-.63-6.1a2.38,2.38,0,0,1-.3-2,3.28,3.28,0,0,1,2.92-2C87.75,199.26,87.61,198.92,87.48,198.59Z"/><path fill="#fdc659" fill-rule="evenodd" d="M122.32,198.63l.2.34c1.32,2.42.39,4.44-1.51,6a19,19,0,0,1-7.14,3.29,41.4,41.4,0,0,1-22.74-1.11c-2-.69-4.25-1.57-5.52-3L85.5,204a6.5,6.5,0,0,0,.71,5.36c2.61,4.89,10.25,9.92,23.19,8,14.73-2.19,18.22-10.59,15.62-15.64A9,9,0,0,0,122.32,198.63Z"/><g clip-path="url(#a)"><path fill-rule="evenodd" d="M90.47,205.2c0,.26-.22.71-.26,1-.14,1.22-.16,3.32,1,4,1,.63,2.5.25,3.64.6.38.11,1,.26,1.17.66s-.39.55-.64.64c-.66.22-2.5.56-1.62,1.63a1.56,1.56,0,0,0,.36.32,9.48,9.48,0,0,0,4.27,1.53c.51,0,1.83-.27,2.25,0,.15.12-.12.47-.18.57-.21.38-.39.82,0,1.17a2.57,2.57,0,0,0,1.63.63c.07,0,.9.1.81.18a3.52,3.52,0,0,1-1.24.34,14.63,14.63,0,0,1-4,.45c-5.92-.23-12.31-4.49-13.78-10.45a7.16,7.16,0,0,1-.17-2.69,6,6,0,0,1,.48-1.66C85.46,201.37,88,203.93,90.47,205.2Z"/></g><path fill="#fff" fill-rule="evenodd" d="M83.35,148.1a.17.17,0,0,1,0-.07c.64-4.24,1.87-8.54,2.63-12.3a21.53,21.53,0,0,0,.56-6.57,3.45,3.45,0,0,0-2.11-3,2.63,2.63,0,0,0-2.46.65,10.31,10.31,0,0,0-2.59,3.46c-1.05,2.08-1.78,4.46-2.51,6.32-.51,1.31-1.13,2.66-1.74,4a.19.19,0,0,1-.06.17l0,0c-1.41,3.14-2.78,6.42-2.76,9.73,0,4.49,3,8.62,5.17,12.36a54.77,54.77,0,0,1,4.84,11.84c2.59,9,2.69,18.45,6.7,27a.17.17,0,1,1-.31.14c-.22-.48-.44-1-.64-1.46a3,3,0,0,0-2.73,1.94,2.55,2.55,0,0,0,.58,2.29c1.24,1.57,3.46,2.52,5.38,3.27a36.88,36.88,0,0,0,22.51,1.23,17.9,17.9,0,0,0,7-3.6c1.79-1.67,2.68-3.79,1.44-6.33a6,6,0,0,0-1.38-1.84,8,8,0,0,0-6-2.47,47.85,47.85,0,0,1,2.65,5.13.17.17,0,1,1-.31.14c-2.41-5.51-6-10.43-9.68-15.19-1.1-1.44-2.25-2.84-3.28-4.32-.08-.13-.53-.6-.77-1l0-.06a13.6,13.6,0,0,1-4.47,5,.17.17,0,0,1-.19-.29,13,13,0,0,0,5.79-10.5,19.07,19.07,0,0,0-.55-4.37c-.76,1.34-1.35,2.65-1.84,3.68a.16.16,0,0,1-.22.08.17.17,0,0,1-.09-.23c1.22-2.57,3-6.78,6.6-9.1a33.87,33.87,0,0,0,5.82-4.72.16.16,0,0,1,.07-.09l0,0a15.2,15.2,0,0,0,1.84-2.33c.93-1.51,1.23-2.89.48-3.91a3.78,3.78,0,0,0-3.41-1.58,11.4,11.4,0,0,0-3.1.73h-.07c-4.18,2-6.27,3.56-10.83,7.56A18,18,0,0,0,94,168.65a.16.16,0,0,1-.2.12.17.17,0,0,1-.13-.2,18.37,18.37,0,0,1,5.45-9.3c5.29-4.65,7.29-6,13-8.59,4-1.81,3.16-7.25-.55-8.43-1.54-.49-3.55-.24-5.9,1.25-1.37,1-2.89,1.87-4.26,2.74a53.17,53.17,0,0,0-9.19,7.17c-2.06,2-3.95,4.32-4.51,7.21a.18.18,0,0,1-.2.14.19.19,0,0,1-.14-.2c.58-3,2.51-5.34,4.61-7.4a54.15,54.15,0,0,1,9.24-7.21c1.23-.78,2.58-1.54,3.84-2.42a.13.13,0,0,1,0-.07l.38-.25a14.21,14.21,0,0,0,1.56-1.33,3.35,3.35,0,0,0,.84-3.76A4,4,0,0,0,104,136a11.7,11.7,0,0,0-3.78,1h0c-.72.28-1.49.62-2.3,1l0,0a.16.16,0,0,1-.09,0,54.14,54.14,0,0,0-5.35,3c-4.58,2.9-8.93,6.55-10.17,9.65a.18.18,0,0,1-.22.1.19.19,0,0,1-.1-.23A9.9,9.9,0,0,1,83.35,148.1Z"/><g clip-path="url(#b)"><path fill-rule="evenodd" d="M101.94,181.79c2.52,3.58,5.56,7,7.6,10.9,1.09,2.11,2,4.55,1.1,6.89a10.52,10.52,0,0,1-7.16,6,25.35,25.35,0,0,0-4.16.95c-.56.25-1.17.71-.75,1.37a3.82,3.82,0,0,0,1.93,1.28,19.41,19.41,0,0,0,5.51.94c5.26.27,11.1-1,15.24-4.38,1.9-1.57,3.67-3.81,3.79-6.38s-1.61-5-3.45-6.68c-3.61-3.23-8.18-5.07-12-8a15.55,15.55,0,0,1-3-3c-.33-.44-1.42-3.06-2.39-2.85S102.84,180.77,101.94,181.79Z"/></g><path fill="#7594ff" fill-rule="evenodd" d="M112,162.12a34.28,34.28,0,0,1-3.61,2.65,13.39,13.39,0,0,0-4.11,4.49.14.14,0,0,1,0,.08,20.15,20.15,0,0,1,.42,2.15l12.52-.05a.47.47,0,0,0,.39-.22.28.28,0,0,0,0-.13.15.15,0,0,1,0-.13v0a.46.46,0,0,0-.07-.16Z"/><path fill-rule="evenodd" d="M114.19,160.07c-.48.49-1,1-1.58,1.48l5.79,8.92c.27-.7.77-2,.86-2.14a.5.5,0,0,0,0-.49Z"/><path fill="#7594ff" fill-rule="evenodd" d="M96.94,138.36,83.73,117.87a.46.46,0,0,0-.39-.21l-17.8.07a.47.47,0,0,0-.36.18l-.08.21s0,0,0,0a.53.53,0,0,0,.07.28l11.5,17.84a52.4,52.4,0,0,1,2.19-5.47,10.6,10.6,0,0,1,2.64-3.5,2.94,2.94,0,0,1,2.72-.7,3.73,3.73,0,0,1,2.32,3.27,21.3,21.3,0,0,1-.55,6.54C85.25,140,84.1,144,83.46,148a38,38,0,0,1,8.28-6.73A52.66,52.66,0,0,1,96.94,138.36Z"/><path fill="#fff" fill-rule="evenodd" d="M71.92,128.64h0a.78.78,0,0,0-.42.1,4.9,4.9,0,0,0-.68.4,2.66,2.66,0,0,0-1.3,2.18,6.63,6.63,0,0,0,.93,2.35,49.76,49.76,0,0,0,4.43,6.6c.59-1.3,1.17-2.59,1.66-3.84,0-.12.1-.25.14-.37Z"/><path fill-rule="evenodd" d="M99.36,136.76l-14.44-22a.5.5,0,0,0-.42-.22l-17.76.07a.51.51,0,0,0-.44.25c-.08.14-.6,1.46-.93,2.31a.55.55,0,0,1,.18,0l17.84-.08a.83.83,0,0,1,.68.36l13.26,20.18C98,137.31,98.72,137,99.36,136.76Z"/><path fill="#7594ff" fill-rule="evenodd" d="M119.26,104v0a0,0,0,0,1,0,0Z"/><path fill="#6fdcb2" fill-rule="evenodd" d="M54.63,183.43a38.29,38.29,0,0,0-6.57-5.26c-5.26-3.32-11.55-5.25-16.28-9.21a19.83,19.83,0,0,0-3.5-2.87,3.27,3.27,0,0,0-.84-.33.85.85,0,0,0-.5,0,1.19,1.19,0,0,0-.56.87,8.34,8.34,0,0,0-.15,1.86A9.27,9.27,0,0,0,27.75,173c.87,1.49,2,2.91,2.81,4.16a35.81,35.81,0,0,1,4.4,8.1c1,2.79,1.28,5.8,2.67,8.46,2.12,4,6.75,7.68,11.51,9.34,1-.14,1.77-.22,2.06-.26,5.2-.64,10-1.29,14.7-1.87-5.25-3.67-9.59-9.47-10.89-15.06A17.22,17.22,0,0,1,54.63,183.43Z"/><path fill="#6fdcb2" fill-rule="evenodd" d="M83 179.83a.1.1 0 010-.05 49.14 49.14 0 00-8-11.9c-5.43-5.95-12.63-10.39-17.19-17-1.09-1.6-1.93-3.54-3.4-4.86a5 5 0 00-1-.71 1.08 1.08 0 00-.67-.13c-.42.08-.75.51-1 1a11.33 11.33 0 00-.82 2.43 13.27 13.27 0 00.39 6.49c.6 2.24 1.48 4.44 2.12 6.36a50.22 50.22 0 012.79 12.05c.23 3.13-.11 6.33.14 9.46l0 0a.17.17 0 010 .22h0a20.43 20.43 0 00.34 2.31c1.26 5.74 5.48 11.69 10.55 15.37 6.48-.86 12.84-1.58 20-1.92C85.08 192.8 84.51 186.22 83 179.83zM181.79 192.94c.35-2.86-1.81-4.25-4.08-5.71a13.82 13.82 0 01-1.94-1.34 2.62 2.62 0 01-.84-1.3 2.81 2.81 0 01.29-1.73 14.12 14.12 0 01.88-1.5 14.42 14.42 0 001.82-3.74 3.27 3.27 0 00-1-3.58 4 4 0 00-1.54-.82 9.69 9.69 0 00-5.35.25c-1.82.52-3.6 1.29-5.23 1.83a19.68 19.68 0 01-3.25.92 3.78 3.78 0 01-2.23-.27 2.51 2.51 0 01-1.17-1.3 6 6 0 01-.34-2.5c.08-1.89.84-5.13.25-7.47a3.37 3.37 0 00-1.42-2.15 4 4 0 00-2-.54 7 7 0 00-1.76.17c-4.52 1-6.92 4.51-9.13 8.26s-4.27 7.89-8 10a8.77 8.77 0 01-7.07.75c-2.18-.55-4.34-1.51-6.88-1.64a8.77 8.77 0 00-5 1.48 22.43 22.43 0 00-5.78 5.66 19.17 19.17 0 00-1 1.83v0a74.24 74.24 0 014.62 6 11.92 11.92 0 012.84.35h0c5.59-.56 15.33-1.69 18.11-1.79 10.51-.35 21.06-.47 31.59-.39C172 192.77 176.89 192.83 181.79 192.94z"/><path fill="#fff" fill-rule="evenodd" d="M183.1,134.35l-.7.14c-2.07.41-4.07,1.11-5.09,3.11a9.18,9.18,0,0,0-.53,1.29l-.11,0-.49,0a9.51,9.51,0,0,0-1.29.26,4.46,4.46,0,0,0-3.22,2.51c-.88,2.49,1.4,4.72,3.68,5a13.44,13.44,0,0,0,0,3.47,3.84,3.84,0,0,0,2.86,3.46,4.33,4.33,0,0,0,.27,2,7.24,7.24,0,0,0,3.12,3.05,5.44,5.44,0,0,0,2.71.93,3.5,3.5,0,0,0,1,1.44,9.94,9.94,0,0,0,5.94,2,11.65,11.65,0,0,0,1.17.07,2,2,0,0,0,1.17-.38c1-.73,1.25-2.19,1.42-3.31a.13.13,0,0,0,0-.06,10.12,10.12,0,0,0,1.6-.56v0a6.47,6.47,0,0,0,.31.86,12.88,12.88,0,0,0,1.82,3.1,11.16,11.16,0,0,0,4.65,4.08,7.75,7.75,0,0,0,2.63.49l0,0h0s.16.15.18.18.24.25.38.38c.37.35.8.7,1.24,1.05,1.41,1.11,3.09,2.22,4.77,3.3,1.89,1.22,2.78,1.85,3.45,2.25-2.6,4.11-2,9.08,2,10.61a6.09,6.09,0,0,0,1.48.34c.14,2.34,1.7,4,3.86,5a14.14,14.14,0,0,0,10.8.08C242,187,247.74,179.18,250.06,171c1.81-6.38,1.48-14.75-3.58-19.64a10.25,10.25,0,0,0-8.13-2.95,10.45,10.45,0,0,0-1.7.31,2.89,2.89,0,0,0-1.11.55,7.66,7.66,0,0,0-6,.66,7.77,7.77,0,0,0-2.61,2.33c-.83-.48-1.7-1-2.1-1.26a35.09,35.09,0,0,1-7.07-6.31c-3.25-3.93-5.58-8.45-9.6-11.73-7.38-6-17.84-6.83-26.81-8.68-3.59-.74-7.35-1.72-11-1.66a10.9,10.9,0,0,0-2.78.32,3.56,3.56,0,0,0-1.62.94,2.22,2.22,0,0,0-.22,2.79,9.25,9.25,0,0,0,3.29,3.08C173.39,132.22,178.23,133.36,183.1,134.35Z"/><path fill="#fdc659" fill-rule="evenodd" d="M219.89,185.69a5.43,5.43,0,0,0,3.52,4.54,13,13,0,0,0,10.14.09c7.44-3.55,12.9-11.1,15.11-19,1.72-6.15,1.44-14.22-3.35-18.93a9.41,9.41,0,0,0-7.57-2.8,9.68,9.68,0,0,0-1.6.29,2.74,2.74,0,0,0-.79.35,7.35,7.35,0,0,1,1.74,1,9.82,9.82,0,0,1,3.48,6.09A21.4,21.4,0,0,1,239.41,168c-2.54,7-8.51,14.5-15.61,17A10.34,10.34,0,0,1,219.89,185.69Z"/><g clip-path="url(#c)"><path fill-rule="evenodd" d="M231.4,168.57c.61,1.23,6.6-12.75,7.21-11.49,2.34,4.91,3.69,10.25.95,15.31-1.55,2.84-3.81,5.18-5.88,7.59-.65.76-2.2,2.21-2.21,3.34,0,.56,1.7.14,2,.16s.57.05.53.37c-.07.47-.67.87-1,1.12-.94.71-3.11,1.76-2.73,3.34.25,1,1.83.82,2.53.64,2.35-.59,4.41-2,6.65-2.83,1.08-.41,3.16-.78,2.41,1.17a9.4,9.4,0,0,1-3.19,3.71,15.94,15.94,0,0,1-13.22,3,7.57,7.57,0,0,1-6.07-6.87,11.13,11.13,0,0,1,.48-3.63,21.46,21.46,0,0,1,3-6A43.41,43.41,0,0,1,231.4,168.57Z"/></g><path fill="#fff" fill-rule="evenodd" d="M228.7,153.73a1.9,1.9,0,0,0-.25-.19c-.84-.56-3.09-1.77-3.81-2.27a35.72,35.72,0,0,1-7.13-6.37c-3.24-3.91-5.55-8.42-9.56-11.68-7.33-6-17.75-6.78-26.66-8.61-3.57-.74-7.29-1.72-11-1.66a10.59,10.59,0,0,0-2.69.31,3.26,3.26,0,0,0-1.47.84,1.93,1.93,0,0,0-.17,2.4,8.9,8.9,0,0,0,3.16,2.94c4.52,2.56,9.52,3.67,14.55,4.68l.32.06a56.09,56.09,0,0,1,7.87-.67c1.09,0,2.19,0,3.27,0a5,5,0,0,1,1.64.22.19.19,0,0,1,.09.23.18.18,0,0,1-.23.09,4.3,4.3,0,0,0-1.51-.19c-1.08-.06-2.17-.07-3.25-.05a54.36,54.36,0,0,0-7.85.68h0c-.53.09-1.06.18-1.59.29-2,.4-3.87,1-4.85,2.93a14,14,0,0,0-1,3.33c-.18.84-.33,1.69-.46,2.54-.1.63-.18,1.26-.26,1.9,0,.34-.1.71-.14,1.1h0a13,13,0,0,0,0,3.53,3.54,3.54,0,0,0,2.56,3.17c0-.25.05-.5.08-.74.2-1.56.52-3.09.73-4.65a16.43,16.43,0,0,1,1.36-5.62,5.93,5.93,0,0,1,3.6-2.62,20.72,20.72,0,0,1,7.43-.79,40.37,40.37,0,0,1,4.78.52c.2,0,.6,0,.94.11a1.27,1.27,0,0,1,.63.28.18.18,0,0,1,0,.25.18.18,0,0,1-.24,0,.85.85,0,0,0-.44-.18c-.34-.07-.74-.08-.94-.12a39.46,39.46,0,0,0-4.74-.5,20,20,0,0,0-7.3.77,5.63,5.63,0,0,0-3.41,2.45,16.06,16.06,0,0,0-1.32,5.51c-.21,1.55-.53,3.09-.73,4.64a5.58,5.58,0,0,0,.13,2.87,7,7,0,0,0,3,2.9,5.3,5.3,0,0,0,2.41.88,11.78,11.78,0,0,1-.31-2.84,18.75,18.75,0,0,1,.24-4.28,5.29,5.29,0,0,1,2.27-3.56,7.18,7.18,0,0,1,2-.83,19.34,19.34,0,0,1,5.68-.37,16,16,0,0,0,1.95.16.18.18,0,0,1,.18.16.19.19,0,0,1-.16.19,19.12,19.12,0,0,1-2-.17,19.32,19.32,0,0,0-5.58.35,7,7,0,0,0-1.93.8,5,5,0,0,0-2.13,3.34,18.61,18.61,0,0,0-.23,4.2c0,1.53,0,3.28,1.29,4.37a9.67,9.67,0,0,0,5.74,1.93c.38,0,.77.08,1.14.07a1.68,1.68,0,0,0,1-.32,4.51,4.51,0,0,0,1.27-3,8.69,8.69,0,0,1-1.37.18c-.7,0-1.39,0-2.09,0a5.32,5.32,0,0,1-.69,0l-.3,0a.16.16,0,0,1-.16-.15.18.18,0,0,1,0-.12.23.23,0,0,1,.1-.07h.09l.28,0c.22,0,.44,0,.66,0,.68,0,1.37,0,2.06,0a10.85,10.85,0,0,0,5.6-2.2.17.17,0,0,1,.19.29,16.21,16.21,0,0,1-2.12,1.26.2.2,0,0,1,0,.13s0,.11,0,.18c.08.25.22.58.24.63a12.57,12.57,0,0,0,1.78,3,10.9,10.9,0,0,0,4.5,4c2,.77,4.72.71,8.81-1a.17.17,0,0,1,.22.1.16.16,0,0,1-.09.22,17.08,17.08,0,0,1-5.94,1.49,3.69,3.69,0,0,0,.34.35c.37.34.79.68,1.22,1,1.41,1.11,3.07,2.21,4.74,3.28,3.62,2.33,3.52,2.48,5.32,3.08a.17.17,0,0,1,.11.21.16.16,0,0,1-.21.11,8.32,8.32,0,0,1-1.65-.68c-2.49,3.91-2,8.65,1.82,10.11a5.38,5.38,0,0,0,1.51.33h0a10.14,10.14,0,0,0,4.1-.71c7.27-2.52,13.37-10.07,16-17.13a22.37,22.37,0,0,0,1.43-8.89,10.3,10.3,0,0,0-3.71-7.8,7,7,0,0,0-7.82-.47,7.26,7.26,0,0,0-2.46,2.19c.56.32,1.08.63,1.39.84a1.3,1.3,0,0,1,.36.28.2.2,0,0,1,0,.19.17.17,0,0,1-.21.1A.16.16,0,0,1,228.7,153.73Z"/><g clip-path="url(#d)"><path fill-rule="evenodd" d="M241.84,164.42a7.8,7.8,0,0,0-1,1.58c-.7,1.09-1.47,2.12-2.25,3.14a37.37,37.37,0,0,1-10.06,9.18c-1.94,1.27-4.63,2.86-7.08,2.43a2.29,2.29,0,0,1-2.15-2.74c.29-2.52,2.35-4.69,1.8-5.28-1.22-1.28-3.52-.8-5.1-1.11a10.86,10.86,0,0,1-5-2.24,7.65,7.65,0,0,1-1.3-1.42c-.15-.22-.73-1-.73-1l-3.13.38c-.83.1-2.75.43-2.85,1.7s1,2.33,1.61,3.2c1.4,2,2.74,4.14,4.22,6.14,2.28,3.08,5.05,7.13,8.67,8.7,3.28,1.43,7.07.72,10.17-.83C233.38,183.42,242,172.61,241.84,164.42Z"/></g><path fill="#fff" fill-rule="evenodd" d="M176.67 139.26l-.45 0a7.54 7.54 0 00-1.24.24 4.11 4.11 0 00-3 2.3c-.81 2.27 1.32 4.28 3.4 4.57 0-.33.08-.64.12-.94.08-.63.16-1.27.26-1.91.14-.85.28-1.7.47-2.55C176.37 140.43 176.5 139.84 176.67 139.26zM150 141a2.61 2.61 0 00-2.61-2.61h-8.56a2.61 2.61 0 00-2.62 2.61v8.56a2.61 2.61 0 002.62 2.61h8.56a2.61 2.61 0 002.61-2.61z"/><path fill="#e14a97" fill-rule="evenodd" d="M148.86,141.7v8.56a2.27,2.27,0,0,1-2.27,2.27H138a2.27,2.27,0,0,1-2.27-2.27V141.7a2.27,2.27,0,0,1,2.27-2.27h8.56A2.27,2.27,0,0,1,148.86,141.7Z"/><path fill="#fff" fill-rule="evenodd" d="M118,119.87v7.92a4.13,4.13,0,0,0,3.94,4.13l-.63,6.6a.18.18,0,0,0,.11.17.16.16,0,0,0,.19,0l5.91-6.73h27.09a4.13,4.13,0,0,0,4.13-4.13v-7.92a4.13,4.13,0,0,0-4.13-4.13H122.15A4.13,4.13,0,0,0,118,119.87Z"/><path fill="#7594ff" fill-rule="evenodd" d="M117.38,120.72a3.79,3.79,0,0,1,3.79-3.79h32.48a3.79,3.79,0,0,1,3.79,3.79v7.92a3.79,3.79,0,0,1-3.79,3.79H126.49a.15.15,0,0,0-.13.06l-5.61,6.38.59-6.26a.16.16,0,0,0,0-.13.21.21,0,0,0-.13,0,3.79,3.79,0,0,1-3.79-3.79Z"/><circle cx="105.59" cy="95.26" r="20.04" fill="#fff"/><circle cx="104.63" cy="95.9" r="19.7" fill="#7594ff"/><path fill="#fff" fill-rule="evenodd" d="M99.16,111.31a.21.21,0,0,0,.12.07h0a16.4,16.4,0,0,0,5.8,1,16.59,16.59,0,1,0-6-1.11Z"/><path fill-rule="evenodd" d="M100.88,102.13a1.54,1.54,0,0,0-.22,1c0,.77.28,1.65.25,2.29a9.85,9.85,0,0,1-.35,2.07c-.21.83-.46,1.64-.59,2.49a5.48,5.48,0,0,0,0,.57v0a15.18,15.18,0,0,0,5.37,1,15.82,15.82,0,0,0,2.85-.26,4,4,0,0,1-.29-1.38,19.69,19.69,0,0,1,.16-3c.12-1,.25-2,.27-2.85a3.65,3.65,0,0,0-.1-1.12,5.86,5.86,0,0,1-1.46,1.14A4.15,4.15,0,0,1,100.88,102.13Z"/><path fill="#fdc659" fill-rule="evenodd" d="M110.14 99.33a8.57 8.57 0 01-1.72 3.36s0 0 0 0a3.43 3.43 0 01.16 1.35c0 .81-.15 1.83-.27 2.86a17.48 17.48 0 00-.16 2.91 3.57 3.57 0 00.29 1.32 15.87 15.87 0 0010-6.77l0 0-.23-.17-.57-.48c-.55-.46-1.09-.92-1.66-1.36A13 13 0 00110.14 99.33zM102.21 98.33h0a18 18 0 00-4.91.87.25.25 0 01-.09 0h0a8.78 8.78 0 00-4.07 2.87 10.67 10.67 0 00-1.2 2.24 15.72 15.72 0 007.48 6.05 2.94 2.94 0 010-.51 21.52 21.52 0 01.61-2.49 9.65 9.65 0 00.35-2c0-.63-.24-1.5-.26-2.24a1.62 1.62 0 01.5-1.39h0a2.56 2.56 0 00.62-.84 10 10 0 00.86-2.17C102.15 98.61 102.18 98.47 102.21 98.33z"/><path fill="#fff" fill-rule="evenodd" d="M109.19,95.64c-1.38,1.55-3.69,2.46-5.61,1.38a6.17,6.17,0,0,1-.6-.39v.09a7.23,7.23,0,0,1-.24,1.49,11.36,11.36,0,0,1-.91,2.36,3.49,3.49,0,0,1-.64.9,4.09,4.09,0,0,0,5.76,2,7.43,7.43,0,0,0,3.42-4.89,0,0,0,0,1,0,0h0A4.53,4.53,0,0,1,109.19,95.64Z"/><path fill-rule="evenodd" d="M114.77,100.34a15.08,15.08,0,0,0-.38-4.73c-.49-1.68-1.44-3.19-1.72-4.94a22.15,22.15,0,0,1-.11-3.45,7,7,0,0,0-.62-3.26,4.94,4.94,0,0,0-5.83-2.48,1.36,1.36,0,0,0-.38.27l0,0a7,7,0,0,1,.8.58.17.17,0,0,1-.23.26,4.81,4.81,0,0,0-.89-.63.16.16,0,0,1-.16-.08h0A4.59,4.59,0,0,0,99,84.22a6,6,0,0,0-.51,3c0,1,.18,2.09.12,3.17-.08,1.63-.83,3.12-1.08,4.73a12.93,12.93,0,0,0-.08,3.12,18.41,18.41,0,0,1,4.9-.88.16.16,0,0,1,.09,0,3.7,3.7,0,0,0,.06-.63,2.33,2.33,0,0,0,0-.4,9.53,9.53,0,0,1-2.68-6.59,11.49,11.49,0,0,1,.07-2,4.46,4.46,0,0,1,.08-.52.77.77,0,0,1,.1-.18l-.12-.14a.14.14,0,0,1-.11-.12.17.17,0,0,1,0-.16.16.16,0,0,1,.21,0,.16.16,0,0,1,.08.06s.11.14.15.17a2.13,2.13,0,0,0,.46.27,2.1,2.1,0,0,0,1.63.1,5.25,5.25,0,0,0,1.46-1.1,4.6,4.6,0,0,1,1.6-1.11,6.81,6.81,0,0,1,2.29-.15,2.18,2.18,0,0,0,1.87-.75.16.16,0,0,1,.23,0,.17.17,0,0,1,0,.24,2.21,2.21,0,0,1-.41.4.16.16,0,0,1,.07.07,11.67,11.67,0,0,1,.11,9.92,5.84,5.84,0,0,1-.33.53,3.93,3.93,0,0,0,1.08,3.16l0,.05A10.61,10.61,0,0,1,114.77,100.34Z"/><path fill="#fff" fill-rule="evenodd" d="M109.48 84.7A3 3 0 01108 85a6.48 6.48 0 00-2.23.14 4.47 4.47 0 00-1.52 1 5.29 5.29 0 01-1.6 1.17 2.53 2.53 0 01-1.93-.09l-.31-.15h0l0 0a.2.2 0 000 .11c0 .14 0 .31-.06.4a12 12 0 00-.07 2 9.28 9.28 0 002.47 6.26.18.18 0 01.18.08s0 .08.05.13a5.14 5.14 0 00.85.59c2.15 1.21 4.81-.3 5.86-2.27a11.26 11.26 0 00-.11-9.7A.08.08 0 01109.48 84.7zM195.4 102.29a2.61 2.61 0 00-2.61-2.61h-8.56a2.61 2.61 0 00-2.61 2.61v8.56a2.61 2.61 0 002.61 2.62h8.56a2.61 2.61 0 002.61-2.62z"/><path fill="#7594ff" fill-rule="evenodd" d="M194.14,103.13v8.55a2.28,2.28,0,0,1-2.27,2.28h-8.56a2.28,2.28,0,0,1-2.27-2.28v-8.55a2.28,2.28,0,0,1,2.27-2.28h8.56A2.28,2.28,0,0,1,194.14,103.13Z"/><path fill="#fff" fill-rule="evenodd" d="M178.53,87.91a4.13,4.13,0,0,0-4.13-4.13H141.92a4.13,4.13,0,0,0-4.13,4.13v7.92a4.13,4.13,0,0,0,4.13,4.13H169l5.9,6.73a.18.18,0,0,0,.2,0,.16.16,0,0,0,.1-.17l-.62-6.6a4.13,4.13,0,0,0,3.94-4.13Z"/><path fill="#e14a97" fill-rule="evenodd" d="M177.19,89.22v7.92a3.79,3.79,0,0,1-3.79,3.78.18.18,0,0,0-.13.06.15.15,0,0,0,0,.13l.59,6.26L168.21,101a.16.16,0,0,0-.12-.06H140.92a3.79,3.79,0,0,1-3.79-3.78V89.22a3.79,3.79,0,0,1,3.79-3.79H173.4A3.79,3.79,0,0,1,177.19,89.22Z"/><circle cx="221.26" cy="110.23" r="18.32" fill="#fff"/><circle cx="220.75" cy="111.1" r="17.98" fill="#7594ff"/><path fill="#fff" fill-rule="evenodd" d="M225,125a.15.15,0,0,0,.13,0,.08.08,0,0,0,0,0,15.17,15.17,0,0,0,8.63-6.05l0,0a.21.21,0,0,0,.08-.15,15.18,15.18,0,1,0-12.61,6.72A15.47,15.47,0,0,0,225,125Z"/><path fill-rule="evenodd" d="M224.39,118.79a6,6,0,0,1-2.53,2.32,2.76,2.76,0,0,1-2,.32,4.64,4.64,0,0,1-1.26-.64,3.37,3.37,0,0,1,.27.87,3.66,3.66,0,0,1-.1,1.27,18.82,18.82,0,0,0-.38,1.87,12,12,0,0,0,2.48.26,11.73,11.73,0,0,0,3-.4c-.22-.54-.14-.73-.38-1.41-.08-.22-.24-.53-.33-.82a1,1,0,0,1,0-.66,4.11,4.11,0,0,1,1-1.18c.06-.06.18-.17.27-.27a.29.29,0,0,0,.08-.14.19.19,0,0,1,0-.09,1.43,1.43,0,0,1-.16-.3,1.67,1.67,0,0,1-.07-.81Z"/><path fill="#fdc659" fill-rule="evenodd" d="M217.26 113.69A9.13 9.13 0 00215 114a15.58 15.58 0 00-5.66 2.57 8.33 8.33 0 00-1.16 1.05v0a14.75 14.75 0 009.94 7.08 18.16 18.16 0 01.43-1.81 3 3 0 00.12-1.09 3.67 3.67 0 00-.62-1.31 1 1 0 00-.09-.13l-.19-.19a.15.15 0 01-.06 0 .22.22 0 01-.14 0 .9.9 0 01-.24-.11 2.92 2.92 0 00-.94-.41 5.39 5.39 0 00-1.27 0 1.82 1.82 0 01-.4 0 .52.52 0 01-.29-.18.66.66 0 01-.07-.58 4.76 4.76 0 01.3-.72 17.09 17.09 0 011.87-2.93c.19-.27.38-.53.59-.79 0 0 .08-.13.14-.19a.28.28 0 01.09-.07C217.31 114 217.28 113.82 217.26 113.69zM225.81 115l-.06.13h0a.28.28 0 01.11.14c0 .09 0 .29 0 .32a9.26 9.26 0 00.32 1 15.61 15.61 0 001.65 3.13c.15.24.31.48.47.72a1.58 1.58 0 01.13.26.41.41 0 010 .27.4.4 0 01-.34.2 3.06 3.06 0 01-.7-.09 3.47 3.47 0 01-1.76-.7l-.08.11a2 2 0 01-.38.36 4 4 0 00-1 1 .54.54 0 000 .41c.09.28.28.58.36.79a14 14 0 00.44 1.41 14.39 14.39 0 008.14-5.58 7.3 7.3 0 00-.9-1 8.63 8.63 0 00-2.31-1.49 18.45 18.45 0 00-2.88-1.07l-.91-.25-.24 0A.37.37 0 01225.81 115z"/><path fill="#fff" fill-rule="evenodd" d="M217.94,115.16a5.27,5.27,0,0,0-.31,2.72c.06.4.16.79.22,1.18a1.7,1.7,0,0,1,.06.35.57.57,0,0,1,0,.13s0,0,.05,0a.21.21,0,0,0,0,.06s0,0,0,0l.18.2a5.38,5.38,0,0,0,2,1.1,3.09,3.09,0,0,0,2-.31,5.25,5.25,0,0,0,3.1-3.15A4.12,4.12,0,0,0,225,116h0a4.69,4.69,0,0,1-2.05,1.64c-1.87.67-3.89-.57-4.82-2.17C218,115.36,218,115.26,217.94,115.16Z"/><path fill="#fdc659" fill-rule="evenodd" d="M225.56 115.51a7.33 7.33 0 01-.4.63 4.47 4.47 0 01.45 2.27 6.81 6.81 0 01-.11.73 1.17 1.17 0 00.05.62 2.49 2.49 0 001.94 1.06 5.41 5.41 0 00.54.09h.14a.09.09 0 000-.07s-.06-.11-.08-.15c-.16-.24-.31-.48-.47-.71a15.84 15.84 0 01-1.68-3.21 7.84 7.84 0 01-.33-1S225.58 115.59 225.56 115.51zM217.43 114.47l-.06.08c-.2.25-.39.51-.58.77A17.08 17.08 0 00215 118.2a3.66 3.66 0 00-.28.67c0 .12-.06.24 0 .31a.17.17 0 00.14.06 1.24 1.24 0 00.27 0 5.64 5.64 0 011.36 0 3.22 3.22 0 011 .45l.07 0v-.08c0-.08 0-.17 0-.24-.07-.37-.17-.74-.22-1.12a4.7 4.7 0 01.45-3A6.15 6.15 0 01217.43 114.47z"/><path fill="#fff" fill-rule="evenodd" d="M226.54 108.76a1.57 1.57 0 01-.18-1.31 1.32 1.32 0 00-.18-1.18 1.47 1.47 0 00-1.1-.42c-.5 0-1 0-1.5-.07a23 23 0 01-3.13-.88 1.85 1.85 0 00-1.64.23 1.19 1.19 0 00-.38.83c0 .22 0 .45 0 .66a5.52 5.52 0 01-.44 1.8c-.11.24-.23.49-.35.73a.88.88 0 01-.1.19l0 0a.14.14 0 010 .07 15.42 15.42 0 010 1.66 8.55 8.55 0 00.93 4.19c.85 1.46 2.69 2.63 4.4 2a4.26 4.26 0 001.89-1.52C226.26 113.69 226.52 111.25 226.54 108.76zM226.62 112a1.33 1.33 0 00.55-.62 3.13 3.13 0 00.27-1.06 2.89 2.89 0 000-.43.5.5 0 00-.09-.33l0 0a.09.09 0 00-.06 0 .85.85 0 00-.17.16 2.64 2.64 0 00-.21.35s0 0 0 0A14.77 14.77 0 01226.62 112z"/><path fill-rule="evenodd" d="M229.5,101.68a4.23,4.23,0,0,1,.13.74.17.17,0,0,1-.34,0c-.22-2.74-3.26-4-5.8-3.49a6,6,0,0,0-1.65.61,2.59,2.59,0,0,0-.47.32.2.2,0,0,0,0,.08h0a3.73,3.73,0,0,1,.64.76.15.15,0,0,1-.06.22.16.16,0,0,1-.23,0,3.1,3.1,0,0,0-.67-.76l0,0a.1.1,0,0,1-.05,0,3.82,3.82,0,0,0-4.45.26,4.06,4.06,0,0,0-1.63,2.75,3.12,3.12,0,0,1,.91-.65.18.18,0,0,1,.23.08.17.17,0,0,1-.08.22,3.2,3.2,0,0,0-1.52,1.61,5.14,5.14,0,0,0-.28,3.82,3.36,3.36,0,0,0,1.55,1.9,2.16,2.16,0,0,0,.55.21,4.23,4.23,0,0,1,0-.47,1.73,1.73,0,0,1,.12-.67.4.4,0,0,1,.29-.23.55.55,0,0,1,.49.15l.15.17a.39.39,0,0,1,.06-.13c.12-.22.23-.46.33-.68a4.5,4.5,0,0,0,.41-1.62,7.54,7.54,0,0,1,.06-.81,1.37,1.37,0,0,1,.46-.84,2.21,2.21,0,0,1,1.93-.29,23.48,23.48,0,0,0,3.07.83c.54.06,1.21,0,1.77.1a1.67,1.67,0,0,1,1,.49,1.51,1.51,0,0,1,.25,1.39,1.91,1.91,0,0,0,0,.63h.06a.17.17,0,0,1,.17.16v.31h0a.16.16,0,0,1,0,.23h0c0,.18,0,.37,0,.56a.85.85,0,0,1,.17-.16.44.44,0,0,1,.35-.1.4.4,0,0,1,.24.15.79.79,0,0,1,.16.4,2.65,2.65,0,0,1,0,.57,3.28,3.28,0,0,1-.22.94,1.66,1.66,0,0,0,2.41-.49,3.34,3.34,0,0,0,.53-1.41,1.93,1.93,0,0,0,0-.25,5,5,0,0,1-.72.57.16.16,0,0,1-.23-.05.14.14,0,0,1,0-.22,4.6,4.6,0,0,0,1.82-5.43,5.68,5.68,0,0,0-.72-1.41A2.93,2.93,0,0,0,229.5,101.68Z"/><path fill="#fff" fill-rule="evenodd" d="M217.19 109.66h0a4 4 0 00-.27-.39c-.06-.08-.13-.16-.24-.13s0 0 0 0a.36.36 0 000 .09 1.77 1.77 0 00-.05.48 2.75 2.75 0 000 .62.25.25 0 010 .09h0a1.91 1.91 0 00.16.53.81.81 0 00.37.42v-.29C217.11 110.64 217.21 110.13 217.19 109.66zM60.78 227.47a12.53 12.53 0 002.29 0 .16.16 0 00.17-.17.18.18 0 00-.17-.17 12.79 12.79 0 01-2.23 0 .17.17 0 10-.06.34zm-10.25-4.68a7.42 7.42 0 00-3.23.59c-.64.29-.83.63-.79.92a.76.76 0 00.33.52 2.5 2.5 0 001 .46c.33.08.66.14 1 .2 4.19.7 8.51.68 12.75 1a.18.18 0 00.18-.16.17.17 0 00-.16-.19c-4.22-.3-8.53-.28-12.71-1-.32 0-.65-.12-1-.19a2.26 2.26 0 01-.87-.39.47.47 0 01-.2-.3.3.3 0 01.09-.24 1.54 1.54 0 01.5-.32 6.93 6.93 0 013.05-.57.18.18 0 00.19-.15A.17.17 0 0050.53 222.79zm77.14-24.87a20.24 20.24 0 013.89.1 14.76 14.76 0 012.71.61 11.42 11.42 0 011.86.82c.87.49 1.27 1 1.31 1.51a2.07 2.07 0 01-.68 1.53 17.33 17.33 0 01-3.53 2.6 3 3 0 00-1 .93.85.85 0 00-.14.59 1 1 0 00.53.7 4.46 4.46 0 001.74.55c.65.1 1.31.17 2 .22.9.08 1.81.11 2.72.14 9.3.31 18.57-.44 27.77 1.34 2.37.46 5 1 7.1 2.31a3.26 3.26 0 011 .89 1 1 0 010 1.1 5.82 5.82 0 01-3.59 2.29 39.08 39.08 0 01-7 1c-9.93 1-20-.51-29.92.73a11.29 11.29 0 00-1.14.19 2.49 2.49 0 00-.84.33.53.53 0 00-.23.33.47.47 0 00.08.37 1.67 1.67 0 00.49.44 33.27 33.27 0 003.7 1.57 3.63 3.63 0 01.77.48c.1.1.19.22.14.35a1.18 1.18 0 01-.74.57 10.89 10.89 0 01-1.69.41 51.28 51.28 0 01-8 .8c-7.18.31-14.4.07-21.59 0a64.42 64.42 0 01-8.22-.31 7.9 7.9 0 01-2-.48 1 1 0 01-.23-.14s-.06-.05-.07-.09a.14.14 0 010-.06l.09-.1a3 3 0 01.66-.34.17.17 0 00.1-.22.18.18 0 00-.22-.1 2.26 2.26 0 00-.85.49.42.42 0 00-.13.4c0 .17.2.34.48.47a8.7 8.7 0 002.07.51 63.24 63.24 0 008.26.31c7.19.07 14.42.31 21.61 0a50.86 50.86 0 008.07-.81 9.77 9.77 0 001.75-.42 1.49 1.49 0 00.93-.78.67.67 0 00-.22-.71 4 4 0 00-.85-.53 34.87 34.87 0 01-3.68-1.56 1.54 1.54 0 01-.35-.29.23.23 0 01-.07-.16c0-.06.08-.11.17-.17a2.84 2.84 0 01.65-.22 8.59 8.59 0 011.11-.19c9.87-1.24 20 .27 29.91-.73a40 40 0 007.09-1 6.2 6.2 0 003.79-2.44 1.36 1.36 0 00-.06-1.47 3.75 3.75 0 00-1.07-1c-2.08-1.36-4.81-1.89-7.21-2.36-9.23-1.78-18.51-1-27.83-1.35-.9 0-1.8-.06-2.7-.13-.65-.05-1.3-.12-2-.22a4.45 4.45 0 01-1.6-.49.76.76 0 01-.38-.47.63.63 0 01.17-.48 3.27 3.27 0 01.83-.7 18 18 0 003.61-2.66 2.44 2.44 0 00.77-1.79c-.06-.6-.48-1.21-1.49-1.78a11.29 11.29 0 00-1.92-.84 13.83 13.83 0 00-2.78-.63 20.87 20.87 0 00-3.95-.11.17.17 0 00-.16.19A.17.17 0 00127.67 197.92zM200.6 220a2.18 2.18 0 01.44.08 1.1 1.1 0 01.23.09s0 0 0 .06a.08.08 0 010 .07.65.65 0 01-.1.15 7.11 7.11 0 01-2.15 1.21c-2.67.94-5.7 1-8.49 1.3a.17.17 0 00-.15.19.17.17 0 00.18.15c2.82-.3 5.88-.37 8.57-1.31a7.93 7.93 0 002.29-1.31.58.58 0 00.19-.54.45.45 0 00-.24-.28 2 2 0 00-.77-.2.16.16 0 00-.19.15A.17.17 0 00200.6 220zm2.18 1.11l-.05.06a1.26 1.26 0 01-.27.18c-.58.32-1.6.67-1.79.76a.16.16 0 00-.08.22.16.16 0 00.23.08 14.64 14.64 0 002-.9.75.75 0 00.2-.2.27.27 0 00.06-.2.17.17 0 00-.18-.16A.18.18 0 00202.78 221.12zM96.47 219.75a1.32 1.32 0 01-.6.12c-.43 0-.93 0-1.17 0-1.66.12-3.33.21-5 .31a.18.18 0 00-.16.18.17.17 0 00.19.16c1.66-.1 3.32-.18 5-.31.29 0 .92 0 1.39 0a1.12 1.12 0 00.56-.17.17.17 0 10-.2-.27zm-1.88-1.81a1 1 0 00-.41-.1h-.56c-.74-.07-1.49-.12-2.24-.17a.19.19 0 00-.19.16.17.17 0 00.16.18c.75.05 1.5.1 2.24.17h.57a.92.92 0 01.26 0 .17.17 0 00.23-.06A.16.16 0 0094.59 217.94zm-7.7-10c.47.68.68 1.64 1.13 2.38a.18.18 0 00.24 0 .19.19 0 00.06-.24c-.46-.73-.68-1.69-1.15-2.38a.18.18 0 00-.24-.05A.17.17 0 0086.89 208zm1.24.55l.36.53a.17.17 0 00.24 0 .17.17 0 000-.24c-.05-.06-.25-.38-.35-.51a.35.35 0 00-.1-.09l-.08 0a.18.18 0 00-.19.16A.18.18 0 0088.13 208.51zm29.14-11.57l.26.1a4.81 4.81 0 011.19.62c1.37.9 2.68 2.31 2.37 4.06a6 6 0 01-2.59 3.72 22.54 22.54 0 01-4.23 2.25.17.17 0 00-.09.23.17.17 0 00.22.09 22.19 22.19 0 004.3-2.3 6.31 6.31 0 002.73-3.93c.33-1.89-1.05-3.44-2.52-4.41a5.89 5.89 0 00-1.27-.66 1.9 1.9 0 00-.29-.1.31.31 0 00-.22 0 .18.18 0 00-.07.23A.17.17 0 00117.27 196.94zM58.33 207a.16.16 0 00.2-.1.16.16 0 00-.1-.22 1.24 1.24 0 00-.43 0c-.69.11-2.14.49-2.37.54a.18.18 0 00-.13.21.19.19 0 00.21.13c.19-.05 1.32-.34 2.06-.49C58 207 58.31 207 58.33 207zm-1.6-1.16h-.08c-.13 0-.3 0-.39 0l-1.29.13c-1.17.13-2.33.28-3.5.42a.18.18 0 00-.15.19.18.18 0 00.19.15c1.17-.14 2.33-.29 3.5-.42l1.28-.13h.43l.18 0A.19.19 0 0057 206a.2.2 0 00-.13-.21A.2.2 0 0056.73 205.79zm62.9-.65a1 1 0 01-.26.38c-.2.22-.44.43-.59.59a.17.17 0 000 .25.17.17 0 00.24 0c.15-.17.39-.38.59-.6a1.57 1.57 0 00.33-.49.17.17 0 00-.09-.22A.18.18 0 00119.63 205.14zm-3.26.54a.18.18 0 00.16-.13.2.2 0 000-.16.22.22 0 00-.15-.08l-.1 0-.14.09-.39.15c-.42.14-.83.26-1.24.41a.16.16 0 00-.1.22.17.17 0 00.22.1c.4-.15.82-.27 1.23-.41l.41-.15zm134.18-.09a30.6 30.6 0 01-4.49.18.19.19 0 00-.18.17.18.18 0 00.17.17 30.07 30.07 0 004.55-.18.19.19 0 00.15-.2A.17.17 0 00250.55 205.59zM63.27 203.78c-1.3.26-3.68.17-5.12.3-3.62.31-7.2.72-10.78 1.12a.17.17 0 00-.15.19.18.18 0 00.2.15c3.57-.4 7.14-.81 10.76-1.12 1.45-.12 3.84 0 5.15-.31a.17.17 0 10-.06-.33zm52.93 1.7zm0 0zm143-3.37h.23c.31 0 .72.14.78.15a6.65 6.65 0 012.81 1 1.34 1.34 0 01.39.43.27.27 0 010 .17.35.35 0 01-.14.16 5.37 5.37 0 01-2.12.62 32.46 32.46 0 01-3.51.06c-4 0-8-.23-12-.26a.19.19 0 00-.18.18.18.18 0 00.17.17c4 0 8 .25 12 .25a30.76 30.76 0 003.55-.06 5.65 5.65 0 002.25-.67.6.6 0 00.3-.36.52.52 0 00-.05-.4 1.56 1.56 0 00-.49-.56 7.06 7.06 0 00-3-1.08 8 8 0 00-1-.17.37.37 0 00-.18 0 .21.21 0 00-.11.12.18.18 0 00.12.21A.14.14 0 00259.15 202.1zm-53.71-4.25a2.14 2.14 0 01-.72.16c-.57 0-1.23 0-1.56 0a53.14 53.14 0 00-6.56.25.17.17 0 00-.14.2.16.16 0 00.19.14 50.54 50.54 0 016.51-.24c.34 0 1 0 1.59 0a1.78 1.78 0 001-.31.28.28 0 00.08-.15.4.4 0 000-.15 1.5 1.5 0 00-.51-.39c-.37-.2-.92-.43-1.35-.65a5.22 5.22 0 01-.5-.27l-.08-.06s.06 0 .1-.06a1.06 1.06 0 01.34-.08 7.57 7.57 0 011.16 0q2.73 0 5.46.09c2.8.13 5.59.31 8.38.59 1 .1 2 .23 3 .35.29 0 .59.08.89.14.11 0 .35.11.41.12a.18.18 0 00.2-.12.16.16 0 00-.07-.2.15.15 0 00-.11 0 2.26 2.26 0 00-.37-.11c-.3-.06-.61-.1-.91-.14-1-.12-2-.25-3-.35-2.79-.28-5.59-.46-8.39-.59-1.83-.09-3.65-.12-5.48-.1a8.17 8.17 0 00-1.43 0 .76.76 0 00-.52.35.27.27 0 00.1.34 11.07 11.07 0 001.67.87 5.29 5.29 0 01.61.33zm-8.22-.87a9.89 9.89 0 00-2.49.75.17.17 0 00-.1.22.17.17 0 00.22.1 10.12 10.12 0 012.41-.73.17.17 0 100-.34zm-4.43-1.87a3.37 3.37 0 00-1.06.69c-.49.45-.95 1-1.3 1.4a.18.18 0 000 .25.17.17 0 00.24 0c.34-.38.79-.93 1.27-1.37a3 3 0 01.95-.63.17.17 0 00.1-.21A.18.18 0 00192.79 195.11zm-67.67-.1c-.36.45-.84.82-1.2 1.29a.17.17 0 00.27.21c.36-.48.84-.84 1.2-1.28a.16.16 0 000-.24A.17.17 0 00125.12 195zm4-.18a2.09 2.09 0 00-1.09.23c-.7.29-1.37.66-2 1a.19.19 0 00-.07.24.16.16 0 00.23.06 22 22 0 012-1 1.65 1.65 0 01.89-.21.18.18 0 00.21-.14A.17.17 0 00129.17 194.83zm94-5.47a8.07 8.07 0 011.37.34.17.17 0 00.21-.13.18.18 0 00-.13-.21 8.75 8.75 0 00-1.43-.34.17.17 0 00-.18.16A.18.18 0 00223.18 189.36zm4.48-5.17a3.9 3.9 0 01-1.34.66 25.46 25.46 0 00-2.83 1.23 3.2 3.2 0 00-.53.34.93.93 0 00-.46.81 1.08 1.08 0 00.37.71 3.65 3.65 0 00.95.63c.43.2.87.38 1.31.54a.17.17 0 00.22-.1.18.18 0 00-.11-.22c-.43-.16-.86-.33-1.27-.53a3.44 3.44 0 01-.86-.56.78.78 0 01-.27-.49c0-.17.09-.34.33-.52a3 3 0 01.48-.31 25.69 25.69 0 012.8-1.21 4.65 4.65 0 001.46-.73.18.18 0 000-.24A.18.18 0 00227.66 184.19zm-8.45-.26a.21.21 0 00-.17 0 .21.21 0 00-.07.16.22.22 0 00.05.11.23.23 0 00.11 0h.11a3.4 3.4 0 00.34-.12q.38-.12.75-.27a.17.17 0 00.1-.22.18.18 0 00-.23-.09l-.73.26A1.61 1.61 0 00219.21 183.93zm.08.28zm-2.53-2.34a2 2 0 00.88.75 5.93 5.93 0 001.65.54.16.16 0 00.2-.14.18.18 0 00-.14-.2 5.36 5.36 0 01-1.55-.51 1.63 1.63 0 01-.74-.6.18.18 0 00-.23-.07A.18.18 0 00216.76 181.87zm.71-5.21a1.52 1.52 0 00-.16.75 7.55 7.55 0 00.13 1.11c.26 1.74.87 3.2 2.62 3.8a.18.18 0 00.22-.11.16.16 0 00-.1-.21c-1.63-.56-2.16-1.92-2.4-3.53a7.09 7.09 0 01-.12-1.06 1 1 0 01.1-.57.16.16 0 000-.23A.18.18 0 00217.47 176.66zM90.36 124.3a.18.18 0 00-.13-.14.17.17 0 00-.21.12.21.21 0 000 .15.86.86 0 00.14.2l.43.66c.59.87 1.19 1.73 1.82 2.57a.16.16 0 00.24 0 .17.17 0 000-.24c-.63-.83-1.22-1.69-1.8-2.55l-.43-.65zm-2.17-1.41a.71.71 0 01.21.24c.13.18.24.39.34.51l1.43 1.89a.17.17 0 00.27-.21c-.48-.62-1-1.25-1.43-1.88-.09-.13-.2-.34-.33-.51a1.1 1.1 0 00-.31-.33.17.17 0 00-.18.29zm17.09-17c-.25.27-.5.54-.74.84a9.2 9.2 0 00-1.57 2.65 2.32 2.32 0 00-.07 1.6.17.17 0 00.31-.13 2.05 2.05 0 01.08-1.36 9 9 0 011.52-2.55c.23-.29.48-.56.73-.83l.4-.38a.19.19 0 000-.22.21.21 0 00-.18-.09 1.92 1.92 0 00-.24 0c-.27.06-.53.13-.81.17a4 4 0 01-2.36-.11c-.08 0-.26-.11-.41-.19l-.11-.08 0 0a.17.17 0 00-.22-.1.17.17 0 00-.09.23.57.57 0 00.2.22 2.49 2.49 0 00.52.26 4.38 4.38 0 002.56.14zm-1.17 3.55a.17.17 0 000-.22.18.18 0 00-.23-.07.38.38 0 00-.16.42 3.11 3.11 0 00.27.82.17.17 0 00.23.09.18.18 0 00.08-.23 3.67 3.67 0 01-.22-.62A.72.72 0 01104.11 109.44zm.44-.94l.06.15 0 .1a2.61 2.61 0 00.59.51.17.17 0 10.18-.29 2 2 0 01-.49-.43 1.38 1.38 0 01-.06-.16.24.24 0 00-.06-.1.18.18 0 00-.25 0A.2.2 0 00104.55 108.5zm-1.3-1.46a.83.83 0 01-.13.16 2.07 2.07 0 00-.21.21 12.67 12.67 0 00-.74 1.16.18.18 0 00.07.23.17.17 0 00.24-.07 8.8 8.8 0 01.71-1.12c0-.06.14-.14.21-.21a1.27 1.27 0 00.16-.2.18.18 0 00-.08-.23A.16.16 0 00103.25 107zM219 103.63a2 2 0 011.14-.47 3.84 3.84 0 012 .31c.27.13.52.31.78.46a2.17 2.17 0 00.92.33 6.91 6.91 0 001.76-.16 4.16 4.16 0 011.65 0 1.86 1.86 0 011.31 1.16.18.18 0 00.23.08.17.17 0 00.09-.22 2.25 2.25 0 00-1.55-1.36 4.68 4.68 0 00-1.79.05 6.63 6.63 0 01-1.66.16 1.8 1.8 0 01-.79-.29 8 8 0 00-.8-.47 4.25 4.25 0 00-2.15-.34 2.29 2.29 0 00-1.33.56.16.16 0 000 .24A.17.17 0 00219 103.63zm-1.27-.1a1.35 1.35 0 01.27-.48 12.69 12.69 0 011.07-1.24.17.17 0 10-.25-.23 11.24 11.24 0 00-1.1 1.28 1.7 1.7 0 00-.33.64.17.17 0 00.15.18A.16.16 0 00217.74 103.53zm-.48-1.94a.15.15 0 00-.07.14.17.17 0 00.06.14.16.16 0 00.2 0s0 0 .05 0l0 0 .11-.08.43-.27a.16.16 0 000-.23.17.17 0 00-.23-.06l-.44.27-.15.11A.21.21 0 00217.26 101.59zm.27.11v0zm0 0h0zM101.08 84.53a1.1 1.1 0 01.18.28.79.79 0 00.39.34c1.06.49 2 0 3-.52s1.78-1 2.74-.54a.19.19 0 00.23-.1.18.18 0 00-.09-.22c-1.07-.46-2.06 0-3 .56s-1.78 1-2.73.51a.58.58 0 01-.27-.27 1.26 1.26 0 00-.2-.29.17.17 0 00-.24 0A.16.16 0 00101.08 84.53zm6.9-1.37l.23.72a.17.17 0 10.32-.11c0-.07-.2-.69-.26-.8a.18.18 0 00-.23-.08.16.16 0 00-.09.22A.05.05 0 00108 83.16zm1-.42v.11c0 .1 0 .2 0 .31a.17.17 0 00.19.15.18.18 0 00.16-.18 2.62 2.62 0 010-.28c0-.06 0-.19 0-.22a.16.16 0 00-.15-.12.17.17 0 00-.19.15S109 82.71 109 82.74zm-.79.47h0zm1.12-.46h0s0 0 0 0zm0 0h0z"/><path fill-rule="evenodd" d="M64.88,116.73l0,.07a.8.8,0,0,0,0,.82l6.86,10.69a1.27,1.27,0,0,0-.36.12,4.92,4.92,0,0,0-.72.42,3,3,0,0,0-1.46,2.48,7,7,0,0,0,1,2.5,50.14,50.14,0,0,0,4.57,6.79c-1.42,3.19-2.81,6.52-2.79,9.88,0,4.55,3.06,8.74,5.21,12.53A54,54,0,0,1,82,174.79c.18.61.34,1.22.5,1.84a52.57,52.57,0,0,0-7.77-11.55c-5.68-6.37-13.2-11.11-18-18.23-1.16-1.73-2.05-3.83-3.61-5.27a5.64,5.64,0,0,0-1.07-.81,1.47,1.47,0,0,0-.92-.17,2.16,2.16,0,0,0-1.31,1.27,12.91,12.91,0,0,0-.87,2.68,14.74,14.74,0,0,0,.41,7.12c.62,2.41,1.55,4.78,2.22,6.84a54.54,54.54,0,0,1,2.9,12.84c.23,3.21-.08,6.48.12,9.7a38.63,38.63,0,0,0-6.33-5.49C43,172,36.72,169.84,32,165.53a20.73,20.73,0,0,0-3.56-3.19,4.26,4.26,0,0,0-.93-.4,1.13,1.13,0,0,0-.73,0,1.7,1.7,0,0,0-.74,1.18,10.2,10.2,0,0,0-.16,2.11A9.88,9.88,0,0,0,27,169.39,56.72,56.72,0,0,0,30.27,175a40.16,40.16,0,0,1,4.36,8.78c1,3.06,1.29,6.37,2.69,9.28a22.49,22.49,0,0,0,11.15,10.17A36.07,36.07,0,0,0,40.83,205a3.48,3.48,0,0,0-1.23.79.9.9,0,0,0-.29.66,1.08,1.08,0,0,0,.39.76c.95.91,3,1.65,5.54,2.27,5.85,1.41,14.37,2.19,18.1,3.19a28.75,28.75,0,0,1,6.1,2c.69.4,1.18.84,1.22,1.38,0,.16-.1.32-.3.49a6.83,6.83,0,0,1-1.89.94c-5.86,2.14-21.08,4.18-23.9,4.9-1.35.34-4.46,1.11-5.89,2.26a1.57,1.57,0,0,0-.7,1.88,2.64,2.64,0,0,0,.88,1.06,8,8,0,0,0,2.31,1.12,44,44,0,0,0,6.73,1.36c10.25,1.64,20.8,1.65,31.26,2.18,51.69,2.6,114.12-1.85,126.46-6.3a6.31,6.31,0,0,0,2.34-1.29,1.49,1.49,0,0,0,.48-1,2.15,2.15,0,0,0-.87-1.61c-1.36-1.26-4.18-2.57-6.95-3.88a31,31,0,0,1-5.8-3.25,3.58,3.58,0,0,1-.9-1,1.09,1.09,0,0,1-.08-.91,1.84,1.84,0,0,1,.69-.8,9.53,9.53,0,0,1,2.78-1.26c17.34-5.45,39.59-2.19,57.83-2,1.82,0,12.68.1,17-1.12a4.43,4.43,0,0,0,1.53-.66.91.91,0,0,0,.4-.66,1.15,1.15,0,0,0-.38-.88,6,6,0,0,0-1.81-1.2c-5.36-2.6-19.31-5.15-21.77-5.61-21.59-4-43.86-5.58-66.14-6.16.37-3.43-1.9-5.13-4.33-6.89a20.3,20.3,0,0,1-1.64-1.22,2.61,2.61,0,0,1-.79-3.42c.25-.61.61-1.19.88-1.7A18.79,18.79,0,0,0,180,175a4.45,4.45,0,0,0-1.13-4.47,4.34,4.34,0,0,0-1.71-1,9.09,9.09,0,0,0-5.7.29c-1.87.59-3.71,1.49-5.38,2.11a17.2,17.2,0,0,1-3.27,1.05,3.16,3.16,0,0,1-2.07-.27,2.71,2.71,0,0,1-1.18-1.76,8,8,0,0,1-.19-2.32c.08-2.21.85-6,.25-8.72a4.31,4.31,0,0,0-1.6-2.69,4.1,4.1,0,0,0-2.24-.69,6.82,6.82,0,0,0-1.91.2c-4.73,1.19-7.28,5.29-9.59,9.73s-4.31,9-8.07,11.43a7.81,7.81,0,0,1-7,.83c-2.26-.65-4.51-1.76-7.13-1.91a8.66,8.66,0,0,0-5.41,1.76,25.07,25.07,0,0,0-6,6.64,21.45,21.45,0,0,0-1,2c-.62-.83-1.25-1.67-1.88-2.49-1.09-1.44-2.24-2.82-3.26-4.31-.09-.12-.53-.6-.78-.95a2.41,2.41,0,0,1-.13-.23s0,0,0,0a12.94,12.94,0,0,0,1.28-5.39,16.28,16.28,0,0,0-.12-2l13.39-.06a.82.82,0,0,0,.71-.42.8.8,0,0,0,.09-.43c.18-.47.91-2.38,1-2.57a.88.88,0,0,0,0-.86l-5.29-8.25a15.8,15.8,0,0,0,1.84-2.35c1-1.65,1.29-3.17.47-4.3a4.09,4.09,0,0,0-3.71-1.71,6.74,6.74,0,0,0-1.11.14l.08,0a4.82,4.82,0,0,0,.93-8.27c-1.41-1.1-3.54-1.5-6.17-.34l.27-.26a3.66,3.66,0,0,0,.91-4.14,4.35,4.35,0,0,0-4.24-2.32,11.55,11.55,0,0,0-3.79.94L85.48,113.71a.85.85,0,0,0-.72-.39l-18,.07a.87.87,0,0,0-.74.45C65.91,114,65.16,116,64.88,116.73ZM87.48,199c-13,.63-23.3,2.46-36.24,4.17-1,.13-7.38.92-10.27,2.21a3.47,3.47,0,0,0-1.09.67.68.68,0,0,0-.23.47.78.78,0,0,0,.28.51c.93.89,2.92,1.59,5.39,2.18,5.85,1.42,14.38,2.2,18.11,3.2a28.42,28.42,0,0,1,6.18,2c.8.47,1.34,1,1.4,1.65a.94.94,0,0,1-.44.78,6.75,6.75,0,0,1-2,1C62.72,220,47.48,222,44.66,222.74a22.67,22.67,0,0,0-5.09,1.75,3.53,3.53,0,0,0-1.14.92,1,1,0,0,0-.14,1,2.39,2.39,0,0,0,.78.92,7.71,7.71,0,0,0,2.21,1.07A43.1,43.1,0,0,0,48,229.75c10.25,1.64,20.78,1.65,31.22,2.18,51.64,2.6,114-1.84,126.34-6.28a7,7,0,0,0,2-1,1.38,1.38,0,0,0,.6-.94,1.88,1.88,0,0,0-.76-1.35c-1.34-1.24-4.14-2.53-6.86-3.83a30.71,30.71,0,0,1-5.88-3.29c-.93-.78-1.37-1.56-1.08-2.31a2.27,2.27,0,0,1,.8-1,10.18,10.18,0,0,1,2.89-1.31c17.37-5.46,39.65-2.2,57.93-2.06,1.59,0,10.06.08,15.06-.71a10.62,10.62,0,0,0,2.95-.79,1.43,1.43,0,0,0,.47-.32.48.48,0,0,0,.15-.3.72.72,0,0,0-.15-.46,2.33,2.33,0,0,0-.55-.53,14.39,14.39,0,0,0-3.65-1.72c-6.28-2.22-17.18-4.22-19.33-4.62-26.56-4.95-54.14-6.17-81.5-6.41-10.79-.09-21.62.05-32.4.46-2.73.1-12.06,1.31-17.87,2a8.78,8.78,0,0,1,2.74,1.9,6,6,0,0,1,.69.73h0a10.08,10.08,0,0,1,3.58,4.16c2.66,5.76-.82,15.44-15.89,17.94-13.14,2.18-20.89-3.57-23.55-9.13a8.17,8.17,0,0,1-.63-6.49,2.7,2.7,0,0,1-.31-2.07A3.31,3.31,0,0,1,87.89,200C87.75,199.68,87.61,199.32,87.48,199Zm34.84-.33c.07.13.14.25.2.38,1.32,2.7.39,5-1.51,6.73a18.19,18.19,0,0,1-7.15,3.68,37.29,37.29,0,0,1-22.73-1.24c-2-.78-4.25-1.76-5.52-3.38l-.11-.16a8,8,0,0,0,.71,6c2.61,5.46,10.25,11.08,23.19,8.93,14.73-2.45,18.23-11.82,15.62-17.46A9.72,9.72,0,0,0,122.32,198.63Zm-39-50.53a.08.08,0,0,1,0-.07c.63-4.24,1.87-8.54,2.62-12.29a21.61,21.61,0,0,0,.56-6.58,3.47,3.47,0,0,0-2.11-3,2.64,2.64,0,0,0-2.46.65,10.31,10.31,0,0,0-2.59,3.46c-1.05,2.08-1.78,4.46-2.51,6.33-.51,1.31-1.13,2.65-1.74,4a.19.19,0,0,1-.06.17l0,0c-1.41,3.14-2.77,6.42-2.76,9.73,0,4.49,3,8.61,5.17,12.36a54.27,54.27,0,0,1,4.84,11.84c2.6,9,2.69,18.45,6.7,27a.17.17,0,0,1-.08.23.17.17,0,0,1-.22-.09c-.23-.48-.45-1-.65-1.46a3,3,0,0,0-2.73,1.94,2.54,2.54,0,0,0,.58,2.29c1.24,1.57,3.45,2.52,5.37,3.27a37,37,0,0,0,22.52,1.23,17.9,17.9,0,0,0,7-3.6c1.79-1.67,2.69-3.79,1.44-6.33a6.13,6.13,0,0,0-1.38-1.84,8,8,0,0,0-6-2.47,47.85,47.85,0,0,1,2.65,5.13.17.17,0,1,1-.31.14c-2.42-5.52-6-10.43-9.68-15.2-1.09-1.43-2.25-2.83-3.27-4.31-.09-.13-.53-.6-.78-1l0-.06a13.6,13.6,0,0,1-4.47,5,.17.17,0,1,1-.19-.29,13,13,0,0,0,5.78-10.5,18.92,18.92,0,0,0-.54-4.37c-.76,1.34-1.35,2.65-1.84,3.68a.17.17,0,0,1-.31-.14c1.22-2.58,3-6.79,6.6-9.11a33.49,33.49,0,0,0,5.82-4.72.13.13,0,0,1,.07-.09h0a16.28,16.28,0,0,0,1.84-2.34c.93-1.51,1.23-2.89.48-3.91a3.78,3.78,0,0,0-3.41-1.58,11.49,11.49,0,0,0-3.11.73h0c-4.18,2-6.29,3.56-10.83,7.56A17.85,17.85,0,0,0,94,168.64a.17.17,0,0,1-.21.13.17.17,0,0,1-.13-.2,18.3,18.3,0,0,1,5.45-9.3c5.29-4.66,7.29-6,13-8.59,4-1.81,3.16-7.25-.55-8.43-1.54-.49-3.55-.24-5.9,1.25-1.37,1-2.89,1.88-4.27,2.74a54.34,54.34,0,0,0-9.19,7.17c-2,2-3.94,4.32-4.5,7.21a.17.17,0,0,1-.2.14.16.16,0,0,1-.13-.2c.57-3,2.5-5.34,4.59-7.4a54.61,54.61,0,0,1,9.25-7.21c1.23-.78,2.58-1.54,3.83-2.42a.2.2,0,0,1,.06-.07l.38-.25a14.21,14.21,0,0,0,1.56-1.33,3.35,3.35,0,0,0,.84-3.76A4,4,0,0,0,104,136a11.8,11.8,0,0,0-3.79,1h0c-.72.28-1.49.62-2.29,1,0,0,0,0,0,0l-.08,0a54.25,54.25,0,0,0-5.36,3c-4.58,2.89-8.93,6.55-10.17,9.65a.17.17,0,0,1-.22.1.19.19,0,0,1-.1-.23A9.9,9.9,0,0,1,83.35,148.1ZM54.62,181.6a38.26,38.26,0,0,0-6.56-5.75c-5.26-3.63-11.56-5.75-16.29-10.07a19.88,19.88,0,0,0-3.48-3.13,3,3,0,0,0-.85-.37.71.71,0,0,0-.5,0,1.35,1.35,0,0,0-.56,1,10,10,0,0,0-.15,2,10.76,10.76,0,0,0,1.52,4.95c.88,1.63,2,3.18,2.81,4.55a40.38,40.38,0,0,1,4.4,8.85c1,3,1.28,6.34,2.67,9.24a22.09,22.09,0,0,0,11.51,10.22l2.06-.29c5.2-.69,10-1.4,14.7-2-5.25-4-9.59-10.35-10.89-16.47A22.19,22.19,0,0,1,54.62,181.6Zm28.19-3.48s0,0,0-.06a52.66,52.66,0,0,0-8.33-12.75c-5.69-6.38-13.22-11.14-18-18.27-1.15-1.71-2-3.79-3.56-5.2a4.85,4.85,0,0,0-1-.76,1.12,1.12,0,0,0-.7-.15c-.44.09-.78.55-1.06,1.1a12.43,12.43,0,0,0-.85,2.6,14.46,14.46,0,0,0,.41,7c.62,2.4,1.54,4.76,2.21,6.82a54.15,54.15,0,0,1,2.92,12.91c.24,3.36-.11,6.78.15,10.13l0,0a.17.17,0,0,1,0,.24h0a20.87,20.87,0,0,0,.36,2.48c1.31,6.15,5.73,12.53,11,16.47,6.8-.92,13.45-1.69,21-2.06C85,192,84.38,185,82.81,178.12Zm-26.1,21.81c0-.1-.1-.28-.13-.35-.13-.28-.25-.58-.39-.86a14.61,14.61,0,0,0-1.49-2.53,20.22,20.22,0,0,0-6.47-5.39,14.56,14.56,0,0,1-5.62-6.05c-1.31-2.64-2-5.71-4-8a20.82,20.82,0,0,0-4.82-3.58,9.41,9.41,0,0,1-4-4.18.17.17,0,1,0-.31.14,9.76,9.76,0,0,0,4.14,4.33A20.24,20.24,0,0,1,38.41,177c2,2.24,2.59,5.29,3.89,7.9a15,15,0,0,0,5.75,6.2,19.94,19.94,0,0,1,6.38,5.29,14.93,14.93,0,0,1,1.45,2.47l.39.86c0,.09.1.3.14.4a1.15,1.15,0,0,0,.07.11.18.18,0,0,0,.16,0s.14,0,.15-.19A.18.18,0,0,0,56.71,199.93Zm-5.21-.79h-.09a.17.17,0,0,0-.13.2.13.13,0,0,0,.08.11l.09,0,1.43.21a.17.17,0,0,0,.2-.13.18.18,0,0,0-.13-.21l-1.44-.2Zm.11.11h0Zm0-.06,0,.06ZM77.88,199c-.08-.42-.14-.84-.22-1.25A20.53,20.53,0,0,0,76.52,194c-1.49-3.67-3.92-6.28-6.71-9a19.74,19.74,0,0,1-5.41-9.71c-.87-3.84-.74-8.05-2.59-11.62-1.29-2.48-3.31-4.27-5.15-6.18s-3.41-3.86-3.91-6.75a.17.17,0,0,0-.2-.14.17.17,0,0,0-.14.2c.51,3,2.16,5,4,6.93s3.82,3.65,5.09,6.1c1.84,3.54,1.71,7.72,2.57,11.54a20,20,0,0,0,5.5,9.87c2.76,2.74,5.16,5.31,6.64,8.94a20.78,20.78,0,0,1,1.11,3.68c.08.42.15.84.23,1.25a.16.16,0,0,0,.2.14A.17.17,0,0,0,77.88,199Zm-6.44-2.15a.16.16,0,0,0-.09,0,.18.18,0,0,0-.18.17.21.21,0,0,0,0,.13l.1.06c.28.12,1.67.66,1.79.72a.17.17,0,1,0,.15-.31c-.12-.06-1.52-.61-1.8-.73Zm-21.38.4a1.16,1.16,0,0,0,.46,0,5.5,5.5,0,0,1,.62-.1,7,7,0,0,1,2.14.27.17.17,0,0,0,.11-.33,7.43,7.43,0,0,0-2.25-.28,5.76,5.76,0,0,0-.67.1.83.83,0,0,1-.3,0,.16.16,0,0,0-.22.1A.18.18,0,0,0,50.06,197.23ZM56,191.82a7.16,7.16,0,0,0,.29,4,.19.19,0,0,0,.23.1.17.17,0,0,0,.1-.22,6.67,6.67,0,0,1-.29-3.8.17.17,0,0,0-.12-.22A.18.18,0,0,0,56,191.82ZM37,182.5a.25.25,0,0,0,0,.07.36.36,0,0,0,0,.14c0,.22.08.44.12.66.13.58.31,1.16.48,1.74a15.6,15.6,0,0,0,3.85,6.71,7.82,7.82,0,0,0,4.2,2.24c1.32.21,2.66-.11,4,.05a5.84,5.84,0,0,1,3.22,1.78.17.17,0,0,0,.24-.25,6.21,6.21,0,0,0-3.41-1.87c-1.32-.16-2.66.16-4-.05a7.45,7.45,0,0,1-4-2.15A15.15,15.15,0,0,1,37.9,185c-.17-.56-.34-1.13-.47-1.71,0-.2-.09-.4-.12-.61a.14.14,0,0,0,0-.07.44.44,0,0,0,0-.14.25.25,0,0,0,0-.16.41.41,0,0,0-.11-.07.18.18,0,0,0-.21.13A.13.13,0,0,0,37,182.5Zm33.22,11.28a1.38,1.38,0,0,0,.57.14c.31,0,.67,0,.86.07a9.28,9.28,0,0,1,2.71,1,.18.18,0,0,0,.24-.06.18.18,0,0,0-.06-.24,10,10,0,0,0-2.82-1.08c-.19,0-.57,0-.9-.07a1.2,1.2,0,0,1-.42-.09.19.19,0,0,0-.24,0A.18.18,0,0,0,70.23,193.78Zm113.44-1.14c.36-3.31-1.86-4.93-4.19-6.61a14.76,14.76,0,0,1-2-1.55,3.13,3.13,0,0,1-.86-1.5,3.51,3.51,0,0,1,.3-2c.26-.62.62-1.22.9-1.74a17.31,17.31,0,0,0,1.87-4.32,4,4,0,0,0-2.6-5.09,8.86,8.86,0,0,0-5.49.29c-1.87.6-3.7,1.5-5.37,2.11a17.23,17.23,0,0,1-3.34,1.07,3.48,3.48,0,0,1-2.29-.31,2.81,2.81,0,0,1-1.19-1.5,7.62,7.62,0,0,1-.36-2.89c.09-2.19.86-5.94.26-8.64a3.91,3.91,0,0,0-1.46-2.48,3.67,3.67,0,0,0-2.05-.63A6.55,6.55,0,0,0,154,157c-4.63,1.17-7.1,5.21-9.36,9.55s-4.39,9.13-8.2,11.57a8.12,8.12,0,0,1-7.26.86c-2.23-.64-4.46-1.74-7-1.89a8.26,8.26,0,0,0-5.19,1.71,24.7,24.7,0,0,0-5.93,6.54,23.43,23.43,0,0,0-1.07,2.12s0,0,0,0c1.68,2.26,3.3,4.57,4.75,7a11.16,11.16,0,0,1,2.91.41h0c5.74-.66,15.74-2,18.59-2.06,10.78-.41,21.62-.55,32.41-.46Q176.12,192.45,183.67,192.64ZM53.82,191a1.05,1.05,0,0,0,.08.42c.07.2.17.41.2.54a10.17,10.17,0,0,0,.93,2.63.15.15,0,0,0,.23.05.16.16,0,0,0,.06-.23,9.83,9.83,0,0,1-.89-2.54c0-.13-.14-.36-.21-.57a.78.78,0,0,1-.06-.26.18.18,0,0,0-.15-.2A.17.17,0,0,0,53.82,191Zm-8-5.43a4.29,4.29,0,0,0,1,1.55,19.17,19.17,0,0,0,4,3.21,9.49,9.49,0,0,1,2.94,3.78.16.16,0,0,0,.23.07.18.18,0,0,0,.08-.23,9.86,9.86,0,0,0-3-3.9,18.56,18.56,0,0,1-4-3.15,3.76,3.76,0,0,1-.94-1.4.18.18,0,0,0-.2-.14A.18.18,0,0,0,45.8,185.52Zm33.9,3.19a9.38,9.38,0,0,0-.88,5.29.18.18,0,0,0,.19.15.19.19,0,0,0,.15-.2,9,9,0,0,1,.84-5.07.17.17,0,1,0-.3-.17Zm38.39-6.47a1,1,0,0,1,.24.34c.15.27.28.59.38.76.49.83,1,1.63,1.54,2.43a57.23,57.23,0,0,0,5.86,7.58.17.17,0,0,0,.24,0,.16.16,0,0,0,0-.24,58.29,58.29,0,0,1-5.82-7.54c-.52-.79-1-1.59-1.53-2.42-.09-.16-.22-.48-.36-.74a1.41,1.41,0,0,0-.36-.46.19.19,0,0,0-.24,0A.18.18,0,0,0,118.09,182.24ZM57.94,170.51a.41.41,0,0,1,0,.09.67.67,0,0,0-.07.18,8.64,8.64,0,0,0,0,.88c0,.8,0,1.61.07,2.41A20.72,20.72,0,0,0,60.72,184a10.34,10.34,0,0,0,4.72,4.22c1.65.7,3.51.71,5.17,1.35a7.83,7.83,0,0,1,3.66,3.35.17.17,0,1,0,.29-.18,8.14,8.14,0,0,0-3.82-3.49c-1.67-.64-3.52-.64-5.17-1.34A10.06,10.06,0,0,1,61,183.83a20.45,20.45,0,0,1-2.82-9.78c0-.79-.09-1.59-.07-2.38,0-.29,0-.57,0-.85a.53.53,0,0,1,.06-.1.71.71,0,0,0,.07-.16.27.27,0,0,0,0-.18.24.24,0,0,0-.1-.1.19.19,0,0,0-.24.07A.22.22,0,0,0,57.94,170.51Zm61.9,21.55a.19.19,0,0,0-.2-.07.18.18,0,0,0-.11.22.34.34,0,0,0,.14.16c.08,0,.21.07.26.09.3.11.6.2.9.29a.19.19,0,0,0,.22-.12.17.17,0,0,0-.12-.21c-.3-.09-.59-.17-.88-.28Zm-1.25-3.83a.16.16,0,0,0-.08-.13.17.17,0,0,0-.23.06.2.2,0,0,0,0,.2,1.89,1.89,0,0,0,.2.27c.22.27.45.53.69.79a8.78,8.78,0,0,0,3.74,2.73.17.17,0,0,0,.21-.12.17.17,0,0,0-.12-.21,8.45,8.45,0,0,1-3.58-2.63c-.23-.25-.46-.51-.67-.77Zm-41.44-1.37a1.19,1.19,0,0,0,0,.55c0,.28.08.6.09.77a13.18,13.18,0,0,0,.36,3.71.17.17,0,0,0,.33-.11,13.15,13.15,0,0,1-.35-3.6c0-.19-.06-.51-.09-.8a.86.86,0,0,1,0-.4.19.19,0,0,0-.1-.22A.18.18,0,0,0,77.15,186.86Zm48.68,2.77a.17.17,0,0,0-.1-.12.14.14,0,0,0-.14,0,.18.18,0,0,0-.1.2s.09.26.1.29.19.31.29.47c.29.41.6.79.92,1.17a.17.17,0,1,0,.26-.22c-.31-.37-.62-.75-.9-1.15a3.07,3.07,0,0,1-.26-.43S125.84,189.66,125.83,189.63Zm57.27-55.28-.7.13c-2.07.43-4.07,1.12-5.09,3.12a8.12,8.12,0,0,0-.53,1.29l-.11,0a2.7,2.7,0,0,0-.49,0,8,8,0,0,0-1.29.25,4.46,4.46,0,0,0-3.22,2.51c-.88,2.49,1.41,4.72,3.68,5a13.89,13.89,0,0,0,0,3.47,3.87,3.87,0,0,0,2.87,3.46,4.2,4.2,0,0,0,.27,2,7.26,7.26,0,0,0,3.12,3.06,5.49,5.49,0,0,0,2.71.92,3.4,3.4,0,0,0,1,1.44,10.12,10.12,0,0,0,5.94,2,11.65,11.65,0,0,0,1.17.07,2.06,2.06,0,0,0,1.17-.38c.95-.72,1.25-2.2,1.41-3.32a0,0,0,0,0,0-.05,10.12,10.12,0,0,0,1.6-.56v0a8.74,8.74,0,0,0,.3.86,13.25,13.25,0,0,0,1.83,3.1c1.26,1.64,2.58,3.28,4.65,4.08a7.76,7.76,0,0,0,2.64.49s0,0,0,0h0l.19.18a4.36,4.36,0,0,0,.37.38c.37.35.8.7,1.24,1.05,1.41,1.11,3.09,2.22,4.77,3.3,1.89,1.22,2.78,1.85,3.45,2.25-2.61,4.11-2,9.08,2,10.61a6,6,0,0,0,1.48.34c.14,2.33,1.71,4,3.86,5a14.09,14.09,0,0,0,10.8.08C242,187,247.73,179.18,250.06,171c1.8-6.38,1.48-14.75-3.57-19.64a10.27,10.27,0,0,0-8.13-2.95,10.59,10.59,0,0,0-1.72.31,2.91,2.91,0,0,0-1.1.55,7.82,7.82,0,0,0-8.59,3c-.84-.49-1.71-1-2.11-1.26a35,35,0,0,1-7.06-6.31c-3.26-3.93-5.59-8.45-9.61-11.73-7.38-6-17.84-6.83-26.81-8.68-3.59-.74-7.34-1.72-11-1.66a10.9,10.9,0,0,0-2.78.32,3.51,3.51,0,0,0-1.62.94,2.22,2.22,0,0,0-.22,2.79,9.25,9.25,0,0,0,3.29,3.08C173.39,132.22,178.22,133.36,183.1,134.35Zm36.79,51.24c.15,2.17,1.63,3.7,3.65,4.62a13.64,13.64,0,0,0,10.51.09c7.72-3.61,13.38-11.31,15.68-19.41,1.77-6.26,1.49-14.49-3.48-19.29a9.89,9.89,0,0,0-7.86-2.86,11,11,0,0,0-1.65.3,2.94,2.94,0,0,0-.82.36,7.13,7.13,0,0,1,1.8,1,10,10,0,0,1,3.62,6.2,21.5,21.5,0,0,1-1.21,10.88c-2.64,7.15-8.82,14.78-16.19,17.34A11,11,0,0,1,219.89,185.59Zm-57.57-8.06a.16.16,0,0,0,.07-.09.17.17,0,0,0,0-.18.18.18,0,0,0-.23,0,4.34,4.34,0,0,0-.44.39,10.22,10.22,0,0,0-.66.92,20.54,20.54,0,0,0-1.57,3.06c-1.3,3-2.61,6.14-2.85,9.41a.17.17,0,0,0,.16.19.18.18,0,0,0,.18-.16c.24-3.24,1.54-6.36,2.82-9.31a22,22,0,0,1,1.55-3c.2-.3.4-.61.63-.89Zm-93.89-.3a5.77,5.77,0,0,0,.82,2.32c1,2.16,2.66,3.64,4.21,5.44a12.68,12.68,0,0,1,2.63,5.87.17.17,0,0,0,.21.13.17.17,0,0,0,.13-.2,13.13,13.13,0,0,0-2.71-6c-1.53-1.77-3.13-3.23-4.16-5.36a5.38,5.38,0,0,1-.79-2.16.17.17,0,0,0-.16-.18A.19.19,0,0,0,68.43,177.23Zm83.15-11.61h0c-.1.21-.67,1.14-.7,1.21a43.67,43.67,0,0,0-1.82,4.32,83.09,83.09,0,0,0-5.13,19.28.18.18,0,0,0,.15.19.17.17,0,0,0,.19-.15,82.77,82.77,0,0,1,5.11-19.2,43.08,43.08,0,0,1,1.81-4.29c0-.06.6-1,.7-1.21a.27.27,0,0,0,0-.19.17.17,0,0,0-.23-.08A.16.16,0,0,0,151.58,165.62Zm-9.08,11.5a.7.7,0,0,0-.25.37,4.85,4.85,0,0,0-.11.55,18.35,18.35,0,0,0-.27,2.23,28.61,28.61,0,0,0,.7,9.93.15.15,0,0,0,.2.11.16.16,0,0,0,.12-.21,28.89,28.89,0,0,1-.69-9.81,20,20,0,0,1,.28-2.18c0-.12,0-.28.07-.43a.58.58,0,0,1,.15-.28.17.17,0,1,0-.2-.28Zm7,9a.17.17,0,0,0,.13-.18.17.17,0,0,0-.18-.16.24.24,0,0,0-.13.05.55.55,0,0,0-.18.19,6,6,0,0,0-.36.73,33.29,33.29,0,0,0-1.33,3.24.17.17,0,0,0,.32.11,32.51,32.51,0,0,1,1.32-3.2c0-.1.16-.39.28-.6S149.48,186.14,149.49,186.12Zm15.37,3a.18.18,0,0,0,.2-.1.17.17,0,0,0-.09-.23.33.33,0,0,0-.24,0,.83.83,0,0,0-.25.19,8.35,8.35,0,0,0-.7,1,.18.18,0,0,0,0,.24.16.16,0,0,0,.24,0,8.56,8.56,0,0,1,.66-.94Zm-36.47-.22a.21.21,0,0,0-.06-.1.18.18,0,0,0-.28,0,.16.16,0,0,0,0,.17,3.1,3.1,0,0,0,.33.41,4.23,4.23,0,0,0,.7.52.17.17,0,0,0,.24-.06.17.17,0,0,0-.06-.23,4.81,4.81,0,0,1-.65-.49A1.79,1.79,0,0,1,128.39,188.88Zm-2.66.94a.15.15,0,0,1-.13,0A.15.15,0,0,0,125.73,189.82Zm0,0Zm13.54-3.46a.18.18,0,0,0,0-.16.18.18,0,0,0-.24,0,.26.26,0,0,0-.09.26,4.4,4.4,0,0,0,.25.7,20.78,20.78,0,0,0,1.16,2.25.17.17,0,0,0,.24.07.16.16,0,0,0,.06-.23A21.13,21.13,0,0,1,139.5,187s-.13-.3-.2-.5Zm15.92,1.45a.17.17,0,0,0,0-.12.17.17,0,0,0-.19-.15.2.2,0,0,0-.14.1.37.37,0,0,0,0,.18,9,9,0,0,0,.14,1,.18.18,0,0,0,.2.14.17.17,0,0,0,.14-.2c0-.06-.09-.45-.12-.74A1.64,1.64,0,0,1,155.19,187.81Zm10.65-3.47a33.75,33.75,0,0,0-3.57,4.09.17.17,0,0,0,0,.24.16.16,0,0,0,.24,0,33.89,33.89,0,0,1,3.54-4,.18.18,0,0,0,0-.25A.18.18,0,0,0,165.84,184.34Zm9.33-12a.57.57,0,0,0-.48,0,4.78,4.78,0,0,0-.88.51,22.16,22.16,0,0,0-3.25,2.28c-4.21,3.45-8.43,7.77-11.08,13.28a.17.17,0,1,0,.31.15c2.62-5.47,6.81-9.74,11-13.17a22.3,22.3,0,0,1,3.21-2.24c.13-.08.43-.3.7-.44a.79.79,0,0,1,.22-.07s.07,0,.09,0a.18.18,0,0,0,.24-.06A.18.18,0,0,0,175.17,172.36Zm76.19,13.83a2.44,2.44,0,0,1-.44.74c-.31.41-.71.82-1,1.11a.17.17,0,0,0,0,.24.16.16,0,0,0,.24,0c.25-.29.65-.7,1-1.12a2.77,2.77,0,0,0,.5-.86.18.18,0,0,0-.12-.21A.17.17,0,0,0,251.36,186.19ZM147.63,183c-.32,1.67-1.1,3.43-1.53,5.1a.19.19,0,0,0,.12.21.17.17,0,0,0,.21-.13c.43-1.67,1.21-3.44,1.53-5.12a.16.16,0,0,0-.13-.19A.17.17,0,0,0,147.63,183Zm102,1.84a12,12,0,0,1-1.95,2.33.17.17,0,0,0,0,.24.18.18,0,0,0,.24,0,13.07,13.07,0,0,0,2-2.41.17.17,0,0,0-.08-.23A.18.18,0,0,0,249.67,184.83Zm3.53-27V158a3.47,3.47,0,0,0,0,.56,15.84,15.84,0,0,1,.21,1.82,33.57,33.57,0,0,1-.87,9c-.69,3.35-2.51,6.42-3.16,9.7a.8.8,0,0,0,.05.5.69.69,0,0,0,.28.28,1.84,1.84,0,0,0,.56.15,3.53,3.53,0,0,1,.61.1c.1,0,.18.06.19.16a4.17,4.17,0,0,1-1.2,2.62,32.41,32.41,0,0,1-3.58,3.46.18.18,0,0,0,0,.24.17.17,0,0,0,.24,0,32.5,32.5,0,0,0,3.61-3.51,4.44,4.44,0,0,0,1.28-2.85.48.48,0,0,0-.31-.43,2.22,2.22,0,0,0-.52-.12,2.8,2.8,0,0,1-.59-.1.48.48,0,0,1-.24-.14.38.38,0,0,1,0-.31c.65-3.28,2.47-6.35,3.16-9.7a34.19,34.19,0,0,0,.87-9.07,16.28,16.28,0,0,0-.21-1.86,2.66,2.66,0,0,1,0-.4,1,1,0,0,0,0-.31.28.28,0,0,0-.16-.2.25.25,0,0,0-.19,0,.18.18,0,0,0-.11.22A.18.18,0,0,0,253.2,157.87ZM139.25,186.4a.05.05,0,0,1,0,0A.05.05,0,0,0,139.25,186.4Zm89.45-32.67a2.22,2.22,0,0,0-.26-.19c-.84-.55-3.09-1.77-3.8-2.27a35.72,35.72,0,0,1-7.13-6.37c-3.24-3.92-5.55-8.42-9.55-11.68-7.34-6-17.75-6.78-26.67-8.61-3.57-.74-7.29-1.71-11-1.66a10.59,10.59,0,0,0-2.69.31,3.21,3.21,0,0,0-1.47.84,1.93,1.93,0,0,0-.17,2.4,8.9,8.9,0,0,0,3.16,2.94c4.52,2.56,9.52,3.67,14.54,4.68l.33.07a54.64,54.64,0,0,1,7.87-.68c1.09,0,2.19,0,3.28,0a5,5,0,0,1,1.63.22.18.18,0,0,1,.08.23.17.17,0,0,1-.22.09,4.3,4.3,0,0,0-1.51-.19c-1.09-.06-2.17-.07-3.25-.05a54.36,54.36,0,0,0-7.85.68h0c-.53.09-1.06.18-1.58.29-2,.4-3.88,1-4.86,2.94a13.71,13.71,0,0,0-1,3.33c-.18.83-.32,1.68-.46,2.53-.1.63-.18,1.26-.26,1.9,0,.34-.1.71-.14,1.09h0a13.45,13.45,0,0,0,0,3.53,3.55,3.55,0,0,0,2.56,3.17c0-.25.05-.5.08-.74.2-1.56.52-3.1.73-4.65a16.43,16.43,0,0,1,1.36-5.62,5.93,5.93,0,0,1,3.6-2.62,20.72,20.72,0,0,1,7.43-.79,40.37,40.37,0,0,1,4.78.52c.2,0,.6,0,.94.11a1.27,1.27,0,0,1,.63.28.16.16,0,0,1,0,.24.16.16,0,0,1-.24,0,.9.9,0,0,0-.44-.17c-.34-.07-.74-.08-.94-.12a41.62,41.62,0,0,0-4.74-.51,20.23,20.23,0,0,0-7.3.78,5.6,5.6,0,0,0-3.41,2.45,16.06,16.06,0,0,0-1.32,5.51c-.21,1.55-.53,3.09-.73,4.65a5.54,5.54,0,0,0,.13,2.86,6.92,6.92,0,0,0,3,2.9,5.25,5.25,0,0,0,2.42.88,10.86,10.86,0,0,1-.32-2.84,18.75,18.75,0,0,1,.24-4.28,5.29,5.29,0,0,1,2.27-3.56,7.51,7.51,0,0,1,2-.84,19.34,19.34,0,0,1,5.68-.36,18.33,18.33,0,0,0,1.94.16.18.18,0,1,1,0,.35,19.12,19.12,0,0,1-2-.17,19.35,19.35,0,0,0-5.58.35,6.68,6.68,0,0,0-1.93.8,5,5,0,0,0-2.13,3.34,18,18,0,0,0-.22,4.2c0,1.53,0,3.28,1.28,4.37a9.69,9.69,0,0,0,5.74,1.93c.38,0,.76.08,1.13.07a1.69,1.69,0,0,0,1-.32,4.51,4.51,0,0,0,1.27-3,8.69,8.69,0,0,1-1.37.18c-.7,0-1.39,0-2.09,0-.23,0-.46,0-.69,0l-.3,0a.17.17,0,0,1-.16-.15.18.18,0,0,1,0-.12.14.14,0,0,1,.11-.06h.36c.22,0,.44,0,.66,0,.69,0,1.37,0,2.06,0a10.81,10.81,0,0,0,5.6-2.2.17.17,0,0,1,.19.29,15.58,15.58,0,0,1-2.12,1.26.2.2,0,0,1,0,.13s0,.11,0,.18c.08.25.22.58.24.63a13.17,13.17,0,0,0,1.78,3,10.94,10.94,0,0,0,4.5,4c2,.77,4.72.71,8.81-1a.16.16,0,0,1,.22.09.17.17,0,0,1-.09.22,17.08,17.08,0,0,1-5.94,1.49l.34.35c.37.34.79.69,1.22,1,1.41,1.1,3.07,2.21,4.74,3.28,3.62,2.33,3.52,2.48,5.33,3.08a.18.18,0,0,1,.1.22.17.17,0,0,1-.21.1,8.32,8.32,0,0,1-1.65-.68c-2.49,3.91-2,8.65,1.82,10.11a5.3,5.3,0,0,0,1.52.33h0a10.45,10.45,0,0,0,4.09-.72c7.28-2.53,13.37-10.07,16-17.13a22.73,22.73,0,0,0,1.42-8.89,10.28,10.28,0,0,0-3.72-7.8,7,7,0,0,0-7.8-.47,7.39,7.39,0,0,0-2.47,2.19c.56.32,1.08.62,1.39.83a1.48,1.48,0,0,1,.36.29.18.18,0,0,1,0,.18.17.17,0,0,1-.22.11C228.75,153.82,228.72,153.77,228.7,153.73ZM210.7,178a.18.18,0,0,0,.07-.21.17.17,0,0,0-.23-.09.36.36,0,0,0-.19.31,3.27,3.27,0,0,0,.06.63,13.28,13.28,0,0,0,.8,2.53.17.17,0,0,0,.32-.12,13.37,13.37,0,0,1-.78-2.47,3.07,3.07,0,0,1-.06-.46C210.69,178.06,210.7,178,210.7,178Zm2.8-1.93-.12.1a1.2,1.2,0,0,0-.16.17,5.85,5.85,0,0,0-.44,1,17.06,17.06,0,0,0-.69,3.09.17.17,0,0,0,.14.2.18.18,0,0,0,.2-.15,15.78,15.78,0,0,1,.67-3,5.53,5.53,0,0,1,.42-.93.27.27,0,0,1,.08-.07l.15-.12a.44.44,0,0,0,.12-.17.2.2,0,0,0,0-.15.23.23,0,0,0-.15-.1.16.16,0,0,0-.2.13S213.5,176,213.5,176.06Zm-51.37,1.46,0,0h.07A.16.16,0,0,1,162.13,177.52Zm0,0Zm0,0a.15.15,0,0,1,0-.17A.14.14,0,0,0,162.11,177.5Zm-49.59-16.22a38,38,0,0,1-3.86,2.89,14.54,14.54,0,0,0-4.41,4.89.11.11,0,0,1,0,.09c.21.86.35,1.64.45,2.34l13.43-.05a.48.48,0,0,0,.41-.25.5.5,0,0,0,0-.13.22.22,0,0,1,0-.14v0a.64.64,0,0,0-.06-.18Zm1.91-1.78c-.5.52-1.06,1-1.65,1.56l6,9.39c.28-.74.8-2.1.88-2.26a.49.49,0,0,0,0-.51Zm62.12-2,.25-.2.54-.59a.16.16,0,0,0,0-.24.17.17,0,0,0-.24,0l-.54.58c-.06.07-.22.17-.28.24a.23.23,0,0,0-.08.11.15.15,0,0,0,0,.18s.07.06.17.06A.17.17,0,0,0,176.55,157.54Zm-2-1.49a.17.17,0,0,0-.18,0,.19.19,0,0,0-.08.15.15.15,0,0,0,.08.16.24.24,0,0,0,.11,0,1.93,1.93,0,0,0,.24,0l.43,0a11.83,11.83,0,0,0,1.47-.22.18.18,0,0,0,.13-.21.17.17,0,0,0-.2-.13,9.73,9.73,0,0,1-1.42.21l-.43,0Zm-37.38-1.22a.17.17,0,0,0-.15.12.17.17,0,0,0,.1.22.26.26,0,0,0,.19,0,2.28,2.28,0,0,0,.3-.23c.32-.25.65-.48,1-.73a.17.17,0,0,0-.21-.27c-.32.25-.66.48-1,.73Zm32.55-12.68a3,3,0,0,0,.37,2.13,11.15,11.15,0,0,0,2.07,2.62,6,6,0,0,0,.6.47,2.13,2.13,0,0,1,.49.45,1.56,1.56,0,0,1,.18.94c0,.61-.17,1.29-.14,1.74a5.15,5.15,0,0,0,3.43,4.54.16.16,0,0,0,.21-.11.15.15,0,0,0-.11-.21,4.82,4.82,0,0,1-3.19-4.24c0-.44.12-1.11.14-1.71a1.81,1.81,0,0,0-.24-1.14,2.45,2.45,0,0,0-.57-.54,5.06,5.06,0,0,1-.57-.44,11.12,11.12,0,0,1-2-2.53,2.7,2.7,0,0,1-.34-1.88.18.18,0,0,0-.12-.21A.17.17,0,0,0,169.71,142.15ZM136,154.06a.17.17,0,0,0-.22.07.16.16,0,0,0,.07.23.52.52,0,0,0,.4,0c.3-.07.71-.25.85-.29a.17.17,0,0,0-.1-.33c-.13,0-.54.22-.83.29A.62.62,0,0,1,136,154.06Zm92.71-.44h0ZM71.68,143l.06,0,.2-.09a5.9,5.9,0,0,1,1-.43l.1,0h0a.64.64,0,0,1-.06.16c-.1.19-.27.4-.34.51a13.19,13.19,0,0,0-1.26,2.59,15.22,15.22,0,0,0-.61,7.8.16.16,0,0,0,.2.14.18.18,0,0,0,.14-.2,14.84,14.84,0,0,1,.59-7.62A13.15,13.15,0,0,1,73,143.23a3.89,3.89,0,0,0,.41-.65.51.51,0,0,0,0-.4.3.3,0,0,0-.34-.15,5.37,5.37,0,0,0-1.26.48l-.26.13a.58.58,0,0,0-.14.12.22.22,0,0,0,0,.23.17.17,0,0,0,.23.09A.17.17,0,0,0,71.68,143Zm63.09,4.79V148c0,.21,0,.42,0,.63,0,.6.08,1.2.18,1.8a3.85,3.85,0,0,0,1.14,2.34,3.3,3.3,0,0,0,2.48.69.17.17,0,0,0,.16-.18.16.16,0,0,0-.18-.16,3,3,0,0,1-2.24-.61,3.58,3.58,0,0,1-1-2.14c-.09-.58-.13-1.17-.17-1.76,0-.2,0-.41,0-.61s0-.29,0-.31a.17.17,0,0,0-.16-.15.18.18,0,0,0-.19.16ZM150,141a2.61,2.61,0,0,0-2.61-2.62h-8.56a2.62,2.62,0,0,0-2.62,2.62v8.56a2.61,2.61,0,0,0,2.62,2.61h8.56a2.61,2.61,0,0,0,2.61-2.61Zm-.34,0v8.56a2.27,2.27,0,0,1-2.27,2.27h-8.56a2.27,2.27,0,0,1-2.27-2.27V141a2.26,2.26,0,0,1,2.27-2.27h8.56A2.27,2.27,0,0,1,149.66,141Zm61.72-8.54a.17.17,0,0,0-.31-.14.25.25,0,0,0,0,.19.32.32,0,0,0,.15.23,1.64,1.64,0,0,0,.43.15,1.65,1.65,0,0,1,.34.12,14.05,14.05,0,0,1,1.31,1,31.22,31.22,0,0,1,3.63,3.55,40.33,40.33,0,0,1,5.2,8.4,15.22,15.22,0,0,0,1.13,2.16,2,2,0,0,0,1.31.94,3.33,3.33,0,0,0,2.15-.84,4.89,4.89,0,0,1,2-1.06.17.17,0,1,0,0-.34,5.14,5.14,0,0,0-2.12,1.12,3,3,0,0,1-1.91.78,1.63,1.63,0,0,1-1.07-.8,14.67,14.67,0,0,1-1.11-2.12,40.65,40.65,0,0,0-5.24-8.46,31.9,31.9,0,0,0-3.67-3.59,12.16,12.16,0,0,0-1.35-1,2.7,2.7,0,0,0-.61-.22Zm-68.84,13L140,148.68a.17.17,0,1,0,.26.21l2.54-3.19,2.44,3.07a.17.17,0,0,0,.27-.21L143,145.43l2.49-3.14a.17.17,0,1,0-.27-.21l-2.44,3.07L140.22,142a.17.17,0,0,0-.26.22ZM117,148.88a.9.9,0,0,0,.49-.11,8.66,8.66,0,0,0,.91-.63.17.17,0,1,0-.19-.29c-.16.11-.46.37-.74.54l-.25.13a.31.31,0,0,1-.16,0,.17.17,0,1,0-.06.34Zm-.93-1.23a.17.17,0,0,0-.09.33.26.26,0,0,0,.21,0,3.56,3.56,0,0,0,.45-.29,13.32,13.32,0,0,0,1.34-1.15.17.17,0,0,0,0-.24.18.18,0,0,0-.25,0,11.72,11.72,0,0,1-1.31,1.12,1.36,1.36,0,0,1-.25.18Zm-18.65-9.87L84,116.86a.47.47,0,0,0-.4-.22l-18.09.08a.48.48,0,0,0-.37.17l-.08.23,0,0a.44.44,0,0,0,.08.29l11.68,18.22a49.62,49.62,0,0,1,2.23-5.59,10.73,10.73,0,0,1,2.67-3.57,3,3,0,0,1,2.78-.71,3.79,3.79,0,0,1,2.35,3.33,22.24,22.24,0,0,1-.56,6.68c-.73,3.62-1.9,7.72-2.55,11.8a38.48,38.48,0,0,1,8.41-6.88A57,57,0,0,1,97.45,137.78Zm19.24,8.27c0-.05,0-.11,0-.16-.09-.47-.11-1.23-.17-1.54a7.76,7.76,0,0,0-1.42-3.41,4.52,4.52,0,0,0-2.83-1.7c-.37-.05-1,0-1.49,0a.9.9,0,0,1-.69-.28,1.5,1.5,0,0,1-.25-.65c-.06-.27-.09-.56-.16-.79a6.77,6.77,0,0,0-1.43-2.73,5.22,5.22,0,0,0-5.43-1.6,8.39,8.39,0,0,0-1.3.69,1.39,1.39,0,0,1-.74.24c-.1,0-.17-.07-.25-.16a3.56,3.56,0,0,1-.36-.53c-.42-.71-.83-1.43-1.23-2.15-.08-.15-.23-.36-.35-.56a.76.76,0,0,1-.11-.32.16.16,0,0,0-.18-.16.16.16,0,0,0-.16.17,1,1,0,0,0,.15.47c.12.21.27.42.35.57.4.72.82,1.44,1.24,2.15a3.46,3.46,0,0,0,.4.6.76.76,0,0,0,.48.27,1.87,1.87,0,0,0,.93-.29,9,9,0,0,1,1.23-.66A4.88,4.88,0,0,1,108,135a6.44,6.44,0,0,1,1.35,2.59,7.31,7.31,0,0,1,.15.76,1.93,1.93,0,0,0,.31.79,1.3,1.3,0,0,0,.94.42c.51,0,1.1,0,1.46,0a4.17,4.17,0,0,1,2.62,1.57,7.34,7.34,0,0,1,1.35,3.26c.08.39.1,1.41.24,1.81a.47.47,0,0,0,.18.25.26.26,0,0,0,.27-.05,1.49,1.49,0,0,0,.35-.63l.18-.51a.17.17,0,1,0-.33-.11c-.06.16-.11.33-.17.5A2,2,0,0,1,116.69,146.05Zm60-6.79-.45,0a6.47,6.47,0,0,0-1.24.24,4.1,4.1,0,0,0-3,2.3c-.81,2.27,1.31,4.28,3.39,4.57,0-.32.08-.64.11-.94.09-.64.17-1.27.27-1.91.14-.85.28-1.7.47-2.55C176.37,140.43,176.5,139.84,176.67,139.26Zm49.54,6.8.24,0a5.28,5.28,0,0,1,.56,0,17.54,17.54,0,0,1,1.78.13.17.17,0,1,0,0-.34c-.61-.06-1.21-.14-1.82-.14-.19,0-.39,0-.59,0a2.34,2.34,0,0,0-.38.06.16.16,0,0,0-.11.16.18.18,0,0,0,.18.17A.12.12,0,0,0,226.21,146.06Zm-.06-.32Zm-74.85-3.39a6.43,6.43,0,0,0,0,1.91.16.16,0,0,0,.18.16.16.16,0,0,0,.16-.17,6.45,6.45,0,0,1,0-1.81.17.17,0,0,0-.12-.21A.16.16,0,0,0,151.3,142.35Zm76.13,1a7.4,7.4,0,0,1,1.86.94.18.18,0,0,0,.24-.06.16.16,0,0,0-.06-.23,7.44,7.44,0,0,0-1.95-1,.18.18,0,0,0-.21.13A.16.16,0,0,0,227.43,143.3Zm-76.85-3c0,.09,0,.63,0,.67,0,.86-.08,1.72-.07,2.57a.17.17,0,0,0,.17.18.18.18,0,0,0,.17-.18c0-.85,0-1.7.07-2.55a6.54,6.54,0,0,0,0-.78.18.18,0,0,0-.12-.14.17.17,0,0,0-.22.1A.19.19,0,0,0,150.58,140.31ZM72,141.8h.19l.42-.1c.38-.1.77-.17,1.17-.25a.17.17,0,0,0,.13-.2.17.17,0,0,0-.2-.13c-.4.07-.79.15-1.19.24l-.4.1h-.22a.16.16,0,0,0-.13.16.17.17,0,0,0,.15.19Zm0-.33Zm-.42-3.18a.17.17,0,0,0-.1-.18.17.17,0,0,0-.23.09.34.34,0,0,0,.07.33,2.61,2.61,0,0,0,.4.41,13.25,13.25,0,0,0,1.66,1.33.17.17,0,0,0,.2-.28,12.64,12.64,0,0,1-1.62-1.3,2.53,2.53,0,0,1-.32-.3A.37.37,0,0,1,71.61,138.29Zm.32-9.66h0a.91.91,0,0,0-.43.11,4.9,4.9,0,0,0-.68.4,2.65,2.65,0,0,0-1.3,2.18,7,7,0,0,0,.93,2.34,49.27,49.27,0,0,0,4.43,6.61c.59-1.3,1.18-2.59,1.66-3.84l.15-.37ZM176.73,139h0ZM118,119.87v7.92a4.14,4.14,0,0,0,3.94,4.13l-.63,6.6a.18.18,0,0,0,.11.17.15.15,0,0,0,.19,0l5.91-6.73h27.09a4.13,4.13,0,0,0,4.13-4.13v-7.92a4.13,4.13,0,0,0-4.13-4.13H122.15A4.13,4.13,0,0,0,118,119.87Zm.34,0a3.79,3.79,0,0,1,3.79-3.79h32.48a3.79,3.79,0,0,1,3.79,3.79v7.92a3.79,3.79,0,0,1-3.79,3.79H127.46a.17.17,0,0,0-.12,0L121.72,138l.6-6.26a.18.18,0,0,0,0-.13.18.18,0,0,0-.12,0,3.79,3.79,0,0,1-3.79-3.79Zm8.5,17.43a1.14,1.14,0,0,1-.46.14c-.35.06-.77.09-1,.13a.18.18,0,0,0-.14.21.19.19,0,0,0,.21.13c.23-.06.75-.08,1.12-.17a1.14,1.14,0,0,0,.45-.17.19.19,0,0,0,0-.25A.17.17,0,0,0,126.86,137.3Zm-27-.57L85.19,113.89a.52.52,0,0,0-.43-.23l-18,.08a.51.51,0,0,0-.44.26c-.08.15-.6,1.52-.94,2.39l.18,0,18.08-.07a.8.8,0,0,1,.69.37l13.44,21C98.48,137.29,99.18,137,99.83,136.73Zm27.82-1a.86.86,0,0,0-.51.15c-.38.21-.88.61-1.06.73a.16.16,0,0,0-.06.23.18.18,0,0,0,.23.06c.19-.11.67-.51,1-.72l.2-.09s.07,0,.09,0a.19.19,0,0,0,.2-.14A.17.17,0,0,0,127.65,135.68Zm6.66-2.47a.17.17,0,0,0,.31-.14.33.33,0,0,0-.25-.2,2.47,2.47,0,0,0-.51,0c-.59,0-1.17,0-1.76-.06a8.65,8.65,0,0,0-3.44.22c-1.21.47-2,1.8-2.68,2.85a.17.17,0,0,0,.06.24.16.16,0,0,0,.23-.06c.62-1,1.37-2.27,2.52-2.71a8.32,8.32,0,0,1,3.3-.2c.58,0,1.17,0,1.75.06a2.79,2.79,0,0,1,.39,0Zm25.45-2.43h0c-.13.07-.32.14-.35.16-.36.14-.71.26-1.07.37a.18.18,0,0,0-.12.21.17.17,0,0,0,.22.12c.37-.11.73-.24,1.09-.38l.39-.17a.84.84,0,0,0,.18-.13.19.19,0,0,0,0-.2.21.21,0,0,0-.15-.12A.17.17,0,0,0,159.76,130.78Zm.34-2.63a1.07,1.07,0,0,0-.18.33,3,3,0,0,1-.16.44c-.26.45-.61.82-.89,1.25a.17.17,0,0,0,0,.24.18.18,0,0,0,.24,0c.29-.43.64-.81.91-1.27.06-.11.12-.32.19-.49a.63.63,0,0,1,.09-.2.18.18,0,0,0,0-.25A.18.18,0,0,0,160.1,128.15ZM221.26,91.9a18.33,18.33,0,1,0,18.33,18.33A18.34,18.34,0,0,0,221.26,91.9Zm0,.35a18,18,0,1,1-18,18A18,18,0,0,1,221.26,92.25ZM73.78,112h0a2.33,2.33,0,0,1-1,0c-.36-.07-.72-.15-1-.19-1.42-.17-2.84-.37-4.27-.45a8.05,8.05,0,0,0-1.56,0,1.93,1.93,0,0,0-1,.4,2.17,2.17,0,0,0-.54.79c-.19.45-.31,1-.45,1.32a6.87,6.87,0,0,0-.68,3,6.3,6.3,0,0,0,1.16,2.47c.93,1.55,2,3,2.94,4.56.62,1,1.24,2,1.88,3a7.2,7.2,0,0,0,.44.76.64.64,0,0,0,.32.26.17.17,0,0,0,.2-.13.17.17,0,0,0-.12-.2l-.06,0s-.09-.12-.14-.18c-.15-.24-.29-.54-.36-.64-.63-1-1.25-2-1.87-3-1-1.54-2-3-2.94-4.56a5.91,5.91,0,0,1-1.11-2.33,6.35,6.35,0,0,1,.67-2.82c.13-.36.25-.86.44-1.3a1.82,1.82,0,0,1,.44-.67,1.77,1.77,0,0,1,1.07-.34,10,10,0,0,1,1.25,0c1.42.09,2.84.28,4.25.45.36,0,.8.17,1.23.22a2.27,2.27,0,0,0,.87,0,.35.35,0,0,0,.24-.19.33.33,0,0,0,0-.24.77.77,0,0,0-.12-.24c-.22-.32-.54-.55-.78-.84a.35.35,0,0,1-.06-.09h.13l.28.1A4.23,4.23,0,0,1,74,111l.69.37c.32.18.64.37.94.58a.17.17,0,0,0,.24,0,.16.16,0,0,0,0-.23q-.47-.31-1-.6l-.7-.38-.51-.24-.32-.11c-.27-.07-.45,0-.52.1s-.1.3.09.53.55.51.77.81l0,.08A.21.21,0,0,1,73.78,112Zm132.87,14.1a7.23,7.23,0,0,1,1.36.8.17.17,0,0,0,.23-.06.16.16,0,0,0-.06-.23,7.43,7.43,0,0,0-1.43-.84.18.18,0,0,0-.22.12A.18.18,0,0,0,206.65,126.07Zm-83.06.41H155a.18.18,0,0,0,.17-.18.18.18,0,0,0-.17-.17H123.59a.17.17,0,0,0-.17.17A.17.17,0,0,0,123.59,126.48Zm113-1.26a14.24,14.24,0,0,1-2.67.48.17.17,0,0,0-.15.2.16.16,0,0,0,.19.14,14.69,14.69,0,0,0,2.74-.49.17.17,0,0,0-.11-.33Zm-31.81-2.92A4.66,4.66,0,0,0,206,124a15.09,15.09,0,0,0,2.58,1.94.15.15,0,0,0,.23,0,.18.18,0,0,0-.05-.24,15,15,0,0,1-2.52-1.89,4.47,4.47,0,0,1-1.15-1.58.17.17,0,1,0-.32.12ZM225,125a.2.2,0,0,0,.13,0l0,0a15.32,15.32,0,0,0,8.63-6.06l0,0a.21.21,0,0,0,.08-.15,15.18,15.18,0,1,0-12.61,6.72A15.47,15.47,0,0,0,225,125Zm.28-6.36a6.42,6.42,0,0,1-2.88,2.39,3.48,3.48,0,0,1-2.24.34,5.83,5.83,0,0,1-1.44-.67,3.76,3.76,0,0,1,.31.91,3.65,3.65,0,0,1-.11,1.3,19.66,19.66,0,0,0-.44,1.93,15.6,15.6,0,0,0,2.83.27,14.8,14.8,0,0,0,3.48-.41c-.26-.56-.17-.76-.44-1.45-.08-.24-.28-.55-.38-.86a.94.94,0,0,1,0-.68,4.41,4.41,0,0,1,1.11-1.21,3.39,3.39,0,0,0,.31-.28c0-.06.09-.1.1-.15a.15.15,0,0,1,0-.09,1.34,1.34,0,0,1-.27-1.14Zm-8-5.64a8.71,8.71,0,0,0-2.27.33,15.15,15.15,0,0,0-5.66,2.75,8.2,8.2,0,0,0-1.16,1.12s0,0,0,0a14.85,14.85,0,0,0,9.94,7.55c0-.49.28-1.24.43-1.93a3.43,3.43,0,0,0,.12-1.17,4.12,4.12,0,0,0-.61-1.39l-.1-.14a1.8,1.8,0,0,1-.19-.2l-.06,0h-.14a.89.89,0,0,1-.24-.13,2.77,2.77,0,0,0-.94-.43,4.9,4.9,0,0,0-1.27,0,1.38,1.38,0,0,1-.4,0,.52.52,0,0,1-.29-.18.76.76,0,0,1-.07-.62,5.18,5.18,0,0,1,.3-.77,18.37,18.37,0,0,1,1.87-3.13c.19-.28.38-.56.59-.84a2.51,2.51,0,0,1,.14-.21l.09-.07C217.31,113.24,217.28,113.1,217.26,113Zm20.17,10.3a.51.51,0,0,1-.14.08c-.16.08-.35.15-.42.18-.61.29-1.24.54-1.85.81a.18.18,0,0,0-.1.23.18.18,0,0,0,.23.09c.62-.27,1.25-.53,1.86-.82.09,0,.35-.13.51-.22a.54.54,0,0,0,.22-.19.17.17,0,0,0-.31-.16Zm-11.57-8.77a.61.61,0,0,1-.07.14h0a.24.24,0,0,1,.11.15c0,.09,0,.31.05.34.09.36.21.72.33,1.07a17,17,0,0,0,1.7,3.32c.16.25.33.5.49.76a1,1,0,0,1,.13.27.38.38,0,0,1,0,.28.41.41,0,0,1-.34.22,3.12,3.12,0,0,1-.73-.1,3.54,3.54,0,0,1-1.82-.74.75.75,0,0,1-.07.12,3.35,3.35,0,0,1-.4.38,4.18,4.18,0,0,0-1,1.11.65.65,0,0,0,0,.43c.1.3.29.6.37.83.28.71.16.89.46,1.49a14.85,14.85,0,0,0,8.38-5.9,7.28,7.28,0,0,0-.92-1.09,9.31,9.31,0,0,0-2.38-1.58,19.73,19.73,0,0,0-3-1.13l-.94-.26-.24,0A.5.5,0,0,1,225.86,114.48Zm-102.27,9H155a.18.18,0,0,0,.17-.17.17.17,0,0,0-.17-.17H123.59a.16.16,0,0,0-.17.17A.17.17,0,0,0,123.59,123.49Zm114.65-2.89s0,0,0,.06l-.13.14c-.17.17-.39.34-.47.42-.69.64-1.41,1.25-2.11,1.88a.17.17,0,0,0,.22.26c.71-.63,1.43-1.25,2.12-1.89a7.14,7.14,0,0,0,.57-.52.67.67,0,0,0,.17-.3.17.17,0,0,0-.14-.2A.16.16,0,0,0,238.24,120.6Zm-20.3-5.44a5.26,5.26,0,0,0-.31,2.72c.06.4.16.79.22,1.18a1.58,1.58,0,0,1,.06.35.56.56,0,0,1,0,.13l.05,0a.21.21,0,0,0,0,.06s0,0,0,0a1.71,1.71,0,0,1,.18.2,5.57,5.57,0,0,0,2,1.11,3.22,3.22,0,0,0,2-.32,5.25,5.25,0,0,0,3.1-3.14A4.12,4.12,0,0,0,225,116h0a4.76,4.76,0,0,1-2.05,1.64c-1.87.67-3.89-.57-4.82-2.17C218,115.36,218,115.26,217.94,115.16Zm7.66-.17c-.12.22-.26.45-.41.67a4.82,4.82,0,0,1,.46,2.4c0,.24-.07.5-.11.77a1.28,1.28,0,0,0,.05.65,2.54,2.54,0,0,0,2,1.13,5.5,5.5,0,0,0,.56.09h.15a.19.19,0,0,0,0-.07,1.19,1.19,0,0,0-.08-.16l-.49-.76a17.11,17.11,0,0,1-1.73-3.38,10.92,10.92,0,0,1-.34-1.11A1.72,1.72,0,0,0,225.6,115Zm-82.67,5.28h12a.18.18,0,0,0,.17-.18.18.18,0,0,0-.17-.17h-12a.18.18,0,0,0-.18.17A.18.18,0,0,0,142.93,120.27Zm74.5-6.48a.8.8,0,0,0-.06.08c-.2.27-.39.55-.58.83a18.21,18.21,0,0,0-1.83,3.06,4,4,0,0,0-.28.72c0,.13-.06.25,0,.33a.17.17,0,0,0,.14.07h.27a5.63,5.63,0,0,1,1.36,0,3.31,3.31,0,0,1,1,.49l.07,0v-.08c0-.09,0-.19,0-.26-.07-.39-.17-.79-.22-1.19a5.35,5.35,0,0,1,.45-3.18A6.36,6.36,0,0,1,217.43,113.79Zm16.24,4.56A14.83,14.83,0,1,0,208,116.84a6.81,6.81,0,0,1,1.13-1.08,15.3,15.3,0,0,1,5.79-2.81,9,9,0,0,1,2.3-.34c0-.28-.06-.57-.07-.86a1.07,1.07,0,0,1-.71-.64,2.74,2.74,0,0,1-.16-.53,2.31,2.31,0,0,1-.78-.29,3.88,3.88,0,0,1-1.72-2.16,6,6,0,0,1,.3-4.24,5.18,5.18,0,0,1,.4-.69s0,0,0,0a4.59,4.59,0,0,1,1.82-3.58,4.12,4.12,0,0,1,4.83-.32.36.36,0,0,1,.08-.12,3.22,3.22,0,0,1,.53-.38,5.88,5.88,0,0,1,1.76-.67c2.36-.53,5.11.49,6,2.72h0a3.23,3.23,0,0,1,1.49,1.29,6.32,6.32,0,0,1,.76,1.54,5.2,5.2,0,0,1-.95,5.15.46.46,0,0,1,0,.09,2.35,2.35,0,0,1,0,.51,3.93,3.93,0,0,1-.58,1.62,2,2,0,0,1-2.87.65,1.6,1.6,0,0,1-.83.75h0a8.89,8.89,0,0,1-.55,1.75.2.2,0,0,1,.08,0l.28,0,.94.26a20.4,20.4,0,0,1,3,1.15,9.79,9.79,0,0,1,2.47,1.65A7.84,7.84,0,0,1,233.67,118.35Zm-7.13-9.59a1.57,1.57,0,0,1-.18-1.31,1.35,1.35,0,0,0-.17-1.18,1.6,1.6,0,0,0-1.11-.43c-.5,0-1,0-1.5-.06a23,23,0,0,1-3.13-.88,1.85,1.85,0,0,0-1.64.23,1.19,1.19,0,0,0-.38.83c0,.22,0,.44,0,.66a5.4,5.4,0,0,1-.44,1.79c-.11.25-.23.49-.35.74a.88.88,0,0,1-.1.19l0,0a.14.14,0,0,1,0,.07,15.42,15.42,0,0,1,0,1.66,8.55,8.55,0,0,0,.93,4.19c.85,1.46,2.69,2.63,4.4,2a4.35,4.35,0,0,0,1.89-1.53C226.26,113.69,226.52,111.25,226.54,108.76ZM105.59,75.22a20,20,0,1,0,20,20A20,20,0,0,0,105.59,75.22ZM181,114.06a1.64,1.64,0,0,1,.19.25,1.18,1.18,0,0,0,.29.3,5.09,5.09,0,0,0,2,.58.17.17,0,0,0,.07-.34,4.83,4.83,0,0,1-1.88-.51,1.43,1.43,0,0,1-.2-.23,2.17,2.17,0,0,0-.23-.3.18.18,0,0,0-.24,0A.18.18,0,0,0,181,114.06Zm-35.62-.21a9.46,9.46,0,0,0,1.26,1.1.17.17,0,0,0,.23-.26,8.08,8.08,0,0,1-1.21-1,.17.17,0,0,0-.28.2Zm-39.8-38.29a19.7,19.7,0,1,1-19.7,19.7A19.71,19.71,0,0,1,105.59,75.56Zm23.28,38.56a.48.48,0,0,0,.14,0,3.81,3.81,0,0,0,.47.07q.72.09,1.44.15c1.34.1,2.69.16,4.05.19a15.46,15.46,0,0,0,3.66-.11,1.06,1.06,0,0,0,.67-.38.44.44,0,0,0,.06-.26l0-.14a8.44,8.44,0,0,1,2,.33c1.31.28,2.6.6,3.9.91a.18.18,0,0,0,.21-.12.18.18,0,0,0-.13-.21c-1.3-.31-2.6-.64-3.9-.91a7.59,7.59,0,0,0-2.21-.33.25.25,0,0,0-.17.08.26.26,0,0,0-.06.16,1.54,1.54,0,0,0,0,.19.25.25,0,0,1,0,.08s0,0,0,0a.75.75,0,0,1-.46.23,15.23,15.23,0,0,1-3.57.1c-1.35,0-2.7-.1-4-.2-.47,0-.95-.08-1.42-.14l-.45-.06s-.12-.06-.17-.07h-.12a.18.18,0,0,0-.1.07.22.22,0,0,0,0,.15.17.17,0,0,0,.2.14ZM147.1,114l.61.83a.17.17,0,1,0,.28-.2,10.44,10.44,0,0,0-.67-.91.22.22,0,0,0-.21,0,.17.17,0,0,0-.09.23A.14.14,0,0,0,147.1,114Zm35.72,0h-.08a.13.13,0,0,0-.12,0,.2.2,0,0,0-.09.1.17.17,0,0,0,.11.22l.15,0h.26a6.93,6.93,0,0,0,.78-.1.17.17,0,1,0-.05-.33c-.24,0-.49.08-.74.09Zm0,.22a.14.14,0,0,1-.09.08A.18.18,0,0,0,182.85,114.17Zm0,0Zm0-.15a.14.14,0,0,1,0,.15.28.28,0,0,0,0-.13S182.84,114,182.83,114ZM129,114v0Zm18.23,0Zm0,0Zm48.18-11.68a2.62,2.62,0,0,0-2.62-2.62h-8.56a2.61,2.61,0,0,0-2.61,2.62v8.56a2.61,2.61,0,0,0,2.61,2.61h8.56a2.61,2.61,0,0,0,2.62-2.61Zm-.35,0v8.56a2.27,2.27,0,0,1-2.27,2.27h-8.56a2.27,2.27,0,0,1-2.27-2.27V102.3a2.28,2.28,0,0,1,2.27-2.28h8.56A2.28,2.28,0,0,1,195.06,102.3ZM77.9,111a.19.19,0,0,0,0-.18.18.18,0,0,0-.24-.06.28.28,0,0,0-.1.16,1.59,1.59,0,0,0,0,.39,8.65,8.65,0,0,0,.19,1.34.17.17,0,1,0,.33-.06,9.25,9.25,0,0,1-.18-1.3Zm-1.7-.73a.18.18,0,0,0-.18-.16.34.34,0,0,0-.12.06.19.19,0,0,0,0,.17c0,.09.19.55.2.58q.24.59.51,1.17a.18.18,0,0,0,.23.08.17.17,0,0,0,.08-.23c-.17-.38-.34-.77-.5-1.15C76.37,110.78,76.22,110.34,76.2,110.29ZM226.62,112a1.33,1.33,0,0,0,.55-.62,3.13,3.13,0,0,0,.27-1.06,2.89,2.89,0,0,0,0-.43.53.53,0,0,0-.09-.33l0,0s0,0-.06,0a.64.64,0,0,0-.17.16,2.12,2.12,0,0,0-.21.35s0,0,0,0A14.77,14.77,0,0,1,226.62,112Zm-127-1.27a.17.17,0,0,0,.12.06h.05a16.59,16.59,0,1,0,5.8-32.14,16.6,16.6,0,0,0-6,32.08Zm130-9.5a4,4,0,0,1,.13.78.17.17,0,0,1-.15.18.17.17,0,0,1-.19-.15c-.22-2.86-3.29-4.21-5.85-3.64a5.75,5.75,0,0,0-1.66.63,3.21,3.21,0,0,0-.48.34.63.63,0,0,1,0,.09h0a3.66,3.66,0,0,1,.65.79.18.18,0,0,1-.06.24.16.16,0,0,1-.23-.06,3.32,3.32,0,0,0-.68-.79l0,0-.05,0a3.76,3.76,0,0,0-4.49.26,4.27,4.27,0,0,0-1.64,2.87,3.27,3.27,0,0,1,.92-.68.18.18,0,0,1,.23.09.17.17,0,0,1-.09.23,3.34,3.34,0,0,0-1.53,1.68,5.57,5.57,0,0,0-.28,4,3.51,3.51,0,0,0,1.56,2,1.84,1.84,0,0,0,.55.23c0-.18,0-.35,0-.5a1.86,1.86,0,0,1,.12-.69.41.41,0,0,1,.29-.24.54.54,0,0,1,.5.16,1.15,1.15,0,0,1,.14.17.76.76,0,0,1,.07-.13c.12-.24.23-.47.34-.71a5,5,0,0,0,.41-1.68c0-.28,0-.57.05-.86a1.48,1.48,0,0,1,.47-.87,2.19,2.19,0,0,1,1.95-.3,23.86,23.86,0,0,0,3.09.87c.55.06,1.22,0,1.79.1a1.69,1.69,0,0,1,1,.51,1.66,1.66,0,0,1,.25,1.45,2.06,2.06,0,0,0,0,.65h.07a.18.18,0,0,1,.17.17v.33h0a.17.17,0,0,1,0,.24h0c0,.2,0,.39,0,.59a.91.91,0,0,1,.17-.17.4.4,0,0,1,.35-.1.4.4,0,0,1,.25.15.86.86,0,0,1,.16.42,2.84,2.84,0,0,1,0,.59,3.84,3.84,0,0,1-.22,1,1.63,1.63,0,0,0,2.42-.5,3.61,3.61,0,0,0,.54-1.47,2.28,2.28,0,0,0,0-.27,5.87,5.87,0,0,1-.72.6.18.18,0,0,1-.24,0,.17.17,0,0,1,0-.24,4.87,4.87,0,0,0,1.84-5.66,5.87,5.87,0,0,0-.73-1.46A3,3,0,0,0,229.63,101.25Zm-128.69.48a1.6,1.6,0,0,0-.24,1c0,.8.3,1.72.27,2.39a10.61,10.61,0,0,1-.37,2.16,25.66,25.66,0,0,0-.62,2.59q0,.3-.06.6h0a16.19,16.19,0,0,0,5.67,1,16.52,16.52,0,0,0,3-.27,4.58,4.58,0,0,1-.3-1.44,20.27,20.27,0,0,1,.17-3.12c.12-1.07.26-2.12.28-3a3.9,3.9,0,0,0-.1-1.16,6,6,0,0,1-1.55,1.18A4.39,4.39,0,0,1,100.94,101.73Zm116.25,7.94s0,0,0,0-.16-.26-.27-.38-.13-.16-.24-.13,0,0,0,0a.36.36,0,0,0,0,.09,1.74,1.74,0,0,0-.05.48,2.79,2.79,0,0,0,0,.62.25.25,0,0,1,0,.08h0a1.91,1.91,0,0,0,.16.53.75.75,0,0,0,.37.41v-.28C217.11,110.65,217.21,110.13,217.19,109.67ZM110.67,98.73a9.13,9.13,0,0,1-1.77,3.53.05.05,0,0,1,0,0,3.55,3.55,0,0,1,.17,1.42c0,.85-.16,1.92-.28,3a19.46,19.46,0,0,0-.17,3.06,3.7,3.7,0,0,0,.31,1.39,16.29,16.29,0,0,0,10.31-7.12l0,0-.23-.19-.59-.5c-.56-.49-1.12-1-1.7-1.44C114.87,100.45,113,99.1,110.67,98.73Zm-34.52,11.7a.22.22,0,0,1-.11,0A.22.22,0,0,0,76.15,110.43Zm26.37-12.76h0a18.3,18.3,0,0,0-5,.91.2.2,0,0,1-.09,0h0a9,9,0,0,0-4.18,3A12,12,0,0,0,91.89,104a16.26,16.26,0,0,0,7.69,6.36,5.06,5.06,0,0,1,.06-.53,23.41,23.41,0,0,1,.63-2.63,9.82,9.82,0,0,0,.35-2.09c0-.66-.24-1.57-.26-2.36a1.72,1.72,0,0,1,.51-1.45h0a2.69,2.69,0,0,0,.65-.88,11.72,11.72,0,0,0,.88-2.29C102.45,98,102.49,97.82,102.52,97.67Zm85.09,12a1.2,1.2,0,0,1-.16-.16c-.56-.69-1.62-2.57-1.87-3,0-.07-.07-.11-.08-.11a.18.18,0,0,0-.15,0,.21.21,0,0,0-.11.08.21.21,0,0,0,0,.11.31.31,0,0,0,0,.1l0,.05c.25.41,1.33,2.32,1.89,3a1,1,0,0,0,.3.28.21.21,0,0,0,.2,0,.66.66,0,0,0,.26-.2,4.31,4.31,0,0,0,.41-.57c1-1.58,2.69-5.34,3.44-6.76a.18.18,0,0,0-.07-.23.16.16,0,0,0-.23.07c-.66,1.24-2,4.27-3,6.06a8.77,8.77,0,0,1-.66,1.07A1,1,0,0,1,187.61,109.72Zm43-.69Zm-104.29-2.76-.63.34c-.65.4-1.26.85-1.87,1.28a.17.17,0,1,0,.19.28c.62-.43,1.22-.87,1.86-1.27l.64-.34a.19.19,0,0,0,.09-.16.17.17,0,0,0-.17-.17A.21.21,0,0,0,126.32,106.27Zm.3-3.84c-.43,1.58-2.11,3.16-3.11,4.4a.17.17,0,0,0,.27.21c1-1.26,2.73-2.9,3.17-4.53a.17.17,0,0,0-.12-.2A.16.16,0,0,0,126.62,102.43Zm71.11,3.23a1.39,1.39,0,0,0-.21.49c-.07.24-.11.52-.16.7a.19.19,0,0,0,.12.22.17.17,0,0,0,.21-.12c.05-.19.09-.47.16-.72a.82.82,0,0,1,.15-.34.18.18,0,0,0,0-.25A.17.17,0,0,0,197.73,105.66Zm-19.2-17.75a4.13,4.13,0,0,0-4.13-4.13H141.92a4.13,4.13,0,0,0-4.13,4.13v7.92a4.13,4.13,0,0,0,4.13,4.13H169l5.9,6.73a.18.18,0,0,0,.2,0,.16.16,0,0,0,.1-.17l-.62-6.6a4.13,4.13,0,0,0,3.94-4.13Zm18.72,16.4a.94.94,0,0,0-.12.3c0,.13,0,.29,0,.38-.12.5-.23,1-.34,1.52a.17.17,0,0,0,.12.21.18.18,0,0,0,.21-.13c.12-.51.22-1,.34-1.52,0-.1,0-.25.06-.39a.3.3,0,0,1,.05-.15.17.17,0,0,0,0-.24A.17.17,0,0,0,197.25,104.31Zm-11.69,2.28a.31.31,0,0,1,0,.08A.19.19,0,0,0,185.56,106.59Zm-59.29-.23a.08.08,0,0,0,0,0A.08.08,0,0,1,126.27,106.36Zm0,0Zm0,0Zm62-8.24a.15.15,0,0,1,0,.07c0,.07,0,.15,0,.22a.42.42,0,0,0,.16.37,1,1,0,0,0,.73.11c.36,0,.75-.2,1-.24a7.46,7.46,0,0,1,3.19,0,4.6,4.6,0,0,1,1.23.47,3.65,3.65,0,0,1,1.9,3,20,20,0,0,1-.12,3.87.17.17,0,0,0,.16.18.18.18,0,0,0,.18-.16,19.1,19.1,0,0,0,.12-3.93,4,4,0,0,0-2.07-3.25,5.67,5.67,0,0,0-1.32-.49,7.79,7.79,0,0,0-3.33,0c-.23,0-.61.19-1,.24a.68.68,0,0,1-.48,0,.11.11,0,0,1,0-.08v-.16a.56.56,0,0,0-.07-.36.17.17,0,0,0-.27.21Zm-10.06-10.2v7.92a3.79,3.79,0,0,1-3.79,3.79.19.19,0,0,0-.13,0,.23.23,0,0,0,0,.14l.59,6.25-5.61-6.38a.16.16,0,0,0-.13-.06H141.92a3.79,3.79,0,0,1-3.79-3.79V87.91a3.79,3.79,0,0,1,3.79-3.78H174.4A3.79,3.79,0,0,1,178.19,87.91ZM119.26,104s0,0,0,0S119.26,104,119.26,104Zm-10.07-8.35c-1.38,1.55-3.69,2.46-5.61,1.38a6.17,6.17,0,0,1-.6-.39v.09a6,6,0,0,1-.24,1.49,11.81,11.81,0,0,1-.91,2.36,3.75,3.75,0,0,1-.64.91,4.08,4.08,0,0,0,5.75,2,7.41,7.41,0,0,0,3.43-4.89v0h0A4.5,4.5,0,0,1,109.19,95.64Zm69.27,2.63-.11.16a4.82,4.82,0,0,1-.35.44,10.55,10.55,0,0,1-1.33,1.26,5.09,5.09,0,0,1-.62.38,1.21,1.21,0,0,0-.41.36.74.74,0,0,0-.1.44,2.21,2.21,0,0,0,.15.55c.2.61.48,1.19.65,1.81a.17.17,0,0,0,.21.13.19.19,0,0,0,.12-.22c-.17-.62-.45-1.22-.66-1.83a2,2,0,0,1-.11-.39.43.43,0,0,1,0-.3,1.22,1.22,0,0,1,.41-.32,4.15,4.15,0,0,0,.56-.34,12.93,12.93,0,0,0,1.37-1.3c.13-.16.26-.31.38-.48a2.13,2.13,0,0,0,.16-.25.2.2,0,0,0,0-.12.16.16,0,0,0-.09-.15.19.19,0,0,0-.17,0A.17.17,0,0,0,178.46,98.27Zm-59,5.49a16.25,16.25,0,1,0-27.77-.12,10.71,10.71,0,0,1,1.19-2.2,9.24,9.24,0,0,1,4.28-3.11A12.68,12.68,0,0,1,97.2,95c.26-1.61,1-3.1,1.11-4.74.06-1.07-.09-2.12-.13-3.16a6.36,6.36,0,0,1,.56-3.18,5.06,5.06,0,0,1,6.84-2.48l.19-.17a1.21,1.21,0,0,1,.44-.27,5.43,5.43,0,0,1,6.39,2.66,7.39,7.39,0,0,1,.68,3.44,21.76,21.76,0,0,0,.1,3.42c.29,1.75,1.26,3.26,1.76,4.94a16,16,0,0,1,.39,5.11c.47.33.92.69,1.38,1s1.15,1,1.71,1.44l.58.49.24.19Zm57.24-1.65a4.69,4.69,0,0,0,.51,1.33.17.17,0,0,0,.22.1.17.17,0,0,0,.09-.23,4.28,4.28,0,0,1-.47-1.21.18.18,0,0,0-.35,0Zm1.2-.45.12.1.43.4a.17.17,0,1,0,.22-.26,6.47,6.47,0,0,0-.56-.51.38.38,0,0,0-.15-.07.15.15,0,0,0-.1,0,.16.16,0,0,0-.09.22A.15.15,0,0,0,177.88,101.66Zm-22.43,0a.94.94,0,0,1-.43,0c-.31,0-.66-.07-.86-.07-1.12,0-2.26,0-3.38,0a.18.18,0,0,0-.17.18.17.17,0,0,0,.18.16c1.12-.06,2.25-.06,3.37,0,.19,0,.54.06.85.08a1.19,1.19,0,0,0,.6-.09.16.16,0,0,0,.07-.23A.16.16,0,0,0,155.45,101.61Zm2-.9h-.13c-.26,0-.66-.06-.76-.06l-3-.09a.18.18,0,0,0-.18.17.18.18,0,0,0,.16.18c1,0,2,0,3,.08a6.7,6.7,0,0,0,.9.06.3.3,0,0,0,.24-.11.17.17,0,0,0,0-.24A.18.18,0,0,0,157.44,100.71Zm-42.25-.37a14.75,14.75,0,0,0-.38-4.77c-.51-1.69-1.48-3.22-1.77-5a21.34,21.34,0,0,1-.1-3.48,7,7,0,0,0-.65-3.29,5.08,5.08,0,0,0-6-2.5,1.28,1.28,0,0,0-.39.27l0,0a5.57,5.57,0,0,1,.82.58.16.16,0,0,1,0,.24.17.17,0,0,1-.24,0,4.94,4.94,0,0,0-.91-.63.17.17,0,0,1-.16-.08h0a4.72,4.72,0,0,0-6.36,2.34,6.11,6.11,0,0,0-.53,3c0,1.05.19,2.11.13,3.19-.08,1.65-.85,3.15-1.11,4.77a13.19,13.19,0,0,0-.08,3.15,19.3,19.3,0,0,1,5-.88l.09,0a3.9,3.9,0,0,0,.07-.63,1.54,1.54,0,0,0,0-.4,9.55,9.55,0,0,1-2.74-6.64,11.8,11.8,0,0,1,.07-2.06,3.16,3.16,0,0,1,.09-.52.51.51,0,0,1,.09-.18l-.12-.14a.15.15,0,0,1-.11-.12.18.18,0,0,1,0-.17.16.16,0,0,1,.21,0l.08.06a1.45,1.45,0,0,0,.16.18,2,2,0,0,0,.47.27,2.16,2.16,0,0,0,1.67.09,5.06,5.06,0,0,0,1.5-1.1,4.7,4.7,0,0,1,1.64-1.12,7.14,7.14,0,0,1,2.34-.16,2.24,2.24,0,0,0,1.91-.74.18.18,0,0,1,.25,0,.18.18,0,0,1,0,.25,3.74,3.74,0,0,1-.42.39.27.27,0,0,1,.07.08,11.61,11.61,0,0,1,.1,10q-.15.27-.33.54a3.92,3.92,0,0,0,1.11,3.18s0,0,0,.06A10.64,10.64,0,0,1,115.19,100.34Zm124.85-2a.18.18,0,0,0,.14-.14.2.2,0,0,0,0-.18.18.18,0,0,0-.22,0,.29.29,0,0,0-.11.08c-.09.1-.25.33-.33.42a5.29,5.29,0,0,0-.64,1,.17.17,0,0,0,.07.23.18.18,0,0,0,.23-.08,5.11,5.11,0,0,1,.61-1Zm-.47-2.74c-.39.91-1,1.79-1.49,2.7a.16.16,0,0,0,.08.22.16.16,0,0,0,.23-.07c.44-.92,1.11-1.8,1.5-2.71a.19.19,0,0,0-.09-.23A.17.17,0,0,0,239.57,95.64ZM208,93.18l.25.32q.23.31.48.63a1.06,1.06,0,0,0,.63.45,1.43,1.43,0,0,0,1.09-.27,35.06,35.06,0,0,1,4.11-2.64,18.09,18.09,0,0,1,13-.65,23.16,23.16,0,0,1,4.18,2c.39.23.82.56,1.26.85a3.94,3.94,0,0,0,1.42.65.64.64,0,0,0,.69-.33,5.05,5.05,0,0,0,.47-1.14,2,2,0,0,1,.17-.36s.05-.06.08-.07.06,0,.09,0a2.64,2.64,0,0,1,.85,1.72c.22,1.17.19,2.56.31,3.37a.16.16,0,0,0,.19.14.16.16,0,0,0,.15-.19c-.12-.81-.09-2.21-.32-3.39a3,3,0,0,0-1-1.93.42.42,0,0,0-.37-.09.51.51,0,0,0-.28.2,2.61,2.61,0,0,0-.21.44,5.1,5.1,0,0,1-.43,1.06.34.34,0,0,1-.35.19,3.54,3.54,0,0,1-1.3-.6c-.44-.29-.87-.62-1.26-.85a23.29,23.29,0,0,0-4.25-2,18.48,18.48,0,0,0-13.25.67A36.45,36.45,0,0,0,210.28,94a1.13,1.13,0,0,1-.83.23.75.75,0,0,1-.44-.33l-.48-.62a3.34,3.34,0,0,0-.27-.35.17.17,0,0,0-.14-.07.18.18,0,0,0-.15.1A.18.18,0,0,0,208,93.18ZM109.48,84.7A3.07,3.07,0,0,1,108,85a6.73,6.73,0,0,0-2.23.13,4.5,4.5,0,0,0-1.52,1,5.41,5.41,0,0,1-1.6,1.17,2.49,2.49,0,0,1-1.93-.1l-.3-.14h0l0,0,0,.11a2.43,2.43,0,0,0-.06.4,12,12,0,0,0-.07,2,9.28,9.28,0,0,0,2.47,6.26.17.17,0,0,1,.18.09.33.33,0,0,1,.05.12,5.6,5.6,0,0,0,.85.59c2.15,1.21,4.81-.3,5.86-2.27a11.29,11.29,0,0,0-.11-9.7A.08.08,0,0,1,109.48,84.7ZM173,94.17H141.6a.18.18,0,0,0-.17.17.17.17,0,0,0,.17.17H173a.17.17,0,0,0,.17-.17A.18.18,0,0,0,173,94.17ZM136.1,92.61a.16.16,0,0,0,0,.2.16.16,0,0,0,.22.09.29.29,0,0,0,.17-.28,1.11,1.11,0,0,0,0-.23.61.61,0,0,1-.06-.21c0-.7.07-1.41.1-2.12a28.93,28.93,0,0,1,.23-3.61,4.22,4.22,0,0,1,1.61-2.93c1.82-1.26,4.37-1.25,6.49-1.31,4-.12,8-.1,12-.14,1.09,0,2.59.13,4,0a5.75,5.75,0,0,0,2.52-.66.89.89,0,0,0,.5-.65,1,1,0,0,0-.35-.84c.83.45,1.63,1,2.43,1.49a.17.17,0,0,0,.24,0,.16.16,0,0,0-.06-.23,30.35,30.35,0,0,0-2.85-1.72,5.32,5.32,0,0,0-.69-.32l-.22,0a.31.31,0,0,0-.17.05.21.21,0,0,0-.06.1.18.18,0,0,0,0,.14l.08.08c.07.06.24.16.25.17a5.7,5.7,0,0,1,.65.44.83.83,0,0,1,.4.67.67.67,0,0,1-.34.41,5.42,5.42,0,0,1-2.37.61c-1.38.09-2.87,0-3.95,0-4,0-8,0-12,.14-2.18.06-4.8.08-6.68,1.37a4.55,4.55,0,0,0-1.75,3.16,29.2,29.2,0,0,0-.23,3.65c0,.71-.09,1.42-.11,2.13a1.48,1.48,0,0,0,.07.31A.27.27,0,0,1,136.1,92.61ZM173,91.18H141.6a.18.18,0,0,0-.17.18.18.18,0,0,0,.17.17H173a.18.18,0,0,0,.17-.17A.18.18,0,0,0,173,91.18ZM153.62,88h-12a.17.17,0,0,0-.17.17.16.16,0,0,0,.17.17h12a.17.17,0,0,0,.17-.17A.18.18,0,0,0,153.62,88Zm-53.4-1.37h0Zm-17-1.16a4,4,0,0,1,.37.29,5.36,5.36,0,0,0,.92.69.7.7,0,0,0,.83,0,1.74,1.74,0,0,0,.42-.66c.15-.36.25-.77.37-1a20.4,20.4,0,0,1,1.58-3.13,17.31,17.31,0,0,1,8.16-6.88,14,14,0,0,1,6.4-1c.62.06,1.47.32,2.27.45a3.28,3.28,0,0,0,1.54,0,.37.37,0,0,0,.22-.18.48.48,0,0,0,0-.36,2.68,2.68,0,0,0-.33-.66,12.45,12.45,0,0,1-1.26-2,.7.7,0,0,1-.08-.35.14.14,0,0,1,.06-.14.25.25,0,0,1,.19,0,.92.92,0,0,1,.31.07,6.82,6.82,0,0,1,1,.53,10.45,10.45,0,0,1,3.46,3,.16.16,0,0,0,.24,0,.17.17,0,0,0,0-.24,10.74,10.74,0,0,0-3.56-3.07,6.18,6.18,0,0,0-1-.55.87.87,0,0,0-.82,0,.51.51,0,0,0-.21.41,1.46,1.46,0,0,0,.11.49,14.62,14.62,0,0,0,1.28,2.08,2.73,2.73,0,0,1,.26.47.59.59,0,0,1,0,.17.05.05,0,0,1,0,.06,2.84,2.84,0,0,1-1.37,0c-.81-.13-1.67-.4-2.3-.45a14.44,14.44,0,0,0-6.56,1,17.63,17.63,0,0,0-8.33,7,21.39,21.39,0,0,0-1.6,3.17c-.1.24-.18.56-.3.88a1.88,1.88,0,0,1-.4.71.39.39,0,0,1-.45,0,5.75,5.75,0,0,1-.87-.67s-.31-.26-.44-.33a.25.25,0,0,0-.26,0,.17.17,0,0,0,0,.24A.16.16,0,0,0,83.24,85.43Zm.1,0h0ZM166.73,80h0a.17.17,0,1,0-.34,0,4.91,4.91,0,0,0,.11.48,14.14,14.14,0,0,0,.45,1.44.18.18,0,0,0,.33-.12,11.41,11.41,0,0,1-.45-1.4S166.74,80,166.73,80Zm1.23.13c0,.12,0,.41,0,.52a9.88,9.88,0,0,0,.05,1.22.18.18,0,0,0,.2.15.18.18,0,0,0,.15-.19,7.65,7.65,0,0,1-.06-1.17c0-.14.05-.52.05-.57a.17.17,0,0,0-.13-.18.12.12,0,0,0-.1,0,.13.13,0,0,0-.1.08s0,0,0,.09Zm-1.27,0a.16.16,0,0,1-.13.06A.16.16,0,0,0,166.69,80.08ZM113.5,71.35a.17.17,0,0,0,0-.22.18.18,0,0,0-.28,0s-.16.35-.17.37c-.09.24-.18.47-.26.71-.23.69-.44,1.39-.66,2.08a.18.18,0,0,0,.11.22.16.16,0,0,0,.21-.11c.23-.69.44-1.39.67-2.08.07-.23.16-.46.25-.69Zm-2.63-.86a.19.19,0,0,0,0-.18.18.18,0,0,0-.24-.06.31.31,0,0,0-.11.22,3.13,3.13,0,0,0,.14.55c.17.65.29,1.32.42,2a.17.17,0,0,0,.2.13.19.19,0,0,0,.14-.2c-.14-.67-.26-1.34-.43-2C111,70.87,110.89,70.55,110.87,70.49Zm2.46.93a.24.24,0,0,1-.1,0A.24.24,0,0,0,113.33,71.42Z"/></g></svg>