<svg id="SvgjsSvg2044" width="360" height="360" xmlns="http://www.w3.org/2000/svg" version="1.1" xmlns:xlink="http://www.w3.org/1999/xlink" xmlns:svgjs="http://svgjs.com/svgjs"><defs id="SvgjsDefs2045"></defs><g id="SvgjsG2046"><svg xmlns="http://www.w3.org/2000/svg" viewBox="0 0 3968.5 2834.65" width="360" height="360"><rect width="3968.5" height="2834.65" fill="#fff4e2" class="colorfff4e2 svgShape"></rect><path fill="#f3d5ae" d="M1336.46 1907c-35.54 9.46-73.17-1.92-98.47-28.62A197.66 197.66 0 001069.12 1818c-82.46 10.52-145.57 69.94-166 144.17-13.47 49-53.3 85.92-102.85 97.23-76.22 17.4-136.44 89.68-125.15 178.19a161.56 161.56 0 00315.37 24.73 72.67 72.67 0 0178.81-51.52 198.34 198.34 0 00117.21-21.29c31.7-16.72 70.17-13.91 99.62 6.51a161.53 161.53 0 00252.23-153.22C1525.38 1940.91 1425.72 1883.24 1336.46 1907zM575.72 344.25A162.29 162.29 0 00490 368.32c-34.36 21.13-75.37 28-115.14 21.23a126.85 126.85 0 00-19.92-1.8C285.85 387 228.74 443.08 228.25 512.2a125.48 125.48 0 00153.89 123c38.72-9 79.56-4.29 114.34 15A163.15 163.15 0 00738.43 509.33C739.51 419.55 665.51 344.45 575.72 344.25zM3060.84 1138a157.85 157.85 0 00-35.22 3.57c-47.93 10.41-96.67-12.78-118-56.94-31.61-65.35-98.34-112.15-178.39-112.15a197.08 197.08 0 00-125.13 44.57c-45.19 36.91-102.22 55.78-160.57 55l-2.24 0a157.2 157.2 0 1064 300.84c52.92-23.6 112.36-28.87 167.93-12.49a199.41 199.41 0 00103.83 2.25c61.84-15.33 127.57 1.75 173.47 45.92A157.13 157.13 0 103060.84 1138z" class="colorf3d5ae svgShape"></path><path fill="#41435c" d="M3168.81,400.35s58.49-9.2,84,7C3284.07,427.37,3189,432,3168.81,400.35Z" class="color41435c svgShape"></path><polygon fill="#f4a969" points="3264.66 433.42 3234.28 421.46 3242.37 393.01 3265.76 392.75 3264.66 433.42" class="colorf4a969 svgShape"></polygon><path fill="#7b5150" d="M3168.81,400.35c-5.52,10.75-1.1,35.47,11.29,41.65,7.3,3.64,74.79,3.39,73.83-1.7-2.41-12.83,7.17-16,13.26-24.72C3253.34,420.09,3197,412.4,3168.81,400.35Z" class="color7b5150 svgShape"></path><path fill="#fb6d71" d="M3082.38,770.32l-19.07-18.57c-3.55-3.45-3.46-9.61.17-13.55l13.64-14.78,3.24,14.81,8.23,27.5C3089.77,769.65,3085.18,773.05,3082.38,770.32Z" class="colorfb6d71 svgShape"></path><path fill="#41435c" d="M3080.36,738.23l-3.24-14.81,6.78-10.7c18.65-29.42,43.95-41.47,59.37-46.29a18.27,18.27,0,0,0,13-18.28l-.1-2a189.37,189.37,0,0,1,14-81.57h0l54.48-13.68-48.59,117.43a39.43,39.43,0,0,1-15.17,18.15Z" class="color41435c svgShape"></path><path fill="#41435c" d="M3279.36,752.86l-13.77,4.56c-12.07-46.27-8.79-83.11-5.54-101.71A22.75,22.75,0,0,0,3252,634.1a189.41,189.41,0,0,1-46.2-55.41l-7.85-14.25,43.49-31,39.43,98.23a48.75,48.75,0,0,1,3.46,20.61Z" class="color41435c svgShape"></path><path fill="#f4a969" d="M3241.84,409.18,3263,409a26.39,26.39,0,0,0,25.87-22.64l2.14-16.6a15.08,15.08,0,0,0-15.5-17l-15.86.2a16.59,16.59,0,0,0-16.43,15.71Z" class="colorf4a969 svgShape"></path><path fill="#41435c" d="M3276.23,345l-5.29.07a42.17,42.17,0,0,0-27.6,10.86l-2.43,2.2c-7.11,6.41-8.33,16.83-2.81,24.14l4.67,6.18,2.82,0a7.51,7.51,0,0,0,7.44-8.1l-.18-1.67a4.14,4.14,0,0,1,7-3.31l.8.84a4.22,4.22,0,0,0,5.27.56h0a4.23,4.23,0,0,0,2-3.46h0a11.6,11.6,0,0,1,11.5-11.06l10.73-.13a1.79,1.79,0,0,0,1.77-1.71h0A15.19,15.19,0,0,0,3276.23,345Z" class="color41435c svgShape"></path><path fill="#ff9e37" d="M3357.21,502.77l-1.77,10.3-40.07,7.21a43.74,43.74,0,0,1-42.6-16.64h0a103.8,103.8,0,0,1-20.22-75.47h0a12.67,12.67,0,0,1,9.18-10.56h0a13.59,13.59,0,0,1,17.16,9.91h0c15.65,17.51,23.39,42.93,26.5,59.71,1.35,7.3,8.71,11.39,15.83,9.3a37.5,37.5,0,0,1,25.92,1.72Z" class="colorff9e37 svgShape"></path><path fill="#f4a969" d="M3376.59 497.84h0a12.4 12.4 0 01-9.56 12.52l-11.59 2.71 1.77-10.3.83-9.89a7.23 7.23 0 018.17-6.55h0A12.06 12.06 0 013376.59 497.84zM3148.42 574.65h0a11.25 11.25 0 01-12.87-8l-3.39-11.54 10.34.39 17 6.43 0 .34A13.52 13.52 0 013148.42 574.65z" class="colorf4a969 svgShape"></path><path fill="#7b5150" d="M3263.76,415.92l-7.91.3c-32.29,1.2-60.4,24.86-67.21,56.86l-22.13,56.34a48.13,48.13,0,0,0,1.78,39.19h0l36.78-1.16a74.35,74.35,0,0,0,48.74-20.31h0a42.79,42.79,0,0,0,13.62-29.25l1.17-23.95,9.49-61A14.11,14.11,0,0,0,3263.76,415.92Z" class="color7b5150 svgShape"></path><path fill="#fb6d71" d="M3306.32,757.25l-33.94,13.08c-4,1.55-8.05-1.9-7.53-6.42l.74-6.49,13.88-9.95,25.94,2a3.78,3.78,0,0,1,3.33,3h0A4.13,4.13,0,0,1,3306.32,757.25Z" class="colorfb6d71 svgShape"></path><path fill="#ff9e37" d="M3143,556.53l-10.29-1.17.57-72.4a29.85,29.85,0,0,1,11.2-23h0c21-17.13,49.16-26.55,78.16-25.54h0c11.25.4,17.19,13,10,21.51a56.63,56.63,0,0,1-28.62,18.32l-13.49,3.62c-17.62,4.73-29.52,18.1-30.67,33.43A78.85,78.85,0,0,1,3149.68,545Z" class="colorff9e37 svgShape"></path><polygon fill="#fb6d71" points="3235.05 360.18 3291.94 360.38 3290.96 369.71 3234.69 370.39 3235.05 360.18" class="colorfb6d71 svgShape"></polygon><path fill="#41435c" d="M3258.6 347.12L3228.8 354h0a13.32 13.32 0 0013.74 12.15l8.44-.1zM859 804.91l62-87.94h-13l-54.56 77.35A6.72 6.72 0 00859 804.91z" class="color41435c svgShape"></path><polygon fill="#f3d5ae" points="1067.31 553.62 992.77 589.83 970.82 571 1045.36 534.78 1067.31 553.62" class="colorf3d5ae svgShape"></polygon><polygon fill="#95b9b4" points="978.24 567.39 970.82 571 992.77 589.83 1000.19 586.23 978.24 567.39" class="color95b9b4 svgShape"></polygon><polygon fill="#41435c" points="1067.31 553.62 992.77 589.83 1010.88 567.36 1085.42 531.14 1067.31 553.62" class="color41435c svgShape"></polygon><path fill="#41435c" d="M970.84,814.9h-17.3V786.78a184.71,184.71,0,0,1,17.89-79.31h30.36Z" class="color41435c svgShape"></path><path fill="#fb6d71" d="M841.87,701.1,939,669.54l-6.14-82.9A347.67,347.67,0,0,1,939,491.11h0C876.06,491.11,851.58,549.37,841.87,701.1Z" class="colorfb6d71 svgShape"></path><path fill="#f4a969" d="M979.49,495.63h0a17.36,17.36,0,0,1-21,4.67l-5.7-2.75-17.71,16.62-21.59-19.09h0a60.2,60.2,0,0,0,31.1-41.64l.5-2.52a18.75,18.75,0,0,1,30.07-11l15.08,12a16.12,16.12,0,0,1,4.54,19.48h0A119.33,119.33,0,0,1,979.49,495.63Z" class="colorf4a969 svgShape"></path><path fill="#41435c" d="M958.18,458.81h0a6.61,6.61,0,0,1,5.74,6.33l.15,4.37a5.66,5.66,0,0,0,9.63,3.83l4.72-4.66h0a35.41,35.41,0,0,0,21.22,5.61,6.56,6.56,0,0,0,6.29-6.57v-.57a26.71,26.71,0,0,0-14.28-23.64L976,435.25a25.12,25.12,0,0,0-35.71,14.89l-4.34,14.21a4.27,4.27,0,0,0,4.39,5.53,13.86,13.86,0,0,0,10.81-7l.46-.8A6.62,6.62,0,0,1,958.18,458.81Z" class="color41435c svgShape"></path><path fill="#f4a969" d="M1033.29,585.76h0a29.93,29.93,0,0,1-31.5,10.35h0l8.8-20.64,25.79-6.83.39,1.74A18.31,18.31,0,0,1,1033.29,585.76Z" class="colorf4a969 svgShape"></path><path fill="#7b5150" d="M1039.75,814.37l-16.41,6.31-20.55-99.58-141.07-.55A19.76,19.76,0,0,1,842,700.71h0l97.23-31.18L1021,683.61a23.1,23.1,0,0,1,19.18,22.85Z" class="color7b5150 svgShape"></path><path fill="#41435c" d="M1059 836.29h-32.93a4.9 4.9 0 01-4.79-5.93l2.07-9.68 16.41-6.31 26.78 5.49a5 5 0 014 4.9h0A11.53 11.53 0 011059 836.29zM1004.07 831.51L970.84 814.9h-17.3l-2.49 12.76a5.66 5.66 0 004.81 6.7l39 5.24a8.16 8.16 0 009.25-8.09z" class="color41435c svgShape"></path><polygon fill="#41435c" points="891.55 701.3 821.76 701.3 813.83 670.01 883.62 670.01 891.55 701.3" class="color41435c svgShape"></polygon><polygon fill="#41435c" points="879.58 654.05 809.79 654.05 801.86 622.76 871.65 622.76 879.58 654.05" class="color41435c svgShape"></polygon><polygon fill="#60806d" points="891.55 701.3 882.21 701.3 874.28 670.01 883.62 670.01 891.55 701.3" class="color60806d svgShape"></polygon><polygon fill="#60806d" points="879.58 654.05 870.24 654.05 862.31 622.76 871.65 622.76 879.58 654.05" class="color60806d svgShape"></polygon><polygon fill="#41435c" points="976.26 727.81 830.3 727.81 827.55 716.97 973.51 716.97 976.26 727.81" class="color41435c svgShape"></polygon><polygon fill="#41435c" points="866.7 835.54 855.78 835.54 805.19 635.9 816.12 635.9 866.7 835.54" class="color41435c svgShape"></polygon><polygon fill="#41435c" points="913.81 835.54 902.89 835.54 852.3 635.9 863.23 635.9 913.81 835.54" class="color41435c svgShape"></polygon><path fill="#41435c" d="M906.05,804.91l62-87.94h-13l-54.57,77.35a6.72,6.72,0,0,0,5.49,10.59Z" class="color41435c svgShape"></path><polygon fill="#60806d" points="1005.06 727.81 911.78 727.81 909.03 716.97 1002.31 716.97 1005.06 727.81" class="color60806d svgShape"></polygon><path fill="#fb6d71" d="M938.36,456.55l57-10.66-7.21-11.14a58.64,58.64,0,0,0-46.06-26.68h0l-5.91,17.74a40.28,40.28,0,0,0,2.18,30.74Z" class="colorfb6d71 svgShape"></path><circle cx="938.09" cy="406.21" r="13.58" fill="#fb6d71" class="colorfb6d71 svgShape"></circle><path fill="#fb6d71" d="M958.4,607.64l-34.6-93.47-6.19,4.28a47.86,47.86,0,0,0-17.7,55.6c7.61,21.22,19.2,40.12,38.37,56.8a18.64,18.64,0,0,0,24.2-.1l40.21-34.11a22.73,22.73,0,0,0,8-18.35l-.12-2.82Z" class="colorfb6d71 svgShape"></path><path fill="#fb6d71" d="M899.65,501.64l39.42,55.05,11.14-10.12a31.59,31.59,0,0,0,1.9-44.9l-13.35-14.36a16.77,16.77,0,0,0-24.06-.51Z" class="colorfb6d71 svgShape"></path><path fill="#41435c" stroke="#fb6d71" stroke-linecap="round" stroke-miterlimit="10" stroke-width="5.87" d="M3550.64,2585.08l-3.62,1a20.24,20.24,0,0,0-12.49,9.84h0" class="color41435c svgShape colorStrokefb6d71 svgStroke"></path><path fill="#41435c" d="M3601.36,2539.82h0a27.37,27.37,0,0,0-23.13,12.75h0a20.38,20.38,0,0,1-17.23,9.5h-38.93a4.46,4.46,0,0,0-3.84,6.72h0a45.14,45.14,0,0,0,38.91,22.27H3559a29.44,29.44,0,0,0,28.06-20.49l2.43-7.6a12.43,12.43,0,0,1,11.84-8.65h0a7.25,7.25,0,0,0,6.16-3.43h0A7.25,7.25,0,0,0,3601.36,2539.82Z" class="color41435c svgShape"></path><path fill="#41435c" stroke="#fb6d71" stroke-linecap="round" stroke-miterlimit="10" stroke-width="5.87" d="M3559.84,2587.38h0a14.08,14.08,0,0,0,9.06,8.26l.83.25" class="color41435c svgShape colorStrokefb6d71 svgStroke"></path><path fill="none" stroke="#fb6d71" stroke-linecap="round" stroke-miterlimit="10" stroke-width="5.87" d="M3662.38,2585.08l3.61,1a20.24,20.24,0,0,1,12.5,9.84h0" class="colorStrokefb6d71 svgStroke"></path><path fill="#7b5150" d="M3689.11,2539.82h-8.33a11.58,11.58,0,0,0-11.05,15h0a5.56,5.56,0,0,1-5.31,7.22h-42.59a4.46,4.46,0,0,0-3.85,6.72h0a45.15,45.15,0,0,0,38.91,22.27h16.68a15.64,15.64,0,0,0,11.36-4.88h0a18.76,18.76,0,0,0,.88-24.85h0a4.28,4.28,0,0,1,3.3-7h0a7.25,7.25,0,0,0,6.16-3.43h0A7.25,7.25,0,0,0,3689.11,2539.82Z" class="color7b5150 svgShape"></path><path fill="none" stroke="#fb6d71" stroke-linecap="round" stroke-miterlimit="10" stroke-width="5.87" d="M3659.18,2587.38h0a14.08,14.08,0,0,1-9.06,8.26l-.83.25" class="colorStrokefb6d71 svgStroke"></path><path fill="none" stroke="#fb6d71" stroke-linecap="round" stroke-miterlimit="10" stroke-width="6.54" d="M2716.49,271.85l-4,1.08a22.52,22.52,0,0,0-13.93,11h0" class="colorStrokefb6d71 svgStroke"></path><path fill="#41435c" d="M2773,221.4h0a30.51,30.51,0,0,0-25.78,14.21h0a22.71,22.71,0,0,1-19.2,10.59h-43.39a5,5,0,0,0-4.29,7.49h0a50.29,50.29,0,0,0,43.37,24.82h2.11a32.83,32.83,0,0,0,31.28-22.84l2.7-8.47a13.86,13.86,0,0,1,13.2-9.64h0a8.09,8.09,0,0,0,6.87-3.82h0A8.08,8.08,0,0,0,2773,221.4Z" class="color41435c svgShape"></path><path fill="none" stroke="#fb6d71" stroke-linecap="round" stroke-miterlimit="10" stroke-width="6.54" d="M2726.75 274.41h0a15.69 15.69 0 0010.1 9.21l.93.28M2637.64 352.35l-4 1.08a22.52 22.52 0 00-13.93 11h0" class="colorStrokefb6d71 svgStroke"></path><path fill="#60806d" d="M2607.85,301.9h9.29a12.9,12.9,0,0,1,12.31,16.75h0a6.2,6.2,0,0,0,5.92,8.05h47.48a5,5,0,0,1,4.28,7.49h0A50.28,50.28,0,0,1,2643.76,359h-18.59a17.44,17.44,0,0,1-12.66-5.43h0a20.92,20.92,0,0,1-1-27.71h0a4.77,4.77,0,0,0-3.68-7.81h0a8.1,8.1,0,0,1-6.87-3.82h0A8.09,8.09,0,0,1,2607.85,301.9Z" class="color60806d svgShape"></path><path fill="none" stroke="#fb6d71" stroke-linecap="round" stroke-miterlimit="10" stroke-width="6.54" d="M2641.21,354.91h0a15.69,15.69,0,0,0,10.1,9.21l.93.28" class="colorStrokefb6d71 svgStroke"></path><path fill="#f4a969" d="M3706.79 312.76l5.89 6.48c-13.8 19.84-29.73 37.1-51.48 52.66a8.38 8.38 0 01-12.69-3.53L3623.4 303.3l18-12.43L3661.64 349zM3714.42 298.25h0a9.47 9.47 0 013 12.23l-4.7 8.76-5.89-6.48-6.18-13.86.21-.18A11.15 11.15 0 013714.42 298.25z" class="colorf4a969 svgShape"></path><path fill="#f3d5ae" d="M3701.85,330.16A30.14,30.14,0,0,1,3700,356a65.41,65.41,0,0,1-6.25,8.82c-6.57,7.84-17.77,16.36-28.85,15.4-14.51-1.27-26.42-11.23-32.72-23.16-7.56-14.31-8.74-27.79-6.41-43.45.93-6.21,2.2-14.33,6.2-20.13a6.52,6.52,0,0,1,11,1c7.05,15.57,15,31.79,23.5,46.54l24.87-17.76a5.87,5.87,0,0,1,8.87,2.54Z" class="colorf3d5ae svgShape"></path><path fill="#41435c" d="M3627.33,255.1c11.34,4,24.38-1.91,27.73-13.06,2.43-8.08-1.49-16.79-9.33-20.82a21.81,21.81,0,0,0-10.23-2.39,30.25,30.25,0,0,1-13.12-3,22.29,22.29,0,0,0-5.73-1.76,22.88,22.88,0,0,0-20.23,6.92,33.81,33.81,0,0,1-14.53,9.59l-.52.16a31.48,31.48,0,0,1-16.31.93c-12.15-2.74-26.17,5.22-27.46,18.94a21.44,21.44,0,0,1-2.51,8.43l-1.27,2.3a23,23,0,0,1-10.16,9.69,22.4,22.4,0,0,0-12.57,15.71,17.6,17.6,0,0,0,7.63,18.51c.6.4,1.21.76,1.82,1.1,10.25,5.52,24.07-.07,28.54-10.88h0a21.2,21.2,0,0,1,19.42-12.7l7.88,0a13.73,13.73,0,0,0,12.84-8.65h0c2.62-7.13,11.44-10.62,18.48-7.33l9.05,4.24Z" class="color41435c svgShape"></path><path fill="#f4a969" d="M3624.53,267.25l-11.13-1.6,1-21.48h0a13.81,13.81,0,0,0,7.79-11.47l0-.61,18.15-1.67,5,11.45a14.09,14.09,0,0,1-.55,12.32l-2.26,4.29A17.6,17.6,0,0,1,3624.53,267.25Z" class="colorf4a969 svgShape"></path><path fill="#fb6d71" d="M3615.58,275.28h0c-12.23-.09-23.59,6.9-28.51,17.62l-55.47,63.82c-9,10.36-6.57,25.51,5.2,31.49l5.3,2.68,53,.29,33.55-36.28c13.41-14.49,19.19-33.59,15.88-51.76l-1-5.64C3641.19,284.63,3629.51,275.4,3615.58,275.28Z" class="colorfb6d71 svgShape"></path><path fill="#f4a969" d="M3591.12,375.22l-7.21,6.07-51-34.81c-3.17-2.17-3.26-6.69-.19-9.38L3594,283.47l-.15,12.35a31.81,31.81,0,0,1-12.64,24.48l-28,21.86Z" class="colorf4a969 svgShape"></path><path fill="#f4a969" d="M3607,382.53h0a11.28,11.28,0,0,1-13.58,3.29l-9.51-4.53,7.21-6.07,15.33-6.57.19.2A10.4,10.4,0,0,1,3607,382.53Z" class="colorf4a969 svgShape"></path><path fill="#fb6d71" d="M3633.52,289.11c1.72-2.85,2.25-7.71,2.45-12.35.3-6.51-4.61-10.52-12.23-12.06-3.52-.72-21.74-4.79-28.1-2.85-7.18,2.19-13.76,8.13-18.32,14-7.55,9.68,7.77,5.45,13.91,6.53,7.3,1.28,13.23,6.09,21.08,7C3617.79,290,3630.23,290.28,3633.52,289.11Z" class="colorfb6d71 svgShape"></path><path fill="#f3d5ae" d="M3590,371c-3.32,1.22-5.55,4.25-8.87,5.44-4.19,1.49-9.57.94-14.1.77-17.22-.63-34.45-5.69-42.45-21.24-9.08-17.64,10.45-34.65,23.52-45.4,8.64-7.11,16.68-15.3,26.5-20.67,5.15-2.81,12.89-9.25,19.08-6.87,11.92,4.59,6.17,23.07.53,30.27-9.15,11.67-23.56,19.7-33,30.94C3571.38,352.11,3581.51,360.75,3590,371Z" class="colorf3d5ae svgShape"></path><path fill="#41435c" d="M3597.54,557.2l-23.45,0c.3-17.75,2.67-35.31,9.56-59.62a35.31,35.31,0,0,0-1.9-25l-39.66-81.65,53,.29,14.63,76a93,93,0,0,1-.64,37.67Z" class="color41435c svgShape"></path><path fill="#41435c" d="M3529.06,513.39l-28,39.17-22.4-11.08c6.86-14.53,13.33-25.18,21.44-33.32A44.5,44.5,0,0,0,3512.64,476l-.57-27.33c-.46-22.7,11-44.55,30-57.8l53,.29-12.75,31.08a16.21,16.21,0,0,1-12.3,9.75,27.39,27.39,0,0,0-21.61,19.44L3537,496.3A51.33,51.33,0,0,1,3529.06,513.39Z" class="color41435c svgShape"></path><path fill="#f4a969" d="M3597.54 557.2l-8.3 37.53-13.63 1.73c-1-14.76-1.74-27.08-1.52-39.3zM3477.76 585.11l-16.72-2c6.76-16.9 12.3-30.41 17.6-41.62l22.4 11.08z" class="colorf4a969 svgShape"></path><path fill="#60806d" d="M3459 618.67l-9.37-21.62a9.75 9.75 0 013.41-11.41l10.4-7.68 13.82 6.25 2.86 47.6c.15 2.61-2.45 4.7-4.66 3.72h0A32.32 32.32 0 013459 618.67zM3573.42 616l2.88-21.9 13.6-1.73 32.58 15.85c2.51 1.21 2.74 4.93.41 6.69h0c-11 8.32-24.94 10.5-37.19 5.8z" class="color60806d svgShape"></path><path fill="#41435c" d="M529.23,1834.56a18.63,18.63,0,1,1,18.63,18.62A18.63,18.63,0,0,1,529.23,1834.56Z" class="color41435c svgShape"></path><path fill="#41435c" d="M542.75,1839.78a4.75,4.75,0,0,1-4-2.18L436,1677.74a4.77,4.77,0,1,1,8-5.17l102.78,159.86a4.76,4.76,0,0,1-1.43,6.59A4.67,4.67,0,0,1,542.75,1839.78Z" class="color41435c svgShape"></path><path fill="#41435c" d="M396.87 1836.16a4.77 4.77 0 01-4-7.36l130.58-202.44a49.9 49.9 0 0142.09-22.94 4.78 4.78 0 010 9.55 40.36 40.36 0 00-34.07 18.56L400.88 1834A4.75 4.75 0 01396.87 1836.16zM613.57 1488.8a23.69 23.69 0 11-7.74-45.88 33.05 33.05 0 0015.39-3.64 24.63 24.63 0 016.75-2.19 24.22 24.22 0 0123.07 9.12 36.74 36.74 0 0016.11 12.38l.6.21a32.73 32.73 0 0018.7 1.36c14.22-3.33 29.59 6.88 29.78 24.06a27.15 27.15 0 002.06 10.47l1.22 2.84a24.43 24.43 0 0010.55 12 24.32 24.32 0 0112.52 19.16 23.35 23.35 0 01-10.38 22q-1.05.7-2.13 1.29c-11.89 6.43-26.72-.29-30.79-13.18h0a22.06 22.06 0 00-20.75-15.43l-8.86-.12a14.66 14.66 0 01-13.88-10.62h0a14.65 14.65 0 00-20.48-9.15l-10.49 5.1z" class="color41435c svgShape"></path><path fill="#7b5150" d="M773.59,1828.61l19.8-8.18L735.84,1753l-9.07-91.72a16.74,16.74,0,0,0-24.87-12.94L679.32,1661l17.53,74a93.86,93.86,0,0,0,27,46.72Z" class="color7b5150 svgShape"></path><polygon fill="#7b5150" points="580.06 1827.74 598.54 1838.59 640.69 1755.06 687.14 1668.68 639.86 1648.14 613.5 1734.9 580.06 1827.74" class="color7b5150 svgShape"></polygon><path fill="#fb6d71" d="M643.81,1777.38c-5.13,8.83-30.81,51-35.37,59-7.08,12.42-7.54,21.13-22.33,15.12-12.27-5-17.3-7.69-36.09-10-9.76-1.18-7-15.12-.34-14.77s19,1.3,24-2.74c6-4.8,22.25-44.52,27.51-56.37Z" class="colorfb6d71 svgShape"></path><path fill="#ecc35e" d="M543.17 1651.76h37.58V1667a50 50 0 01-50 50H447.14a65.2 65.2 0 01-65.21-65.2zM447.14 1586.56h22.34l.65 1.57a166.16 166.16 0 0112.65 63.63H381.93A65.2 65.2 0 01447.14 1586.56z" class="colorecc35e svgShape"></path><path fill="#ff9e37" d="M705.47,1587.35,682.68,1538a52.72,52.72,0,0,0-43.23-30.41A21.84,21.84,0,0,0,615.8,1527l-2.46,24.79a93.94,93.94,0,0,0,7.78,47.7l.56,1.24a104.44,104.44,0,0,1,8.66,53h0a339.77,339.77,0,0,1-7.12,44.85l-3.87,17,66.21,18.93a40.78,40.78,0,0,0,46.59-18.93l-3-43.75a214.27,214.27,0,0,0-6.43-39.74C717.59,1612.93,711.89,1601.23,705.47,1587.35Z" class="colorff9e37 svgShape"></path><path fill="#f4a969" d="M650.29,1520.73l-.12.33a9.47,9.47,0,0,1-16.74,2.14l-2.94-4.33a27.83,27.83,0,0,0-23-12.18h0a21.27,21.27,0,0,1-20.94-17.54l-1.8-10.15a25.31,25.31,0,0,1,24.92-29.74h0A25.31,25.31,0,0,1,635,1474.57v9.82a35.87,35.87,0,0,0,4.73,17.81Z" class="colorf4a969 svgShape"></path><path fill="#41435c" d="M589.33 1457.48l47.39 34 5.16-7.18a22.58 22.58 0 00-5.17-31.52l-3.53-2.54a31.42 31.42 0 00-43.85 7.19zM452.54 1835.13a4.77 4.77 0 01-4-7.36L587.06 1613H565.53a4.78 4.78 0 010-9.55h30.29a4.77 4.77 0 014 7.36L456.55 1832.94A4.75 4.75 0 01452.54 1835.13z" class="color41435c svgShape"></path><path fill="#41435c" d="M596.88,1838.75a4.79,4.79,0,0,1-4-2.18L491,1677.74a4.77,4.77,0,1,1,8-5.17L600.88,1831.4a4.76,4.76,0,0,1-4,7.35Z" class="color41435c svgShape"></path><path fill="#41435c" d="M581.51 1834.56a18.63 18.63 0 1118.63 18.62A18.63 18.63 0 01581.51 1834.56zM445.17 1834.56a18.63 18.63 0 1118.62 18.62A18.63 18.63 0 01445.17 1834.56zM389 1834.56a18.63 18.63 0 1118.62 18.62A18.62 18.62 0 01389 1834.56z" class="color41435c svgShape"></path><path fill="#f4a969" d="M569.61,1598h0a4.29,4.29,0,0,0,3.54,6.77l28.05-.33,5.12-13.82-1.37-.75A27.31,27.31,0,0,0,569.61,1598Z" class="colorf4a969 svgShape"></path><path fill="#ecc35e" d="M664.29,1595.83l-6.07-39.6A10.12,10.12,0,0,1,672,1545.31l2.49,1a30.12,30.12,0,0,1,18.59,24.5l4,35.55a26.43,26.43,0,0,1-29.06,29.27L604,1628.82l-1.27-39.73Z" class="colorecc35e svgShape"></path><path fill="#fb6d71" d="M615.06 1535.78c13.16-13.69 50.69-9.22 64.53 2.57 8.45 7.2 13.51 16.45 25.14 19.8 12.22 3.52 23.72-2 36-1.58 24.58.73 24.78 23.27 36.11 38.63 4.91 6.66 2.8 5.92 12.29 2.48 6.75-2.45 14.82-5.45 19.85-11.72-9.45-21.08-11.06-42.74-32.82-57.56-16.42-11.19-33.29-9.71-51.87-6.72-20.57 3.32-34.79-5.84-52.93-14.91s-47.85-10.24-65.49-.55zM796.63 1823.54c-8.56-15.18-17-33.87-32.67-56.55l-44.29 19.91c8 8.25 17.32 15.71 25.89 23.41 5.52 5 12.91 9.21 17.2 15.41 3.74 5.42 3.66 9.92 2.22 14.57l-7.13 9.67a11.83 11.83 0 00-.79 12.84l36.81-20.71C800.7 1838.26 800.4 1830.22 796.63 1823.54z" class="colorfb6d71 svgShape"></path><path fill="none" stroke="#fb6d71" stroke-linecap="round" stroke-miterlimit="10" stroke-width="6.07" d="M680.44,1290.61l3.74,1a20.94,20.94,0,0,1,12.92,10.18h0" class="colorStrokefb6d71 svgStroke"></path><path fill="#7b5150" d="M628,1243.8h0A28.28,28.28,0,0,1,651.89,1257h0a21.09,21.09,0,0,0,17.83,9.82H710a4.62,4.62,0,0,1,4,7h0a46.71,46.71,0,0,1-40.26,23h-2a30.46,30.46,0,0,1-29-21.2l-2.51-7.86a12.86,12.86,0,0,0-12.25-9h0a7.48,7.48,0,0,1-6.37-3.54h0A7.49,7.49,0,0,1,628,1243.8Z" class="color7b5150 svgShape"></path><path fill="none" stroke="#fb6d71" stroke-linecap="round" stroke-miterlimit="10" stroke-width="6.07" d="M670.92,1293h0a14.52,14.52,0,0,1-9.38,8.55l-.86.26" class="colorStrokefb6d71 svgStroke"></path><path fill="#60806d" d="M601.71,1186.73h0a43.67,43.67,0,0,0,53.86,19.61l12.48-4.79a6,6,0,0,0,0-11.22L590,1160.86a5.42,5.42,0,0,0-6.23,1.79h0a5.43,5.43,0,0,0,1.62,8l1.14.65A40.21,40.21,0,0,1,601.71,1186.73Z" class="color60806d svgShape"></path><path fill="#41435c" d="M621.66,1194.5l3.6.87a16.8,16.8,0,0,0,20.3-12.34l7.54-30.94h0a32.23,32.23,0,0,0-38.93,23.67l-1.11,4.58A11.72,11.72,0,0,0,621.66,1194.5Z" class="color41435c svgShape"></path><line x1="631.69" x2="641.64" y1="1203.66" y2="1212.58" fill="none" stroke="#fb6d71" stroke-linecap="round" stroke-miterlimit="10" stroke-width="6.07" class="colorStrokefb6d71 svgStroke"></line><path fill="#41435c" d="M1299.94,869.3h18.86V848.56a5.44,5.44,0,0,0-5.44-5.44h-4.22a13.13,13.13,0,0,0-12.33,17.66Z" class="color41435c svgShape"></path><polygon fill="#41435c" points="1222.69 1301.8 1240.28 1301.8 1312.18 1089.2 1269.41 1081.97 1222.69 1301.8" class="color41435c svgShape"></polygon><path fill="#41435c" d="M1213.52 1290.39l9.4-2.26a14.06 14.06 0 0117.35 13.67h-37.5a2.59 2.59 0 01-1.83-4.41A26.71 26.71 0 011213.52 1290.39zM1197.34 1261.45H1182.6l-11.13-105.7a24.94 24.94 0 017.64-20.7l61.16-58 33.11-8.79 14 32.59L1194 1157.48h0a256.62 256.62 0 015.45 81.58z" class="color41435c svgShape"></path><path fill="#7b5150" d="M869.63,1322c-.13-8.3-6.57-21-7.77-34.28-.62-6.85,3.58-11.24,10-12.7l8.72-3a4.89,4.89,0,0,0,1.46-8.44l-12.5-10.09a21.32,21.32,0,0,0-15.2-4.64l-11.07,1a20,20,0,0,1-20.17-12.94l15.81-9.35a11.82,11.82,0,0,1,9.15-11.06l6.06-1.27-5.85-21.66a19.24,19.24,0,0,1,16.43,9.52l9.9,16.52,3.7,2a184.87,184.87,0,0,0,86.74,21.7h30.5c12.3-5.3,17.25-20.83,10.48-32.85h0a7.54,7.54,0,0,1,7.77-11.14l3.11.5a25.16,25.16,0,0,1,20.43,18.76c3.62,14.93-6.12,29.51-20.41,31.29l-14.23,1.77s36.77,49.68,49.7,65.71c4.07,5,11.73,12.36-2.79,12.36,0,0-7.57-15.74-21.92-21.12a74.83,74.83,0,0,1-23-14.12c6.19,9.65,11.49,19.74,13.26,25.41,2.05,6.55-.55,10.36-7.17,10.36,0,0-7.74-21.34-21-29.23a68.91,68.91,0,0,1-20.19-18.06s-27.27,4.71-35.74,4.71c-12,0-10.54,4.27-5.18,12.76,5.58,8.83,13,24.51,13,24.51.9,6.29-5.8,7.66-11.86,7.66-.56-18.62-14.15-26.94-21.49-44.33-14.34-.2-30.29-4.78-34.27,1.2l3.17,17.39a14.13,14.13,0,0,1-7.56,15.29Z" class="color7b5150 svgShape"></path><path fill="#41435c" d="M1182.6,1261.45h14.74v19h0c-13,0-22.89,3.5-32.8,9.29a2.56,2.56,0,0,1-3.81-2.75,24.37,24.37,0,0,1,7.45-12.63Z" class="color41435c svgShape"></path><polygon fill="#60806d" points="1288.38 962.73 1167.2 1035.7 1158.93 1022.25 1285.28 921.35 1288.38 962.73" class="color60806d svgShape"></polygon><rect width="354.47" height="6.6" x="831.52" y="1141.24" fill="#fb6d71" transform="rotate(-38.58 1008.842 1144.586)" class="colorfb6d71 svgShape"></rect><path fill="#f4a969" d="M1146.92,1056.15h0a17.8,17.8,0,0,0,16.51-11.13l3.77-9.32-8.27-13.45-29.44,21.2,1.67,3.18A17.82,17.82,0,0,0,1146.92,1056.15Z" class="colorf4a969 svgShape"></path><path fill="#ecc35e" d="M1240.27,1077l71.91,12.16L1355,973a37.51,37.51,0,0,0-26.6-49.48l-22.48-5.3A28.15,28.15,0,0,0,1273.79,934l-1,2.25a327.65,327.65,0,0,0-27,96Z" class="colorecc35e svgShape"></path><path fill="#f4a969" d="M1321.12,935.84h0a8.79,8.79,0,0,0,10.47-6.71l7.52-34.36a17.59,17.59,0,0,0-13.43-20.94h0l-11.27,51.54A8.79,8.79,0,0,0,1321.12,935.84Z" class="colorf4a969 svgShape"></path><path fill="#f4a969" d="M1318.8,911.16h0a21.11,21.11,0,0,1-21.11-21.11V883.5a21.18,21.18,0,0,1,.35-3.81l1.9-10.39A21.11,21.11,0,0,1,1320.7,852h0a19.2,19.2,0,0,1,19.2,19.2v18.85A21.11,21.11,0,0,1,1318.8,911.16Z" class="colorf4a969 svgShape"></path><path fill="#41435c" d="M1339.18,893.87h0l7.5-8.73a21.61,21.61,0,0,0-10.3-34.82l-20.89-6.14V866A28.29,28.29,0,0,0,1339.18,893.87Z" class="color41435c svgShape"></path><path fill="#ff9e37" d="M1246.28,1028.5l81.67,17.86,16.87-45.82-88.62-19.38A326.57,326.57,0,0,0,1246.28,1028.5Z" class="colorff9e37 svgShape"></path><path fill="#60806d" d="M1322.38,961.75,1305,1018.07a23,23,0,0,0,3.73,20.78h0a11.71,11.71,0,0,0,20.13-2.7l28-68.7a17.54,17.54,0,0,0-10.68-23.26h0a12.7,12.7,0,0,0-12.67,12.7v5.26Z" class="color60806d svgShape"></path><path fill="#ecc35e" d="M1303.61,905.1a86.76,86.76,0,0,0-4.89,21.15c-.39,5.91,4.71,6.72,9.8,9.31,6.61,3.37,21.69,6.84,26.88-.78,2-1.49,4-10.15,5.36-16.86a6.86,6.86,0,0,0-5.72-8.1Z" class="colorecc35e svgShape"></path><path fill="none" stroke="#41435c" stroke-linecap="round" stroke-linejoin="round" stroke-width="8.92" d="M1393.28,723.4l-72.27,236a14.63,14.63,0,0,1-18.28,9.71h0a14.63,14.63,0,0,1-9.71-18.28l2.25-7.35" class="colorStroke41435c svgStroke"></path><path fill="#fb6d71" d="M1388.14,740.16A153.38,153.38,0,0,1,1490.3,843.07a16.7,16.7,0,0,1-11.41,20.7l-.47.14a32.62,32.62,0,0,1-33.78-9.93h0a32.65,32.65,0,0,0-33.07-10.12l-.51.13A32.62,32.62,0,0,1,1378,833.87l-.35-.4a32.61,32.61,0,0,0-33.06-10.12l-.51.13A32.62,32.62,0,0,1,1311,813.35l-.35-.39a32.59,32.59,0,0,0-33.06-10.12,32.71,32.71,0,0,1-19.09-.68c-5.18-1.79-9.86-5.38-13.71-9.21a16.74,16.74,0,0,1,1.09-24.74A153.39,153.39,0,0,1,1388.14,740.16Z" class="colorfb6d71 svgShape"></path><path fill="#f4a969" d="M1324,945.14h0a16,16,0,0,1,14.58,14.35l.21,2.13a9.26,9.26,0,0,1-11.84,9.8h0L1316.08,964c-7.32-5-5.48-16.76,3.2-18.57A16.57,16.57,0,0,1,1324,945.14Z" class="colorf4a969 svgShape"></path><polygon fill="#41435c" points="375.24 2601.8 375.24 2585.38 391.67 2585.38 375.24 2601.8" class="color41435c svgShape"></polygon><polygon fill="#41435c" points="512.72 2601.8 512.72 2585.38 496.29 2585.38 512.72 2601.8" class="color41435c svgShape"></polygon><path fill="#41435c" d="M384.82 2601.8a9.58 9.58 0 10-9.58 9.58A9.57 9.57 0 00384.82 2601.8zM522.29 2601.8a9.58 9.58 0 10-9.57 9.58A9.57 9.57 0 00522.29 2601.8zM289.83 2588.16l-15.91-12.69 60.92-97.29 20.3-110h60.5l-36.32 97.35a163.82 163.82 0 01-27.06 46.9z" class="color41435c svgShape"></path><path fill="#41435c" d="M456.14,2559.4,435,2562l28.67-93.09-58.77-100.68h51.26l29.53,68.2a64.27,64.27,0,0,1,.48,49.93Z" class="color41435c svgShape"></path><path fill="#f4a969" d="M522.86,2387.12h0a4.27,4.27,0,0,1-7.6-.14l-12.17-25.1,10-10.69,1.27.89A27.14,27.14,0,0,1,522.86,2387.12Z" class="colorf4a969 svgShape"></path><path fill="#7b5150" d="M475.87,2300.9l37.24,50.29-10,10.69-44-47a10.93,10.93,0,0,1,6.46-18.3h0A10.93,10.93,0,0,1,475.87,2300.9Z" class="color7b5150 svgShape"></path><path fill="#f4a969" d="M293.57 2380h0a4.27 4.27 0 01-2.58-7.15l19.1-20.32 13.57 5.54-.38 1.51A27.14 27.14 0 01293.57 2380zM463.65 2229.44L470 2247.2l13.33-19.61a27.69 27.69 0 0122.89-12.11h0A21.13 21.13 0 00527 2198l1.8-10.1a25.17 25.17 0 00-24.78-29.57h0a25.17 25.17 0 00-25.17 25.17v9.77a35.67 35.67 0 01-4.7 17.7z" class="colorf4a969 svgShape"></path><path fill="#7b5150" d="M484.67,2431.11l-2.41-15a480.65,480.65,0,0,1-6.13-76.52V2208.28a117.11,117.11,0,0,0-95.28,80.09l-49,152h0a144.44,144.44,0,0,0,127.48,2.55Z" class="color7b5150 svgShape"></path><path fill="#ff9e37" d="M511,2172.28l6.32-.56a24,24,0,0,0,21.88-23.89v-1.9a5,5,0,0,0-7.67-4.17h0a56.06,56.06,0,0,1-30.46,9h0a22.15,22.15,0,0,0-22.15,22.15v20.41H493a9.37,9.37,0,0,0,9.29-10.53h0A9.37,9.37,0,0,1,511,2172.28Z" class="colorff9e37 svgShape"></path><path fill="#7b5150" d="M310.09,2352.54,331,2309.61a114.14,114.14,0,0,1,49.92-51.24l47.19-24.55a14.4,14.4,0,0,1,19.68,6.67h0a14.39,14.39,0,0,1-6.57,19l-80.38,40.41-37.2,58.21Z" class="color7b5150 svgShape"></path><path fill="#60806d" d="M487.13 2581H428.75l6.23-19 21.16-2.56 24.05 10.83a11.79 11.79 0 016.94 10.74zM280.9 2624.12h19.43a3.76 3.76 0 002-6.93l-4.61-2.93a20.91 20.91 0 01-7.91-26.1h0l-15.91-12.69h-2a13.87 13.87 0 00-13.87 13.87h0a34.73 34.73 0 0013.43 27.45z" class="color60806d svgShape"></path><path fill="#fb6d71" d="M535.36,2588.16H388.21a175.17,175.17,0,0,1-45.16-5.92L327.22,2578v-7.19l16.47,4.35a175.23,175.23,0,0,0,44.7,5.8h147Z" class="colorfb6d71 svgShape"></path><path fill="#ecc35e" d="M446.87,2227.91l28.31,23.23,29.94-35.35-14.51-8.29a38.49,38.49,0,0,0-43.83,3.93h0A10.71,10.71,0,0,0,446.87,2227.91Z" class="colorecc35e svgShape"></path><path fill="#ecc35e" d="M488.93,2231.17c0,23.07-4.9,46.6-10.8,61.2-14.72,36.41-58.58,30.76-72.65,61.28L385,2330.07c17.53-23.3,60.74-23.64,73.17-44.9s10-55.19,10-55.19Z" class="colorecc35e svgShape"></path><path fill="#95b9b4" d="M2282,2395h-81.67a68.26,68.26,0,0,0-46.29,18.11h0a68.26,68.26,0,0,1-46.3,18.1H1937.37a82.33,82.33,0,0,0-60.51,26.49h0c-11.4,12.35-2.64,32.34,14.16,32.34h54.79a23.39,23.39,0,0,1,23.39,23.38h0a23.38,23.38,0,0,0,23.38,23.39h235.85a9.22,9.22,0,0,0,5.47-16.64l-12.83-9.44c-8.91-6.56-4.27-20.69,6.79-20.69h76.78a39.78,39.78,0,0,0,37-54.28h0A64.16,64.16,0,0,0,2282,2395Z" class="color95b9b4 svgShape"></path><path fill="#41435c" d="M2014.45,2299.87c3.45-7.81,7.31-16.22,9.52-24.5.62-2.33,1-4.76,1.41-7.08.93-5,2.73-7-2.85-7.26-4.26-.18-13.06-1.09-16.77,1.41-4.59,3.08-3.12,11.4-2.27,15.73C2004.43,2283,2006.49,2298.24,2014.45,2299.87Z" class="color41435c svgShape"></path><path fill="#f4a969" d="M2051.05,2261.1h0a10.57,10.57,0,0,1,12-12.51l3.3.53a3.3,3.3,0,0,1,2.25,5.05l-5.58,8.69a4.88,4.88,0,0,1-6.65,1.53Z" class="colorf4a969 svgShape"></path><path fill="#41435c" d="M1998.62,2469.43l-10.56-1.75L1996,2435a52.56,52.56,0,0,0-.25-25.72l-8.47-32.36,24.31-12.78,8.8,47.55a33.17,33.17,0,0,1-3.25,20.81Z" class="color41435c svgShape"></path><path fill="#60806d" d="M2051,2259l-9.33,17.28a25.79,25.79,0,0,1-13.89,12l-1.79.65-21.45,7.78a9.45,9.45,0,0,0-5.57,12.31c1.9,5,8,7.17,12.93,5l23.32-6.88a32.13,32.13,0,0,0,18.22-13.89l15.59-25.16Z" class="color60806d svgShape"></path><path fill="#f4a969" d="M1993.21,2293.75l8.45,11.86,5.78-17.38a21.36,21.36,0,0,1,14.45-13.81h0a16.33,16.33,0,0,0,11.79-17.34l-.79-7.88a19.44,19.44,0,0,0-24.64-16.75h0a19.43,19.43,0,0,0-13.39,24l2.05,7.25a27.6,27.6,0,0,1,.24,14.15Z" class="colorf4a969 svgShape"></path><path fill="#41435c" d="M2042.12 2447.48h0l-29.69-36.27L1985.26 2400a21.77 21.77 0 01-13.18-23.69l1.65-10L2017 2388a33.06 33.06 0 0114.64 15.15l13.56 27.41A14.51 14.51 0 012042.12 2447.48zM2038.5 2231.45h0a22.63 22.63 0 00-27.66-16.08l-6.95 1.83a11.14 11.14 0 00-7.92 13.61h0a10.77 10.77 0 00-7.54 15.19l8.48 17.7 12.51-4.89a5.87 5.87 0 003.55-7h0a5.89 5.89 0 014.19-7.2l16.15-4.27A7.28 7.28 0 002038.5 2231.45z" class="color41435c svgShape"></path><path fill="#f4a969" d="M1935.3,2249.61h0a2.65,2.65,0,0,1,4.69.51l6.1,16.18-6.78,6-.74-.62A16.82,16.82,0,0,1,1935.3,2249.61Z" class="colorf4a969 svgShape"></path><path fill="#60806d" d="M1989.85,2393.3l12.53-5.56,24.89-8.29-3-45.26-3.77-33.88a13.65,13.65,0,0,0-15.14-12l-15.19,1.77a13.65,13.65,0,0,0-11.84,11.11l-13.25,72.65A17.84,17.84,0,0,0,1989.85,2393.3Z" class="color60806d svgShape"></path><path fill="#60806d" d="M1943.7 2294.33L1928.51 2276l17.87-11.49 9.78 13.59a41.88 41.88 0 0023 16l14.5 3.94a9.43 9.43 0 11-3.67 18.5l-17.26-4.07A53.63 53.63 0 011943.7 2294.33zM2016.62 2292.43c-2.55-2.74-8-9.11-9.91-12.41-2.7-4.66-4.37-10-5.88-15.15a133.18 133.18 0 01-4.79-30.09c-.38-6.91-.63-11.55 5.37-16.86-2.47.51-5.09.28-7.61.86a39.68 39.68 0 00-15.28 7.23c-11.16 8.95-17.74 24.35-12.81 38.35 4 11.38 13.93 24.61 26.29 27.24a47.79 47.79 0 0016.7.23C2010.36 2291.54 2014.11 2292.57 2016.62 2292.43z" class="color60806d svgShape"></path><path fill="#ecc35e" d="M2056.64 2442.17l-9.23-.93-3.39-28.55-23.7 8.49c.12.55 9 18.57 9 18.71a47.6 47.6 0 006.22 9.91 5.87 5.87 0 007.56 3l17.76-6.55A4.91 4.91 0 002056.64 2442.17zM2014.9 2446.49c-8.37-2.1-16.5-4.85-24.49-7.71-2.68 10.85-6.2 24.46-4.52 35.28l.46.1a5.9 5.9 0 004.17 4.07l18.17 5.3a4.9 4.9 0 00-1-5.84l-4.42-4c.35-.87.65-2.05 1.23-3.75C2007.19 2462 2011.16 2454.14 2014.9 2446.49z" class="colorecc35e svgShape"></path><path fill="#41435c" d="M2033.6,2530.81l5.9-11.92,6.53,2.34,3.39-28.55,9.23-.93a4.92,4.92,0,0,0,4.28-4.11l-17.77-6.55a5.88,5.88,0,0,0-7.56,3,47.09,47.09,0,0,0-6.22,9.91c-.07.14-8.93,18.16-9.05,18.7l.21.08L2015,2522a176,176,0,0,1-9-20.56c-.57-1.7-.87-2.88-1.22-3.74l4.42-4a4.92,4.92,0,0,0,1-5.85l-18.17,5.3a5.9,5.9,0,0,0-4.17,4.07c-.15,0-.31.08-.46.1-1.65,10.65,1.72,24,4.38,34.75l-4.51,1.86a22.33,22.33,0,0,0-2.71,1.4,23.22,23.22,0,0,0,8,1.51h37.14A34.54,34.54,0,0,0,2033.6,2530.81Z" class="color41435c svgShape"></path><path fill="#95b9b4" d="M2065.74 2414.9c1.14-7.46 1.5-17 6.82-23 4-4.49 10.08-7.78 12.05-.24C2087 2400.65 2071.46 2414 2065.74 2414.9zM2291 2382.72c1.14-7.46 1.51-17 6.82-23 4-4.5 10.08-7.78 12.05-.24C2312.22 2368.47 2296.73 2381.77 2291 2382.72zM1963.16 2421.69c-5.49-1.69-31.51-18-18.89-24.18S1961.44 2415.66 1963.16 2421.69zM2184.41 2390.51c-5.49-1.69-31.51-18-18.9-24.17S2182.68 2384.49 2184.41 2390.51zM1920.92 2405.09c-4.92.21-10.71 2.34-6.82 7.77s19.94 2.31 25.6 3.39C1935.24 2409.57 1928.57 2404.77 1920.92 2405.09zM2293.34 2341.45c-.69-4.88-3.37-10.44-8.39-6s-.38 20.08-.91 25.82C2290.27 2356.14 2294.4 2349 2293.34 2341.45z" class="color95b9b4 svgShape"></path><path fill="#fff4e2" d="M1971 2474c-5.92-.47-16.62-5.19-16.11-12.47.3-4.28 2.68-4.9 6.79-3.39C1968.79 2460.76 1969 2470.61 1971 2474zM2297.34 2432.28c5.82 1.15 17.39-.52 18.87-7.67.86-4.2-1.26-5.44-5.62-5.09C2303 2420.13 2300.13 2429.56 2297.34 2432.28zM2023.79 2460.44c5.83 1.14 17.4-.52 18.87-7.67.87-4.2-1.25-5.44-5.62-5.09C2029.45 2448.29 2026.59 2457.72 2023.79 2460.44zM2182.69 2413.06c0-5.94-3.78-17-11.08-17.09-4.29-.06-5.11 2.26-3.94 6.48C2169.7 2409.79 2179.5 2410.83 2182.69 2413.06z" class="colorfff4e2 svgShape"></path><path fill="#ecc35e" d="M2284.73,2275.39l-23.59-3.17a44.59,44.59,0,0,1-37.3-33.37l-3.37-13.45h0a72.62,72.62,0,0,1,55.83,26.18l12.53,15.06A5.33,5.33,0,0,1,2284.73,2275.39Z" class="colorecc35e svgShape"></path><path fill="#fb6d71" d="M2263.48,2234.1c3.5,4.67,2.81,26.6.23,33.69-1,2.73-2.85,4.34-5.13,6.08-3.46,2.65-7.3,2.75-11.48,2.83-6.39.13-12.9-.89-16.43-6.89-4.34-7.38,1.79-14.29,6.6-19.42a63.73,63.73,0,0,1,20.14-14.15A29.94,29.94,0,0,1,2263.48,2234.1Z" class="colorfb6d71 svgShape"></path><path fill="#41435c" d="M2208.65,2405.7l-15.76-1.58.3-10.52a81.09,81.09,0,0,1,3.5-21.28l9.59-31.52H2232l-2.54,20.52L2213,2389.08Z" class="color41435c svgShape"></path><path fill="#fb6d71" d="M2204.05,2431l6.64-25.92-20.74-2.46-.5,24.48a13.65,13.65,0,0,1-5.1,10.37l-1.86,1.49a4.56,4.56,0,0,0-1.53,5.32l22-6.49c2.76-.81,3.79-3.7,2-5.69Z" class="colorfb6d71 svgShape"></path><path fill="#41435c" d="M2262.46,2407.13l-10.11-7.27A31,31,0,0,1,2240.6,2384l-13.41-43.23h25.7l9.87,42.6,12.38,14.09Z" class="color41435c svgShape"></path><path fill="#fb6d71" d="M2293,2417l-16.81-21.8-18.83,15.56,24.34,17.24-1.89,5.21a4.56,4.56,0,0,0,1.72,5.27l12.74-12.3C2297.2,2423.34,2296.44,2419.07,2293,2417Z" class="colorfb6d71 svgShape"></path><path fill="#ff9e37" d="M2213.58,2262.47a8.84,8.84,0,0,0-9.69,4.36l-10.27,18.72-5.28,9.62-27,10.13,1.64,8.34,28.21-6.15a22.71,22.71,0,0,0,14.44-10.17l5.48-8.78,8-12.79A8.82,8.82,0,0,0,2213.58,2262.47Z" class="colorff9e37 svgShape"></path><path fill="#f4a969" d="M2169,2312.34h0a11.24,11.24,0,0,1-15,8.64l-5.68-2.13,13.1-13.55Z" class="colorf4a969 svgShape"></path><path fill="#ff9e37" d="M2250.12,2292.33s24.89-25.53,25.79-26.2l16.37-36.22-16.18-4.42-8.13,19.08a21.79,21.79,0,0,1-10.39,11l-21.77,10.73Z" class="colorff9e37 svgShape"></path><path fill="#f4a969" d="M2291.26,2211.52h0a2.48,2.48,0,0,1,2.1,3.88l-9.2,13.32-8.26-2,.08-.89A15.76,15.76,0,0,1,2291.26,2211.52Z" class="colorf4a969 svgShape"></path><path fill="#ff9e37" d="M2248,2388.49l-55.31.44,8.53-50.25a389.63,389.63,0,0,0,5.5-61.66l.06-6a9,9,0,0,1,9.08-8.86l18,.27a23.49,23.49,0,0,1,22.67,18.79l15.79,77.25A25.05,25.05,0,0,1,2248,2388.49Z" class="colorff9e37 svgShape"></path><path fill="#41435c" d="M2217.4,2274.12c4.59-3.36,51.55-30.08,46.3-39.78-4.42-8.16-42.25,19.13-46.78,22.84C2211.13,2261.91,2209.24,2273,2217.4,2274.12Z" class="color41435c svgShape"></path><path fill="#f4a969" d="M2217.26,2265.48a20,20,0,0,0-11.77-14.54h0a15.29,15.29,0,0,1-8.89-17.5l1.68-7.22a18.19,18.19,0,0,1,24.86-12.63h0a18.19,18.19,0,0,1,9.58,23.87L2230,2244a25.89,25.89,0,0,0-1.9,13.1Z" class="colorf4a969 svgShape"></path><path fill="#ecc35e" d="M2204.69,2221.22l-1-.42a6.16,6.16,0,0,1-3.59-8h0a19,19,0,0,1,24.68-10.42h0a41,41,0,0,1,21.14,19.46l5.27,10.4-20,11.76-6.77-8.24A49.76,49.76,0,0,0,2204.69,2221.22Z" class="colorecc35e svgShape"></path><path fill="#41435c" d="M2281.52,2447.3a4.59,4.59,0,0,0-1.72,5.28l1.89,5.2L2257.35,2475l4.73,3.9-6.32,4.54a31.34,31.34,0,0,0-27-7.92l-18.53,3.39-6.17-24.1,1-1.1c1.77-2,.74-4.88-2-5.7l-22-6.49a4.56,4.56,0,0,0,1.53,5.32l1.86,1.49a13.67,13.67,0,0,1,5.1,10.37l.41,20.05-3.69,2,9,48.23c.44,2.6.72,5.22,1.1,7.84h32.12a9.22,9.22,0,0,0,5.47-16.64l-12.83-9.44c-8.91-6.56-4.27-20.69,6.79-20.69h45.71l.84-1,1.15,1h1l16.42-21.29c3.45-2.06,4.21-6.34,1.27-9.18Z" class="color41435c svgShape"></path><path fill="#95b9b4" d="M1883.23,1374.86h0a165.68,165.68,0,0,0-141.21-79H1517.87a43.65,43.65,0,0,0-43.65,43.65h0a90.71,90.71,0,0,0,27.06,64.62h0a90.64,90.64,0,0,1,27.07,64.62h0a50.45,50.45,0,0,0,50.45,50.45h92.8a70,70,0,0,0,65.11-44.21h0a70,70,0,0,1,65.11-44.22H1852C1880.64,1430.73,1898.23,1399.3,1883.23,1374.86Z" class="color95b9b4 svgShape"></path><line x1="1564.92" x2="1592.13" y1="1375.46" y2="1375.46" fill="none" stroke="#fff4e2" stroke-linecap="round" stroke-linejoin="round" stroke-width="9.64" class="colorStrokefff4e2 svgStroke"></line><line x1="1521.55" x2="1547.06" y1="1344.85" y2="1344.85" fill="none" stroke="#fff4e2" stroke-linecap="round" stroke-linejoin="round" stroke-width="6.81" class="colorStrokefff4e2 svgStroke"></line><line x1="1613.38" x2="1634.64" y1="1434.13" y2="1434.13" fill="none" stroke="#fff4e2" stroke-linecap="round" stroke-linejoin="round" stroke-width="6.81" class="colorStrokefff4e2 svgStroke"></line><line x1="1707.77" x2="1727.32" y1="1316.79" y2="1316.79" fill="none" stroke="#fff4e2" stroke-linecap="round" stroke-linejoin="round" stroke-width="6.81" class="colorStrokefff4e2 svgStroke"></line><line x1="1730.72" x2="1755.38" y1="1408.62" y2="1408.62" fill="none" stroke="#fff4e2" stroke-linecap="round" stroke-linejoin="round" stroke-width="6.81" class="colorStrokefff4e2 svgStroke"></line><line x1="1806.4" x2="1834.46" y1="1383.11" y2="1383.11" fill="none" stroke="#fff4e2" stroke-linecap="round" stroke-linejoin="round" stroke-width="6.81" class="colorStrokefff4e2 svgStroke"></line><line x1="1786.84" x2="1805.55" y1="1365.26" y2="1365.26" fill="none" stroke="#fff4e2" stroke-linecap="round" stroke-linejoin="round" stroke-width="6.81" class="colorStrokefff4e2 svgStroke"></line><line x1="1656.75" x2="1679.71" y1="1377.16" y2="1377.16" fill="none" stroke="#fff4e2" stroke-linecap="round" stroke-linejoin="round" stroke-width="6.81" class="colorStrokefff4e2 svgStroke"></line><line x1="1597.23" x2="1619.34" y1="1454.54" y2="1454.54" fill="none" stroke="#fff4e2" stroke-linecap="round" stroke-linejoin="round" stroke-width="6.81" class="colorStrokefff4e2 svgStroke"></line><line x1="1556.41" x2="1576.82" y1="1326.14" y2="1326.14" fill="none" stroke="#fff4e2" stroke-linecap="round" stroke-linejoin="round" stroke-width="6.81" class="colorStrokefff4e2 svgStroke"></line><path fill="#95b9b4" d="M3572.65,908h0c12.75-9.43,6.08-29.67-9.78-29.67h-98.09a167.38,167.38,0,0,0-110.23,41.42h0c-11.9,10.41-4.54,30,11.27,30h27.43a303.91,303.91,0,0,1,70.7,8.34h0a304.05,304.05,0,0,0,70.71,8.34h96.11a21.1,21.1,0,0,0,21.1-21.1h0a21.09,21.09,0,0,0-21.1-21.09H3578A9,9,0,0,1,3572.65,908Z" class="color95b9b4 svgShape"></path><line x1="3508.45" x2="3526.31" y1="938.97" y2="938.97" fill="none" stroke="#fff4e2" stroke-linecap="round" stroke-linejoin="round" stroke-width="6.81" class="colorStrokefff4e2 svgStroke"></line><line x1="3459.99" x2="3481.24" y1="905.81" y2="905.81" fill="none" stroke="#fff4e2" stroke-linecap="round" stroke-linejoin="round" stroke-width="6.81" class="colorStrokefff4e2 svgStroke"></line><line x1="3582.43" x2="3603.69" y1="956.82" y2="956.82" fill="none" stroke="#fff4e2" stroke-linecap="round" stroke-linejoin="round" stroke-width="6.81" class="colorStrokefff4e2 svgStroke"></line><line x1="3594.33" x2="3614.74" y1="942.37" y2="942.37" fill="none" stroke="#fff4e2" stroke-linecap="round" stroke-linejoin="round" stroke-width="6.81" class="colorStrokefff4e2 svgStroke"></line><line x1="3395.36" x2="3414.07" y1="926.21" y2="926.21" fill="none" stroke="#fff4e2" stroke-linecap="round" stroke-linejoin="round" stroke-width="6.81" class="colorStrokefff4e2 svgStroke"></line><path fill="#fb6d71" d="M1919.3 689.52h60a6.32 6.32 0 006.32-6.32h0a6.32 6.32 0 00-6.32-6.32h-60a6.32 6.32 0 00-6.32 6.32h0A6.32 6.32 0 001919.3 689.52zM2268.57 523.38s-60.31-9-87.22 8.4C2148.64 553 2246.17 556.7 2268.57 523.38z" class="colorfb6d71 svgShape"></path><path fill="#f4a969" d="M2024.48,441.28c1.49,5.06-1.25,11.48-6.43,12.52-2.33.47-4.73-.15-7-.77-.78-.22-22.56-6-23.15-6.52a3,3,0,0,1-.69-1.82c-1.11-8.3-2.15-13.71,6.61-16.25C2003.7,425.57,2021.26,430.36,2024.48,441.28Z" class="colorf4a969 svgShape"></path><path fill="#7b5150" d="M1921.76,724.52c12.63-89.18,30.68-142.54-2.09-228-11.92-31.09-52.31-52.1-49.59,13.46,1.06,25.44,17.85,62.15,25.43,101.83,6.89,36.1.7,74.48,5.47,113.68Z" class="color7b5150 svgShape"></path><path fill="#41435c" d="M1899.84 706.23c-.12 9.11.26 22.26.56 28.75.26 5.6 36.64 3.41 37.6 3.09 4.18-1.38 3.28-4.91 2.26-5.87-2.61-2.47-9.42-4.36-13-6.94-5-3.61-3-14-3.41-18.93zM1992.7 451.17c-49-13.8-88.4-23.52-114.54-61.36-12.39-17.94-23.54-37.53-3.54-45.63s31.77 11.28 39.52 28c17.32 37.31 52.43 42.4 85.51 55.85z" class="color41435c svgShape"></path><path fill="#f4a969" d="M1868.79,333c.7-7.48,2-16.28.5-21.73-2.15-7.57-13.78-25.87-1-40.32,15.14-17.06,41.31-8.73,48,.61,6.08,8.5,3.74,25.64,1.32,35.34-5.76,23.14-15,10.46-22.48,15.68-5,3.47-3.43,8.65-5.34,16Z" class="colorf4a969 svgShape"></path><path fill="#7b5150" d="M1839.55,721.53c25.69-87.39,51.61-139.14,31.13-225.28-7.45-31.33-45-54.2-51.8,10.68-2.64,25.18,8.88,62.31,10.72,101.89,1.67,36-10.15,73.57-11.07,112.53Z" class="color7b5150 svgShape"></path><path fill="#41435c" d="M1820.19,702.32c-1.45,9-3,22-3.63,28.42-.55,5.54,36.33,5.29,37.34,5,4.41-1.15,4-4.69,3.12-5.69-2.26-2.58-8.82-4.8-12.06-7.53-4.52-3.83-1-13.94-.67-18.87Z" class="color41435c svgShape"></path><path fill="#60806d" d="M1933.72,538.1c-7.15-92-12.27-194.31-51.28-201-59.86-10.18-85.75,111-71.43,205Z" class="color60806d svgShape"></path><path fill="#f4a969" d="M2014,451.15c1.61,5-1,11.51-6.13,12.67-2.33.52-4.74-.05-7-.61-.79-.2-22.69-5.43-23.29-6a3,3,0,0,1-.74-1.8c-1.3-8.27-2.46-13.65,6.23-16.4C1992.83,435.93,2010.5,440.31,2014,451.15Z" class="colorf4a969 svgShape"></path><rect width="37.03" height="45" x="1858.96" y="316.86" fill="#60806d" transform="rotate(-167.62 1877.49 339.303)" class="color60806d svgShape"></rect><path fill="#41435c" d="M1857.45,277.18c2.77-9.78,11.26-18.33,21.4-18.94,9.82-16,45.21-15,53.23,1,1.36,2.7,2,6,.56,8.7-3.56,6.88-19,8.36-27.25,7.88.13,3.59,1.13,11.13-.64,12.53-28.25-7.92-26.62,19.66-29.79,19.94C1861.92,309.4,1854.82,286.47,1857.45,277.18Z" class="color41435c svgShape"></path><path fill="#41435c" d="M1916.25,311.45c6.28,9.19,1.72,27.32-17,21.48-14.31-4.47-13.46-34-11.22-48.05,1-6.53,14.39-7.26,12.24-1.55C1895.42,296.24,1883.68,303.63,1916.25,311.45Z" class="color41435c svgShape"></path><path fill="#60806d" d="M1986.27,459.82c-80.78,1.56-97-16.1-110.34-29.71-8.32-8.46-16-19.12-19.75-31.55-6.35-20.86-1.13-50.66,20.36-52.69s22.73,23.19,25.38,41.41c2,13.77,4.17,24.52,16.77,32.4,19.15,12,47.7,13.94,69.29,16.68Z" class="color60806d svgShape"></path><path fill="#f4a969" d="M2124,682.08c1,5.26,6.4,9.8,11.55,8.36,2.32-.65,4.2-2.31,6-3.93.61-.55,17.65-15.73,17.92-16.5a3,3,0,0,0-.21-2c-2.8-8-4.35-13.37-13.42-11.64C2135.56,658.36,2121.9,670.74,2124,682.08Z" class="colorf4a969 svgShape"></path><path fill="#ff9e37" d="M2188.89,570.82a8,8,0,0,0-8.14,11l0,.12c5.2,13,8.79,23.41,3,35.43-8.77,18.27-29.62,31.41-44.77,42.46L2151.78,680c62.46-30.87,66.21-53,69.77-70.4,2.23-10.83,2.86-23.33-.32-35.87Z" class="colorff9e37 svgShape"></path><path fill="#7b5150" d="M2138.18,499.63l-.18,6.87a121.7,121.7,0,0,0,9.74,50.94h0l24.92-10.88c8.36-3.65,12.94-13.11,9.89-21.7Z" class="color7b5150 svgShape"></path><path fill="#f4a969" d="M2206.28,545c-4-6.49-9.11-13.91-10.12-19.55-1.4-7.85,1-29.68-17-37.13-21.35-8.8-41.47,10.42-43.4,21.89-1.76,10.44,8,25,14.51,32.75,15.53,18.5,18.32,2.85,27.44,4.28,6.06.95,7,6.35,12,12.2Z" class="colorf4a969 svgShape"></path><path fill="#41435c" d="M2280.2,682.84l-39,60.35a15.53,15.53,0,0,0-2.2,12.17l17.08,71.06L2235,824.56l-33.22-52.8c-8.11-12.87-8.91-27.89-2.22-41.27l23.87-47.75Z" class="color41435c svgShape"></path><path fill="#41435c" d="M2325.31,699.44,2318.2,731a79.07,79.07,0,0,0,.26,36l14.29,59.47-21.16-1.86-41.32-65.67a24.31,24.31,0,0,1-3.77-15.57l11-103.55,27.91,17.66C2321.23,667.45,2328.88,683.59,2325.31,699.44Z" class="color41435c svgShape"></path><path fill="#ff9e37" d="M2258.19 815.26c3.56 9.67 8 23.64 10 30.54 1.78 6-45 5.11-46.37 4.82-5.8-1.3-6-5.09-5-6.15 2.38-2.73 10.27-5 13.84-7.9 5-4-1.39-14.93-2.77-20.22zM2213.42 703.81l-38-138.32A38 38 0 012189 545.78c36.57-27.31 104.83 42.21 132.84 105.16a29.85 29.85 0 01-15.49 39.33z" class="colorff9e37 svgShape"></path><path fill="#7b5150" d="M2163,512.36c-15.36,9.83-25.91,19.22-32.66,15.11s-8.75-21.83,1.54-32.19a25.58,25.58,0,0,1,27.05-5.55,61.84,61.84,0,0,0,3.71,22.18" class="color7b5150 svgShape"></path><path fill="#7b5150" d="M2212.77,505.46c-19.89-37.28-65.12-36.83-77.53-7.93.88-2.06,19.89,10.2,21.48,11.5,18.31,15,20.74,24.49,26.45,33.81l23-14.46C2213.93,523.53,2217.06,513.5,2212.77,505.46Z" class="color7b5150 svgShape"></path><path fill="#fb6d71" d="M1954.27 424.61L1950.68 401l6.88.22a35.86 35.86 0 0117.61 5.28h0l-.88-5a59.28 59.28 0 012.42-29.85l3-8.43 13.47 8a24.53 24.53 0 0111 14l3.65 12.07L2025.54 382l8 19.38h0A53.8 53.8 0 012007 437.52l-4 2.25-7.88.41a54 54 0 01-40.82-15.57zM2104.18 729l-21.11-11.09 4.25-5.41A35.91 35.91 0 012102 701.44h0l-4.53-2.24a59.21 59.21 0 01-22.61-19.64l-5-7.37 14.39-6.13a24.5 24.5 0 0117.81-.55l11.89 4.22-1.85-23.42 20.36 5.05h0a53.8 53.8 0 0113.42 42.8l-.58 4.59-4.34 6.59A54 54 0 012104.18 729z" class="colorfb6d71 svgShape"></path><path fill="#ecc35e" d="M1994,406l10.38-18.2,4.62,3.9a31.43,31.43,0,0,1,9.26,13.24h0l2.11-3.91a51.92,51.92,0,0,1,17.95-19.25l6.63-4.21,1,2.49a50,50,0,0,1-.15,36.31h0l20.63-.9h0c-5.3,18.55-23.34,31.14-42.42,28.3l-.65-.1-4-.65-5.66-4A47.44,47.44,0,0,1,1994,406Z" class="colorecc35e svgShape"></path><path fill="#ff9e37" d="M2051.36 425.07l1.94-23.76-6.85.69a35.84 35.84 0 00-17.2 6.49h0l.53-5a59.15 59.15 0 00-4.49-29.61l-3.53-8.21-12.88 8.88a24.53 24.53 0 00-10 14.75l-2.8 12.3-18.79-14.09-6.64 19.9h0a53.77 53.77 0 0029 34.24l4.19 2 7.89-.14a54 54 0 0039.64-18.38zM2333 810.88c2.54 10.66 5.54 26.1 6.89 33.74 1.17 6.59-42.05 9.42-43.26 9.19-5.26-1-5.12-5.27-4.18-6.55 2.41-3.27 9.89-6.49 13.42-10 4.95-5-.11-16.79-1-22.66zM2268.57 523.38c5.16 11.25-.72 37.09-13.78 43.62-7.67 3.84-76.77 4.28-75.64-1a22.57 22.57 0 00.43-2.71c1.2-12.5 11.83-22 24.27-23.66C2225.79 536.68 2251.73 530.72 2268.57 523.38z" class="colorff9e37 svgShape"></path><path fill="#f4a969" d="M2140.37,713.35c.5,5.33,5.5,10.33,10.76,9.36,2.37-.44,4.39-1.93,6.31-3.38.66-.5,19-14.11,19.32-14.85a3,3,0,0,0,0-2c-2.08-8.22-3.14-13.7-12.33-12.78C2154,690.75,2139.28,701.88,2140.37,713.35Z" class="colorf4a969 svgShape"></path><path fill="#ecc35e" d="M2169.62,710.39c75.84-30.77,83.88-53.67,90.9-71.67,4.37-11.19,7.24-24.17,5.81-37.26-2.4-22-19.15-47.61-40-41s-11.92,30.67-7.13,48.69c3.63,13.62,5.9,24.5-2.69,36.86-13.06,18.79-38.87,32-57.88,43.16Z" class="colorecc35e svgShape"></path><path fill="#fb6d71" d="M2088.87,844.35h60a6.32,6.32,0,0,0,6.32-6.32h0a6.32,6.32,0,0,0-6.32-6.32h-60a6.32,6.32,0,0,0-6.32,6.32h0A6.32,6.32,0,0,0,2088.87,844.35Z" class="colorfb6d71 svgShape"></path><path fill="#ff9e37" d="M1966.69,723.22h60a6.31,6.31,0,0,0,6.31-6.32h0a6.3,6.3,0,0,0-6.31-6.31h-60a6.31,6.31,0,0,0-6.32,6.31h0A6.32,6.32,0,0,0,1966.69,723.22Z" class="colorff9e37 svgShape"></path><rect width="53.71" height="12.64" x="2063.59" y="862.25" fill="#ff9e37" rx="6.32" class="colorff9e37 svgShape"></rect><path fill="#fb6d71" d="M1916.14,764.3h41.07a6.32,6.32,0,0,0,6.32-6.32h0a6.32,6.32,0,0,0-6.32-6.32h-41.07a6.32,6.32,0,0,0-6.32,6.32h0A6.32,6.32,0,0,0,1916.14,764.3Z" class="colorfb6d71 svgShape"></path><path fill="#ecc35e" d="M1950.57 789.06h31.58a9 9 0 009-9h0a9 9 0 00-9-9h-31.58a9 9 0 00-9 9h0A9 9 0 001950.57 789.06zM2166.48 889.12h31.59a9 9 0 009-9h0a9 9 0 00-9-9h-31.59a9 9 0 00-9 9h0A9 9 0 002166.48 889.12z" class="colorecc35e svgShape"></path><path fill="#41435c" d="M2827.58,1960.62l43.78-73.32a23,23,0,0,0-18-34.65l-76-5.84-9.32,55.68,54.89-15.28a5.66,5.66,0,0,1,6.74,7.65l-25.1,59.66Z" class="color41435c svgShape"></path><path fill="#7b5150" d="M2724.13,1702.34s59.86-8.95,86.58,8.35C2843.18,1731.71,2746.36,1735.43,2724.13,1702.34Z" class="color7b5150 svgShape"></path><path fill="#41435c" d="M2903.06,1806.67l-122.43-21.78,6.92-55.8.11.11c32.12,29.24,74.31,50.55,121.49,61.33l2.13.49Z" class="color41435c svgShape"></path><path fill="#f4a969" d="M2832.16,1709.3a21.6,21.6,0,0,1-5.33,9.36,16.1,16.1,0,0,1-16.69,3.34c-14-5-23-17.86-21.46-28.89l1.33-9.49a22.16,22.16,0,0,1,25.5-18.81c11.75,1.91,19.9,13.82,18.29,25.62-.25,1.83-.48,3.6-.7,5.26a25.88,25.88,0,0,0-.16,5.13A23.06,23.06,0,0,1,2832.16,1709.3Z" class="colorf4a969 svgShape"></path><path fill="#41435c" d="M2797.67,1714.62c-10.07-3.46-13.22-4.25-23.92-10.07,6.88-10.3,11.12-24.13,13.22-28.33,4.25-8.5,9.91-21.25,33.05-12.51,17.23-5.91,22.19,9.44,19.59,21.48-11.57-1-19.79,5.85-28.56,4.25C2794.32,1685.14,2809.63,1699.35,2797.67,1714.62Z" class="color41435c svgShape"></path><path fill="#41435c" d="M2799.08,1671.88c-4.5-5.13-11-15.86-19-14-9.51,2.18-10.2,16.48-.17,18.57C2784.74,1677.43,2795.58,1677,2799.08,1671.88Z" class="color41435c svgShape"></path><path fill="#fb6d71" d="M2724.13,1702.34c-5.12,11.17.71,36.83,13.67,43.31,7.62,3.81,76.21,4.24,75.09-1-2.85-13.22,6.83-16.35,12.79-25.34C2811.67,1723.86,2753.72,1715.25,2724.13,1702.34Z" class="colorfb6d71 svgShape"></path><path fill="#41435c" d="M2834.15 1990l-18.62-2.71a6.08 6.08 0 01-5.15-6.9h0a6.08 6.08 0 016.9-5.15l18.63 2.7a6.11 6.11 0 015.15 6.91h0A6.09 6.09 0 012834.15 1990zM2796.54 1966l-.77 6 55.71 8.1c.48-5.82-4.24-11.73-12.16-15.09a20 20 0 01-8.24-6.07l-2.63-3.5a11 11 0 00-7.22-4.29l-9.81-1.42a11 11 0 00-11.09 5.29A28.37 28.37 0 002796.54 1966z" class="color41435c svgShape"></path><rect width="17.56" height="12.77" x="2926.61" y="1800.78" fill="#41435c" class="color41435c svgShape"></rect><path fill="#f4a969" d="M2917.33,1819.2h0a12.67,12.67,0,0,0,15.7-8.63h0a12.66,12.66,0,0,0-8.62-15.7l-15.26-4.44-2.64,9.06A15.91,15.91,0,0,0,2917.33,1819.2Z" class="colorf4a969 svgShape"></path><path fill="#95b9b4" d="M2926.74 1867.92l-2.63-14.25a27.49 27.49 0 015-21.47l9.08 5.72-2.32 3.08a13.9 13.9 0 00-2.54 10.84l2.64 14.26zM3005.45 2021.93a12.61 12.61 0 10-12.6 12.59A12.6 12.6 0 003005.45 2021.93z" class="color95b9b4 svgShape"></path><path fill="#41435c" d="M2665.17 1942.79a79.15 79.15 0 11-79.23 79.14 79.27 79.27 0 0179.23-79.14m0-9.66a88.81 88.81 0 1088.9 88.8 88.85 88.85 0 00-88.9-88.8zM2992.85 1942.07a79.87 79.87 0 11-80 79.86 80 80 0 0180-79.86m0-8.94a88.81 88.81 0 1088.89 88.8 88.86 88.86 0 00-88.89-88.8z" class="color41435c svgShape"></path><path fill="#fb6d71" d="M2938.55,1903.1c-41.3,4.73-58.8,37.74-74.24,66.88-15.56,29.35-29,54.7-62.2,54.81l-116.28-7.9a2.92,2.92,0,0,1-1.87-5l93.83-94.74-7-11.24-106.19,107.23a9.15,9.15,0,0,0-2,9.79h0a9.15,9.15,0,0,0,7.88,5.77l131,8.9h.44c41.11,0,57.72-31.34,73.79-61.65,15.3-28.89,29.76-56.17,64.33-60.12Z" class="colorfb6d71 svgShape"></path><path fill="#fb6d71" d="M2790.62,1991.15v-12.86c22.28,0,38.41-21.54,55.49-44.35,21.2-28.31,45.28-60.44,86.79-57.92l-.76,12.83c-34.63-2-55.52,25.82-75.72,52.79-18.23,24.34-37.07,49.51-65.8,49.51Z" class="colorfb6d71 svgShape"></path><polygon fill="#fb6d71" points="2936.8 1931.47 2925.02 1867.75 2937.68 1865.41 2949.46 1929.13 2936.8 1931.47 2936.8 1931.47" class="colorfb6d71 svgShape"></polygon><polygon fill="#fb6d71" points="2792.76 2021.09 2763.15 1898.85 2775.67 1895.84 2805.28 2018.08 2792.76 2021.09 2792.76 2021.09" class="colorfb6d71 svgShape"></polygon><path fill="#95b9b4" d="M2828,2010.43a30.22,30.22,0,1,0-9.32,41.68A30.2,30.2,0,0,0,2828,2010.43Z" class="color95b9b4 svgShape"></path><path fill="none" d="M2674.94,2021.93a9.77,9.77,0,1,0-9.77,9.76A9.77,9.77,0,0,0,2674.94,2021.93Z"></path><path fill="#ff9e37" d="M2841.32,2029.46l-11.54-.19a29.26,29.26,0,0,0-32.69-29.55l-111.87,13.19-1.35-11.47,111.87-13.19a40.82,40.82,0,0,1,45.58,41.21Z" class="colorff9e37 svgShape"></path><path fill="#95b9b4" d="M2998.71,2024.89h0a6.35,6.35,0,0,1-2.15-.24,70.43,70.43,0,0,1-48.95-50.87l-12-48.64a6.28,6.28,0,0,1,5.13-7.49,6.43,6.43,0,0,1,7.5,5.15l9.14,49.26a57.53,57.53,0,0,0,37.54,43.8Z" class="color95b9b4 svgShape"></path><path fill="#41435c" d="M2725.53,1832.77c-25.77,23.84-11,65.86,23,69.17l8.14.79a49.39,49.39,0,0,0,44.75-19.92c6.43-8.67,2.44-21.14-7.69-24.88Z" class="color41435c svgShape"></path><path fill="#41435c" d="M2777.13,2065.87l28.15-110.52-42.15-88.19-28.89.58a14.18,14.18,0,0,0-11.72,21.73l45.86,73-11.1,99.49Z" class="color41435c svgShape"></path><path fill="#95b9b4" d="M2960.84,1810a14.78,14.78,0,0,0-12.53-6.89h-4.14a4.07,4.07,0,0,0,0,8.14h4.14a6.59,6.59,0,0,1,5.65,3.11,6.7,6.7,0,0,1,.33,6.6,17.88,17.88,0,0,1-16.07,10.18h-11.73a2.31,2.31,0,0,1-2.09-3.31l1.68-3.56a14.82,14.82,0,0,0-13.4-21.16h-5.27a4.07,4.07,0,1,0,0,8.14h5.27a6.57,6.57,0,0,1,5.64,3.11,6.64,6.64,0,0,1,.41,6.43l-2.34,5a9.47,9.47,0,0,0,8.58,13.53h13.25a26.17,26.17,0,0,0,23.5-15A14.79,14.79,0,0,0,2960.84,1810Z" class="color95b9b4 svgShape"></path><path fill="#41435c" d="M2901,1813.54h-7.19v-12.76H2901a6.38,6.38,0,0,1,6.39,6.38h0A6.39,6.39,0,0,1,2901,1813.54Z" class="color41435c svgShape"></path><path fill="#f4a969" d="M2878.94,1819.14h0a12.67,12.67,0,0,0,15.91-8.23h0a12.67,12.67,0,0,0-8.23-15.91l-15.16-4.81-2.85,9A15.9,15.9,0,0,0,2878.94,1819.14Z" class="colorf4a969 svgShape"></path><path fill="#41435c" d="M2753.49,2064.68l-.77,6.05,55.71,8.1c.48-5.81-4.24-11.72-12.16-15.09a20,20,0,0,1-8.24-6.07l-2.63-3.5a10.93,10.93,0,0,0-7.22-4.28l-9.8-1.43a11.06,11.06,0,0,0-11.1,5.3A28.33,28.33,0,0,0,2753.49,2064.68Z" class="color41435c svgShape"></path><path fill="#41435c" d="M2785.8,2087.69l-18.62-2.71a6.09,6.09,0,0,1-5.15-6.9h0a6.08,6.08,0,0,1,6.9-5.15l18.63,2.7a6.1,6.1,0,0,1,5.15,6.91h0A6.09,6.09,0,0,1,2785.8,2087.69Z" class="color41435c svgShape"></path><path fill="#60806d" d="M2725,1795.62c-4.05,11.1-8.42,28.34-10.82,43-1.63,9.92,2.76,20.09,11.52,25,20.2,11.43,44.49,13,62.57,12.54a17.87,17.87,0,0,0,17.53-17c.42-10.46,1.25-20.85,3.53-30.7,3.25-14.09,3.29-27.36,7.55-41.41,5.21-17.16,6.24-44.38-11.3-55.2C2777.36,1714.55,2751.42,1723.14,2725,1795.62Z" class="color60806d svgShape"></path><polygon fill="#60806d" points="2868.07 1805.99 2778.59 1811.09 2775.52 1752.91 2874.53 1790.34 2868.07 1805.99" class="color60806d svgShape"></polygon><path fill="#f4a969" d="M2550.85,2034.54a67.72,67.72,0,0,1-23.23-24.08,9.77,9.77,0,0,1,8.49-14.6h1.77a29.3,29.3,0,0,1,29.31,29.3h0C2567.19,2033.54,2558,2038.94,2550.85,2034.54Z" class="colorf4a969 svgShape"></path><path fill="#ff9e37" d="M2508.71,2073.75a57.28,57.28,0,0,1,28-4.16,8.26,8.26,0,0,1,5.89,13l-.87,1.22a24.78,24.78,0,0,1-34.57,5.79h0C2501.37,2085.5,2502.18,2076.51,2508.71,2073.75Z" class="colorff9e37 svgShape"></path><path fill="#fb6d71" d="M2582.49 2067.72a57.2 57.2 0 0117.69-22.09 8.26 8.26 0 0113.16 5.54l.19 1.48a24.79 24.79 0 01-21.41 27.76h0C2585.09 2081.32 2579.57 2074.18 2582.49 2067.72zM2495.64 2025.83a53 53 0 0124.46 6.61c5.26 2.8 6.92 10.09 3 13.1l-.93.72c-8.48 6.52-22.05 3.11-30.31-7.62h0C2487.58 2033.08 2489.66 2025.79 2495.64 2025.83z" class="colorfb6d71 svgShape"></path><path fill="#ecc35e" d="M2445.33 2031.34a45.1 45.1 0 016.07 21.44 6.5 6.5 0 01-9.57 5.9l-1-.55a19.51 19.51 0 01-8-26.41h0A7.21 7.21 0 012445.33 2031.34zM2569.08 2078.58a45 45 0 0117.09 14.29 6.5 6.5 0 01-4.58 10.27l-1.17.12a19.51 19.51 0 01-21.49-17.31h0A7.21 7.21 0 012569.08 2078.58z" class="colorecc35e svgShape"></path><path fill="#fb6d71" d="M3557 1562.21h-21.29a5.1 5.1 0 01-5.1-5.11h0a5.1 5.1 0 015.1-5.1H3557a5.1 5.1 0 015.1 5.1h0A5.1 5.1 0 013557 1562.21zM3710.07 1554.27h-21.28a5.11 5.11 0 01-5.11-5.11h0a5.1 5.1 0 015.11-5.1h21.28a5.1 5.1 0 015.11 5.1h0A5.11 5.11 0 013710.07 1554.27z" class="colorfb6d71 svgShape"></path><path fill="#ff9e37" d="M3589.33 1593.68h-33.18a5.1 5.1 0 01-5.11-5.1h0a5.11 5.11 0 015.11-5.11h33.18a5.1 5.1 0 015.1 5.11h0A5.1 5.1 0 013589.33 1593.68zM3669.82 1599.35h-33.18a5.1 5.1 0 01-5.1-5.1h0a5.1 5.1 0 015.1-5.11h33.18a5.11 5.11 0 015.11 5.11h0A5.1 5.1 0 013669.82 1599.35z" class="colorff9e37 svgShape"></path><path fill="#ecc35e" d="M3511.31 1605.18H3485.8a7.29 7.29 0 01-7.29-7.29h0a7.29 7.29 0 017.29-7.29h25.51a7.29 7.29 0 017.29 7.29h0A7.29 7.29 0 013511.31 1605.18zM3647.36 1571.17h-25.51a7.29 7.29 0 01-7.29-7.29h0a7.29 7.29 0 017.29-7.29h25.51a7.29 7.29 0 017.29 7.29h0A7.29 7.29 0 013647.36 1571.17z" class="colorecc35e svgShape"></path><path fill="#fb6d71" d="M3639.42,1624.45h-25.51a7.29,7.29,0,0,1-7.29-7.29h0a7.29,7.29,0,0,1,7.29-7.29h25.51a7.29,7.29,0,0,1,7.29,7.29h0A7.29,7.29,0,0,1,3639.42,1624.45Z" class="colorfb6d71 svgShape"></path><path fill="#f4a969" d="M3674.74,1313.25l-6.41,4.33-12.79-9.26,10.78-14.9,6.51,2.56A9.81,9.81,0,0,1,3674.74,1313.25Z" class="colorf4a969 svgShape"></path><path fill="#fb6d71" d="M3587.75,1334.21l-20.81,30.16-35.93,2.44a29.62,29.62,0,0,1-29.94-19.7l-9.81-27.81,22-16.56,10.3,37.22,60.1-11Z" class="colorfb6d71 svgShape"></path><path fill="#f4a969" d="M3494.27,1308.44l6.58,4.07,12.41-9.77-11.37-14.45-6.41,2.82A9.82,9.82,0,0,0,3494.27,1308.44Z" class="colorf4a969 svgShape"></path><path fill="#fb6d71" d="M3586.21,1329.65l15.73,35.28,49.49-1.28a20.53,20.53,0,0,0,19.49-16l5.85-26.06-21.23-13.25-2.63,29.09Z" class="colorfb6d71 svgShape"></path><path fill="#7b5150" d="M3577.28,1303.37a23.11,23.11,0,0,1-30.86-18.06c-1.53-9.1,3.54-19.38,11.64-23.81a23.13,23.13,0,0,1,11.67-2.87,32.2,32.2,0,0,0,15-3.55,24.18,24.18,0,0,1,6.58-2.13l.26,0c12.11-2,22,9.84,18.73,21.67Z" class="color7b5150 svgShape"></path><path fill="#60806d" d="M3647.09,1510.51l-3.2,2.52a3.73,3.73,0,0,1-6-2.93v-32.6h6.59a7.92,7.92,0,0,1,7.89,7.21l1,11.27A16.6,16.6,0,0,1,3647.09,1510.51Z" class="color60806d svgShape"></path><path fill="#41435c" d="M3582.64,1460.57l.24,33.87,15.49,31.27-10.51,12.54-18.23-18.16a49.05,49.05,0,0,1-14-28l-4.4-31.54Z" class="color41435c svgShape"></path><path fill="#60806d" d="M3581.7,1568.87h0a5.29,5.29,0,0,0,6.64-2.49l7.63-14.7a33.56,33.56,0,0,0,3.23-21.45l-.83-4.52-16.21,6.86-7.5,20.71A12.27,12.27,0,0,0,3581.7,1568.87Z" class="color60806d svgShape"></path><path fill="#41435c" d="M3601.47,1514.41h0a11.44,11.44,0,0,0,15.19-9.64l4.51-44.2h-31.09l3.79,44A11.45,11.45,0,0,0,3601.47,1514.41Z" class="color41435c svgShape"></path><path fill="#41435c" d="M3609.35,1514.29l33.24-18.53a9.74,9.74,0,0,0,5-8.51h0a9.75,9.75,0,0,0-9.74-9.75h-1.6a27.69,27.69,0,0,0-27.54,30.48Z" class="color41435c svgShape"></path><path fill="#fb6d71" d="M3547.09,1404v-38.91c0-11.27,4.85-22.25,13.84-29a35.22,35.22,0,0,1,30.57-6l2.91.8a35.14,35.14,0,0,1,25.05,26.2l18.61,82.62a21.6,21.6,0,0,1-21.07,26.35h-69.91a21.6,21.6,0,0,1-21.6-21.6v-1.75a24.49,24.49,0,0,1,11.2-20.58C3543,1418.08,3547.09,1411.46,3547.09,1404Z" class="colorfb6d71 svgShape"></path><path fill="#f4a969" d="M3557.7,1287.07h0a20.62,20.62,0,0,1,21.23-12.37l5.16.57v.75a16.44,16.44,0,0,0,8.14,14.19v26l-.14,0,2.86,14.44a8.37,8.37,0,0,1-6.58,9.83h0a8.37,8.37,0,0,1-9.83-6.58l-1.92-9.72a10,10,0,0,0-6.29-7.34,18.42,18.42,0,0,1-10.11-9.57l-2.37-5.21A18.57,18.57,0,0,1,3557.7,1287.07Z" class="colorf4a969 svgShape"></path><path fill="#7b5150" d="M3605.15,1315.07l-12.92,1.15v-26l-8.14-14.19,25-13.73,11.66,26.19A19,19,0,0,1,3605.15,1315.07Z" class="color7b5150 svgShape"></path><path fill="#ff9e37" d="M3509.46 1227.91a56.09 56.09 0 0126.75 7.17 8.09 8.09 0 01.21 14l-1.26.76a24.28 24.28 0 01-33.3-8.29h0C3498.29 1235.58 3502.52 1227.83 3509.46 1227.91zM3661.38 1217.7a56 56 0 0126.75 7.18 8.09 8.09 0 01.21 14l-1.26.75a24.27 24.27 0 01-33.3-8.28h0C3650.21 1225.38 3654.44 1217.63 3661.38 1217.7zM3522.62 1182.1a47.36 47.36 0 01-18.08 14.9 6.84 6.84 0 01-9.73-6.73l.1-1.23a20.52 20.52 0 0122.06-18.86h0A7.58 7.58 0 013522.62 1182.1z" class="colorff9e37 svgShape"></path><path fill="#fb6d71" d="M3472.85 1217.87a47.53 47.53 0 01-3.12 23.22 6.85 6.85 0 01-11.71 1.68l-.77-1a20.52 20.52 0 013.35-28.83h0A7.58 7.58 0 013472.85 1217.87zM3552.34 1210.53a43.93 43.93 0 01-20.17 5.74c-4.93.27-9.22-4.2-7.72-8l.35-.91c3.24-8.25 14.32-11.62 24.76-7.52h0C3555 1201.94 3556.6 1208 3552.34 1210.53zM3566 1119.83a44 44 0 01-20.18 5.75c-4.92.26-9.21-4.21-7.72-8l.36-.9c3.23-8.25 14.32-11.62 24.76-7.53h0C3568.57 1111.25 3570.21 1117.3 3566 1119.83zM3717.87 1157.24a43.86 43.86 0 01-20.18 5.75c-4.93.26-9.21-4.21-7.72-8l.36-.9c3.23-8.25 14.32-11.62 24.76-7.53h0C3720.49 1148.66 3722.13 1154.72 3717.87 1157.24zM3648.71 1201.46a44 44 0 01-20.17 5.74c-4.93.27-9.22-4.2-7.72-8l.35-.91c3.23-8.25 14.32-11.62 24.76-7.52h0C3651.33 1192.87 3653 1198.93 3648.71 1201.46z" class="colorfb6d71 svgShape"></path><path fill="#ecc35e" d="M3585.69 1185.14a37.27 37.27 0 01-13.46-12.61 5.39 5.39 0 014.27-8.28l1 0a16.14 16.14 0 0117 15.32h0A6 6 0 013585.69 1185.14zM3459.84 1162.47a37.27 37.27 0 01-13.45-12.62 5.38 5.38 0 014.27-8.27l1 0a16.16 16.16 0 0116.95 15.32h0A6 6 0 013459.84 1162.47zM3667.31 1179.48a37.35 37.35 0 01-13.45-12.62 5.38 5.38 0 014.27-8.27l1 0a16.16 16.16 0 0117 15.32h0A6 6 0 013667.31 1179.48zM3659.38 1286.05a37.38 37.38 0 01-13.46-12.62 5.38 5.38 0 014.27-8.27l1-.05a16.16 16.16 0 0116.95 15.32h0A6 6 0 013659.38 1286.05zM3477.73 1204.44a37.34 37.34 0 01-18.23-2.85 5.39 5.39 0 01-1.13-9.24l.78-.59a16.17 16.17 0 0122.64 3.12h0A6 6 0 013477.73 1204.44z" class="colorecc35e svgShape"></path><path fill="#ff9e37" d="M1127.29,287.55c-10.56,0-14.61-13.82-5.64-19.39a213,213,0,0,0,18.59-13,241.74,241.74,0,0,1,297.57,0,211.52,211.52,0,0,0,18.59,13c9,5.57,4.92,19.39-5.64,19.39Z" class="colorff9e37 svgShape"></path><path fill="#ecc35e" d="M1306.7,240.19a47.27,47.27,0,0,1-18.08,14.9,6.83,6.83,0,0,1-9.72-6.72l.09-1.23a20.54,20.54,0,0,1,22.06-18.87h0A7.58,7.58,0,0,1,1306.7,240.19Z" class="colorecc35e svgShape"></path><path fill="#fb6d71" d="M1328.18 240.35a47.35 47.35 0 01-.89 23.41 6.84 6.84 0 01-11.49 2.79l-.86-.89a20.53 20.53 0 01.58-29h0A7.58 7.58 0 011328.18 240.35zM1429.11 256.72a44 44 0 01-20.18 5.75c-4.92.26-9.21-4.21-7.72-8l.36-.9c3.23-8.25 14.32-11.63 24.76-7.53h0C1431.73 248.14 1433.37 254.19 1429.11 256.72zM1265 266.07a43.82 43.82 0 01-20.17 5.75c-4.93.26-9.22-4.21-7.72-8l.35-.9c3.24-8.25 14.32-11.62 24.76-7.53h0C1267.62 257.49 1269.26 263.55 1265 266.07zM1231.84 220.44a43.94 43.94 0 01-20.17 5.75c-4.93.26-9.22-4.21-7.72-8l.35-.9c3.23-8.25 14.32-11.62 24.76-7.53h0C1234.46 211.86 1236.1 217.91 1231.84 220.44z" class="colorfb6d71 svgShape"></path><path fill="#ecc35e" d="M1339.16 216.31a37.27 37.27 0 01-13.46-12.61 5.39 5.39 0 014.27-8.28l1 0a16.16 16.16 0 0117 15.32h0A6 6 0 011339.16 216.31zM1363.85 245.53a37.32 37.32 0 01-18.23-2.85 5.38 5.38 0 01-1.13-9.24l.78-.59A16.15 16.15 0 011367.9 236h0A6 6 0 011363.85 245.53zM1174.33 267.67a37.45 37.45 0 01-18.23-2.85 5.39 5.39 0 01-1.13-9.24l.78-.59a16.16 16.16 0 0122.64 3.11h0A6 6 0 011174.33 267.67zM3161.47 2619.11c-85.95-67-165.71-66.22-232.27-44.81-74.9 24.09-155.48 25.57-230.22 1-65.4-21.51-152.4-25.72-241.61 43.82a236.83 236.83 0 01-21.57 14.95c-9.74 6-5.75 20.85 5.67 20.85h735.91c11.42 0 15.4-14.87 5.67-20.85A238.37 238.37 0 013161.47 2619.11z" class="colorecc35e svgShape"></path><path fill="#ff9e37" d="M3075.5 2622.22a70.43 70.43 0 0133.64 9 10.17 10.17 0 01.26 17.58l-1.57 1a30.52 30.52 0 01-41.88-10.43h0C3061.45 2631.88 3066.77 2622.12 3075.5 2622.22zM2637.77 2563.76a70.5 70.5 0 0133.65 9 10.17 10.17 0 01.26 17.58l-1.58 1a30.52 30.52 0 01-41.88-10.42h0C2623.72 2573.42 2629 2563.67 2637.77 2563.76zM2994.74 2599.9a59.65 59.65 0 01-22.74 18.74 8.6 8.6 0 01-12.23-8.46l.12-1.55a25.81 25.81 0 0127.74-23.72h0C2995 2585.48 2999.09 2593.94 2994.74 2599.9z" class="colorff9e37 svgShape"></path><path fill="#fb6d71" d="M3021.75 2600.09a59.6 59.6 0 01-1.12 29.44 8.6 8.6 0 01-14.45 3.52l-1.08-1.12a25.81 25.81 0 01.73-36.5h0C3011.15 2590.32 3020.19 2592.88 3021.75 2600.09zM2589.73 2604.37a59.71 59.71 0 01-1.12 29.44 8.6 8.6 0 01-14.45 3.52l-1.08-1.12a25.82 25.82 0 01.72-36.5h0C2579.13 2594.6 2588.17 2597.15 2589.73 2604.37zM3148.68 2620.68a55.25 55.25 0 01-25.37 7.23c-6.2.33-11.59-5.29-9.71-10.08l.44-1.14c4.07-10.37 18-14.61 31.14-9.47h0C3152 2609.89 3154 2617.51 3148.68 2620.68zM2942.29 2632.44a55.13 55.13 0 01-25.37 7.23c-6.2.33-11.59-5.29-9.71-10.08l.45-1.13c4.06-10.38 18-14.62 31.13-9.47h0C2945.59 2621.65 2947.65 2629.27 2942.29 2632.44zM2727.71 2595a55.25 55.25 0 01-25.37 7.23c-6.2.32-11.59-5.29-9.71-10.09l.44-1.13c4.07-10.38 18-14.62 31.14-9.47h0C2731 2584.15 2733.07 2591.77 2727.71 2595z" class="colorfb6d71 svgShape"></path><path fill="#ff9e37" d="M2940 2594.11a47 47 0 01-16.93-15.87 6.78 6.78 0 015.37-10.41l1.23-.06A20.32 20.32 0 012951 2587h0A7.5 7.5 0 012940 2594.11zM3066.6 2606.61a47 47 0 01-22.92-3.58 6.77 6.77 0 01-1.42-11.62l1-.74a20.32 20.32 0 0128.47 3.91h0A7.51 7.51 0 013066.6 2606.61zM2520.51 2618a47.06 47.06 0 01-22.92-3.58 6.77 6.77 0 01-1.42-11.62l1-.74a20.31 20.31 0 0128.47 3.91h0A7.51 7.51 0 012520.51 2618zM2701.59 2636.55a46.83 46.83 0 01-22.92-3.58 6.77 6.77 0 01-1.42-11.62l1-.74a20.33 20.33 0 0128.48 3.92h0A7.51 7.51 0 012701.59 2636.55zM2828.26 2634.45a46.93 46.93 0 01-22.92-3.58 6.77 6.77 0 01-1.43-11.62l1-.74a20.32 20.32 0 0128.47 3.91h0A7.51 7.51 0 012828.26 2634.45z" class="colorff9e37 svgShape"></path><path fill="#ecc35e" d="M926.47,1536.8l-13,22.14,7,2.53a38.55,38.55,0,0,0,19.71,1.75h0l-2.86,4.62a63.76,63.76,0,0,0-9.49,30.81l-.42,9.61,16.65-2.59a26.32,26.32,0,0,0,16.58-9.63l8.47-10.62,11.63,22.46,15.73-16.19h0a57.92,57.92,0,0,0-12.08-46.75l-3.15-3.86-7.71-3.56a58.1,58.1,0,0,0-47-.72Z" class="colorecc35e svgShape"></path><path fill="#ff9e37" d="M2326.6,264.9a56,56,0,0,1,19.05-20.11,8.08,8.08,0,0,1,12.39,6.47l.07,1.46A24.26,24.26,0,0,1,2335,278.06h0C2328,278.38,2323.23,271,2326.6,264.9Z" class="colorff9e37 svgShape"></path><path fill="#ecc35e" d="M2291.65,222.36l-11.73-22.84-5.86,4.52a38.62,38.62,0,0,0-12,15.7h0l-2.37-4.9a63.79,63.79,0,0,0-20.91-24.53l-7.89-5.5-6.74,15.44a26.36,26.36,0,0,0-.76,19.16l4.42,12.84L2202.57,230l5.23,22h0a57.9,57.9,0,0,0,45.94,14.87l4.94-.59,7.14-4.6a58.1,58.1,0,0,0,25.83-39.31Z" class="colorecc35e svgShape"></path><path fill="#fb6d71" d="M1107.27,2336.89a56.09,56.09,0,0,1,21.73,17.18,8.08,8.08,0,0,1-5.34,12.92l-1.45.2a24.26,24.26,0,0,1-27.3-20.79h0C1094,2339.52,1100.93,2334.08,1107.27,2336.89Z" class="colorfb6d71 svgShape"></path><path fill="#ecc35e" d="M1138.86,2390.94a48.78,48.78,0,0,1,20.63-12.48,7,7,0,0,1,8.88,8.31l-.29,1.25a21.12,21.12,0,0,1-25.27,15.93h0A7.82,7.82,0,0,1,1138.86,2390.94Z" class="colorecc35e svgShape"></path><path fill="#fb6d71" d="M2927.56,863.69a56.12,56.12,0,0,1-25.39,11.07,8.09,8.09,0,0,1-8.88-10.81l.51-1.37A24.27,24.27,0,0,1,2925,848.3h0C2931.51,850.72,2933,859.42,2927.56,863.69Z" class="colorfb6d71 svgShape"></path><path fill="#ecc35e" d="M2865,866.07a48.82,48.82,0,0,1,1.29,24.08,7,7,0,0,1-11.52,3.91l-1-.84a21.12,21.12,0,0,1-2.14-29.79h0A7.82,7.82,0,0,1,2865,866.07Z" class="colorecc35e svgShape"></path><path fill="#fb6d71" d="M3303.32,1577.3a56.09,56.09,0,0,1,21.73,17.18,8.08,8.08,0,0,1-5.34,12.92l-1.45.2a24.27,24.27,0,0,1-27.3-20.79h0C3290,1579.93,3297,1574.48,3303.32,1577.3Z" class="colorfb6d71 svgShape"></path><path fill="#ecc35e" d="M3251.89,1545.71a48.85,48.85,0,0,1,20.63-12.48,7,7,0,0,1,8.88,8.31l-.29,1.24a21.12,21.12,0,0,1-25.27,15.93h0A7.81,7.81,0,0,1,3251.89,1545.71Z" class="colorecc35e svgShape"></path><path fill="#fb6d71" d="M2979.81 2318.36a56.09 56.09 0 0121.73 17.18 8.09 8.09 0 01-5.34 12.92l-1.45.2a24.27 24.27 0 01-27.31-20.79h0C2966.51 2321 2973.47 2315.55 2979.81 2318.36zM3124.94 2259.61a56.14 56.14 0 0118.39-20.71 8.09 8.09 0 0112.6 6.08l.11 1.46a24.26 24.26 0 01-22.32 26.06h0C3126.8 2273 3121.76 2265.78 3124.94 2259.61z" class="colorfb6d71 svgShape"></path><path fill="#ecc35e" d="M3008.12 2270.52a56 56 0 016.68 26.88 8.09 8.09 0 01-12.13 6.95l-1.27-.73a24.26 24.26 0 01-8.88-33.15h0C2996 2264.46 3004.83 2264.41 3008.12 2270.52zM3060.49 2415.73a48.83 48.83 0 0120.63-12.49 7 7 0 018.88 8.32l-.28 1.24a21.13 21.13 0 01-25.27 15.93h0A7.82 7.82 0 013060.49 2415.73z" class="colorecc35e svgShape"></path><path fill="#fb6d71" d="M2969,2441.53l20.63,15.27,3.25-6.65a38.56,38.56,0,0,0,3.84-19.42h0l4.29,3.34a63.72,63.72,0,0,0,29.63,12.71l9.51,1.43-.81-16.82a26.34,26.34,0,0,0-7.81-17.51l-9.66-9.55,23.56-9.18L3031,2377.79h0a57.89,57.89,0,0,0-47.76,7l-4.18,2.72-4.35,7.29a58.08,58.08,0,0,0-5.71,46.69Z" class="colorfb6d71 svgShape"></path><path fill="#ff9e37" d="M3070 2266.24L3047.24 2278l3 3.7c2.75 3.36 6.9 5.68 12 6.74h0l-4.85 2.41a96.3 96.3 0 00-25.94 18.78l-6.4 6.56 12.75 2.86c5 1.12 11.15.39 17.19-2.06l12.41-5-6.54 18.87 20.8-6.86h0c12.55-10.71 20.48-23.82 21.71-35.9l.36-3.56-2.88-4.64c-5.56-8.93-16.78-13.89-30.92-13.66zM2951.26 2396.75a56 56 0 0127.69-.56 8.09 8.09 0 014.1 13.37l-1 1.07a24.27 24.27 0 01-34.29 1.32h0C2942.67 2407.23 2944.58 2398.61 2951.26 2396.75z" class="colorff9e37 svgShape"></path><path fill="#f3d5ae" d="M2087.15,1634l4.7,1.11a34.27,34.27,0,0,1,19.19,12.33h0a181.69,181.69,0,0,1,38.16,112.17l0,2.87-27.11,12.7Z" class="colorf3d5ae svgShape"></path><path fill="#ff9e37" d="M1621.41,1918.18c-9.65,0-13.35-12.63-5.15-17.72a195.92,195.92,0,0,0,17-11.83,220.93,220.93,0,0,1,272,0,197.46,197.46,0,0,0,17,11.83c8.2,5.09,4.5,17.72-5.15,17.72Z" class="colorff9e37 svgShape"></path><path fill="#ecc35e" d="M1785.38,1874.9a43.37,43.37,0,0,1-16.53,13.62,6.25,6.25,0,0,1-8.89-6.14l.09-1.13a18.75,18.75,0,0,1,20.16-17.24h0A6.93,6.93,0,0,1,1785.38,1874.9Z" class="colorecc35e svgShape"></path><path fill="#fb6d71" d="M1805 1875a43.3 43.3 0 01-.81 21.4 6.25 6.25 0 01-10.5 2.55l-.79-.81a18.76 18.76 0 01.53-26.52h0A6.93 6.93 0 011805 1875zM1897.24 1890a40.17 40.17 0 01-18.44 5.26c-4.5.24-8.42-3.85-7-7.33l.32-.82c3-7.54 13.08-10.62 22.62-6.88h0C1899.63 1882.16 1901.13 1887.7 1897.24 1890zM1747.26 1898.55a40.13 40.13 0 01-18.43 5.26c-4.51.23-8.42-3.85-7.06-7.33l.32-.83c3-7.54 13.09-10.62 22.63-6.88h0C1749.66 1890.71 1751.16 1896.24 1747.26 1898.55zM1717 1856.85a40 40 0 01-18.44 5.25c-4.5.24-8.42-3.84-7-7.32l.32-.83c3-7.54 13.09-10.62 22.63-6.88h0C1719.35 1849 1720.85 1854.54 1717 1856.85z" class="colorfb6d71 svgShape"></path><path fill="#ecc35e" d="M1815 1853.08a34.17 34.17 0 01-12.29-11.53 4.92 4.92 0 013.9-7.56l.89 0a14.77 14.77 0 0115.49 14h0A5.46 5.46 0 011815 1853.08zM1837.6 1879.78a34.25 34.25 0 01-16.66-2.6 4.93 4.93 0 01-1-8.45l.72-.53a14.75 14.75 0 0120.68 2.84h0A5.46 5.46 0 011837.6 1879.78zM1664.4 1900a34.19 34.19 0 01-16.65-2.6 4.92 4.92 0 01-1-8.45l.71-.53a14.76 14.76 0 0120.69 2.84h0A5.46 5.46 0 011664.4 1900z" class="colorecc35e svgShape"></path><path fill="#7b5150" d="M2110,1993.32c12.43-87.72,30.18-140.21-2.06-224.33-11.72-30.59-51.46-51.25-48.78,13.24,1,25,17.56,61.14,25,100.18,6.78,35.5.69,73.26,5.38,111.82Z" class="color7b5150 svgShape"></path><path fill="#fb6d71" d="M2085.62,1947.87c-.09,9.33.44,48.67.77,55.31.29,5.74,38.42,3.62,39.43,3.3,4.37-1.4,3.41-5,2.34-6-2.75-2.54-9.88-4.5-13.65-7.15-5.29-3.71,9.93-40.13,9.52-45.22Z" class="colorfb6d71 svgShape"></path><path fill="#ff9e37" d="M2271.68 1938.47a51.26 51.26 0 00-3.26 25.11 7.38 7.38 0 0011.73 5l1.08-.79a22.18 22.18 0 004.61-31h0A8.2 8.2 0 002271.68 1938.47zM2184.1 1985.68a43.26 43.26 0 0018.89-10.07 6.26 6.26 0 00-2.28-10.57l-1.08-.35a18.76 18.76 0 00-23.62 12.06h0A6.92 6.92 0 002184.1 1985.68z" class="colorff9e37 svgShape"></path><path fill="#fb6d71" d="M2231.68 1956.11a43.26 43.26 0 0020.7 5.46 6.26 6.26 0 005.51-9.3l-.56-1a18.75 18.75 0 00-25.52-7.22h0A6.92 6.92 0 002231.68 1956.11zM2149.58 1967.86a40.15 40.15 0 0011.89-15c1.94-4.07-.34-9.24-4.08-9.31l-.89 0c-8.1-.14-14.81 8-15 18.29h0C2141.41 1967.09 2146 1970.58 2149.58 1967.86z" class="colorfb6d71 svgShape"></path><path fill="#ecc35e" d="M2189.41 1925.81a34.13 34.13 0 00-6-15.77 4.93 4.93 0 00-8.48.72l-.38.81a14.76 14.76 0 007 19.66h0A5.45 5.45 0 002189.41 1925.81zM2218.63 1955.55a34.09 34.09 0 003.95-16.39 4.92 4.92 0 00-7.41-4.18l-.77.45a14.77 14.77 0 00-5.26 20.21h0A5.45 5.45 0 002218.63 1955.55z" class="colorecc35e svgShape"></path><path fill="#f4a969" d="M2067.45,1614.25c2.68-6.88,6.33-14.85,6.33-20.42,0-7.74-6.07-28.19,9.94-38.41,18.92-12.07,41.44,2.86,45.24,13.49,3.47,9.68-3.37,25.28-8.26,33.8-11.69,20.34-17,5.85-25.5,8.78-5.63,2-5.57,7.26-9.37,13.72Z" class="colorf4a969 svgShape"></path><path fill="#7b5150" d="M2008.16,1775.76c-5.57,24.27,1.28,61.9-1.63,100.76-2.64,35.35-18.63,70.65-24.16,108.58l20.51,2.67c23-53.37,44.27-92.1,53.73-136.33a24.11,24.11,0,0,1,23.44-19.36h15.8v-38.75Z" class="color7b5150 svgShape"></path><path fill="#ff9e37" d="M2121.76,1809.94c-7.05-90.55-12.07-191.15-50.45-197.67-58.89-10-84.36,109.14-70.27,201.69Z" class="colorff9e37 svgShape"></path><polygon fill="#ff9e37" points="2049.49 1622.64 2092.94 1640.47 2106.21 1613.05 2071.24 1590.78 2049.49 1622.64" class="colorff9e37 svgShape"></polygon><path fill="#41435c" d="M2065.79,1556.64c5.06-8.62,15.59-14.31,25.35-12.15,13.59-12.48,46.8-2,50.11,15.24.56,2.92.21,6.22-1.82,8.39-5.23,5.55-32.17-.61-39.87-3.29-.84,3.43-1.93,10.83-4,11.68-24.59-15.11-18.5,13.73-21.59,14.25C2062.16,1592.74,2060.85,1565,2065.79,1556.64Z" class="color41435c svgShape"></path><path fill="#fb6d71" d="M1984.94,1947.9c-1.54,9.32-7.08,48.64-7.77,55.28-.59,5.74,38.65,3.62,39.73,3.3,4.68-1.4,4.26-5,3.32-6-2.41-2.53-9.39-4.49-12.83-7.14-4.82-3.71,16.35-40.11,16.71-45.2Z" class="colorfb6d71 svgShape"></path><path fill="#f3d5ae" d="M1982.15,1708.7l-5.31,13.63c-5.18,13.29,8.71,26,21.5,19.66l59.44-29.47.77-29.53-33.41,10.88,20.31-52,1.06-10.49a6.64,6.64,0,0,0-11.38-5.29h0A249,249,0,0,0,1982.15,1708.7Z" class="colorf3d5ae svgShape"></path><line x1="2021.51" x2="2221.87" y1="1616.68" y2="1920.02" fill="none" stroke="#60806d" stroke-linecap="round" stroke-linejoin="round" stroke-width="8.7" class="colorStroke60806d svgStroke"></line><path fill="#f4a969" d="M2079.63 1709.27l-22.63 4.8v-29.53l11.18-2.37a15 15 0 0117.74 11.35l1 4.36A9.5 9.5 0 012079.63 1709.27zM2149.18 1762.51l4.35 25.06a15 15 0 01-12 17.31l-4.39.83A9.49 9.49 0 012126 1798l-4-22.79z" class="colorf4a969 svgShape"></path><line x1="2221.87" x2="2252.11" y1="1920.02" y2="2000.32" fill="none" stroke="#41435c" stroke-linecap="round" stroke-linejoin="round" stroke-width="6.17" class="colorStroke41435c svgStroke"></line><line x1="2221.87" x2="2229.32" y1="1920.02" y2="2000.32" fill="none" stroke="#41435c" stroke-linecap="round" stroke-linejoin="round" stroke-width="6.17" class="colorStroke41435c svgStroke"></line><line x1="2221.87" x2="2207.68" y1="1920.02" y2="1994.27" fill="none" stroke="#41435c" stroke-linecap="round" stroke-linejoin="round" stroke-width="6.17" class="colorStroke41435c svgStroke"></line><line x1="2221.87" x2="2274.91" y1="1920.02" y2="2000.32" fill="none" stroke="#41435c" stroke-linecap="round" stroke-linejoin="round" stroke-width="6.17" class="colorStroke41435c svgStroke"></line><line x1="2221.87" x2="2296" y1="1920.02" y2="1997.56" fill="none" stroke="#41435c" stroke-linecap="round" stroke-linejoin="round" stroke-width="6.17" class="colorStroke41435c svgStroke"></line><line x1="2221.87" x2="2313.37" y1="1920.02" y2="1989.24" fill="none" stroke="#41435c" stroke-linecap="round" stroke-linejoin="round" stroke-width="6.17" class="colorStroke41435c svgStroke"></line><line x1="2221.87" x2="2324.05" y1="1920.02" y2="1977.24" fill="none" stroke="#41435c" stroke-linecap="round" stroke-linejoin="round" stroke-width="6.17" class="colorStroke41435c svgStroke"></line><path fill="#fb6d71" d="M1939.47 1991.75h19.45a4.67 4.67 0 004.67-4.67h0a4.67 4.67 0 00-4.67-4.66h-19.45a4.67 4.67 0 00-4.67 4.66h0A4.67 4.67 0 001939.47 1991.75zM1799.59 1984.49H1819a4.67 4.67 0 004.67-4.67h0a4.67 4.67 0 00-4.67-4.66h-19.45a4.67 4.67 0 00-4.67 4.66h0A4.67 4.67 0 001799.59 1984.49z" class="colorfb6d71 svgShape"></path><path fill="#ff9e37" d="M1909.93 2020.51h30.33a4.66 4.66 0 004.66-4.66h0a4.67 4.67 0 00-4.66-4.67h-30.33a4.67 4.67 0 00-4.66 4.67h0A4.66 4.66 0 001909.93 2020.51zM1836.37 2025.69h30.33a4.66 4.66 0 004.66-4.66h0a4.67 4.67 0 00-4.66-4.67h-30.33a4.67 4.67 0 00-4.66 4.67h0A4.66 4.66 0 001836.37 2025.69zM2080.89 2025.69h30.32a4.67 4.67 0 004.67-4.66h0a4.67 4.67 0 00-4.67-4.67h-30.32a4.67 4.67 0 00-4.67 4.67h0A4.67 4.67 0 002080.89 2025.69z" class="colorff9e37 svgShape"></path><path fill="#ecc35e" d="M1981.23 2031h23.32a6.66 6.66 0 006.66-6.66h0a6.67 6.67 0 00-6.66-6.67h-23.32a6.67 6.67 0 00-6.66 6.67h0A6.66 6.66 0 001981.23 2031zM1856.9 1999.94h23.32a6.67 6.67 0 006.66-6.67h0a6.66 6.66 0 00-6.66-6.66H1856.9a6.66 6.66 0 00-6.66 6.66h0A6.67 6.67 0 001856.9 1999.94zM2026.82 1982.32h23.31a6.67 6.67 0 006.67-6.66h0a6.67 6.67 0 00-6.67-6.66h-23.31a6.67 6.67 0 00-6.67 6.66h0A6.67 6.67 0 002026.82 1982.32z" class="colorecc35e svgShape"></path><path fill="#fb6d71" d="M1864.15 2048.63h23.32a6.66 6.66 0 006.66-6.66h0a6.66 6.66 0 00-6.66-6.66h-23.32a6.66 6.66 0 00-6.66 6.66h0A6.66 6.66 0 001864.15 2048.63zM3309.11 2035.78a100.14 100.14 0 00-.05-86.78 58.89 58.89 0 01-5.79-25.32A58.3 58.3 0 113414 1949a100.17 100.17 0 00.06 86.78 58.88 58.88 0 015.79 25.31 58 58 0 01-5.85 25.31 100.19 100.19 0 00.06 86.79 58.74 58.74 0 015.79 25.3 58.14 58.14 0 01-5.85 25.32 100.17 100.17 0 00.06 86.78 58.29 58.29 0 11-110.8 25.3 58.12 58.12 0 015.84-25.3 100.14 100.14 0 00-.05-86.78 59 59 0 01-5.79-25.32 58.06 58.06 0 015.84-25.3 100.16 100.16 0 00-.05-86.79 58.81 58.81 0 01-5.79-25.31A58.2 58.2 0 013309.11 2035.78z" class="colorfb6d71 svgShape"></path><path fill="none" stroke="#7b5150" stroke-linecap="round" stroke-linejoin="round" stroke-width="13.42" d="M3361.56,2120v343.35a19,19,0,0,1-19,19h0" class="colorStroke7b5150 svgStroke"></path><line x1="3361.56" x2="3361.56" y1="2067.34" y2="2083.54" fill="none" stroke="#7b5150" stroke-linecap="round" stroke-linejoin="round" stroke-width="13.42" class="colorStroke7b5150 svgStroke"></line><line x1="3361.56" x2="3361.56" y1="1974.24" y2="2025.5" fill="none" stroke="#7b5150" stroke-linecap="round" stroke-linejoin="round" stroke-width="13.42" class="colorStroke7b5150 svgStroke"></line><path fill="#ecc35e" d="M1578.93,2248.16a70,70,0,0,0-115.68-11.37,61.66,61.66,0,0,1-42.94,21.94,47.45,47.45,0,0,0-18.78,5.43,46.23,46.23,0,0,0,41,82.85,62.35,62.35,0,0,1,48.3-.64,70.88,70.88,0,0,0,59.71-3.23A70.09,70.09,0,0,0,1578.93,2248.16Z" class="colorecc35e svgShape"></path><path fill="none" stroke="#ff9e37" stroke-linecap="round" stroke-linejoin="round" stroke-width="13.42" d="M1488.77 2283.3v78.41a18.45 18.45 0 0018.46 18.46h0M1540.17 2277.66a51.4 51.4 0 01-51.4 51.4M1443.86 2319.39a51.37 51.37 0 0044.91 26.38" class="colorStrokeff9e37 svgStroke"></path><path fill="#ff9e37" d="M2852.12,1295.41a147.62,147.62,0,0,1,.11-146.57,168.83,168.83,0,0,0,21.88-83.95,3.87,3.87,0,0,0,0-.59,106.59,106.59,0,0,1,213.17,0c0,.2,0,.38,0,.59a167.92,167.92,0,0,0,22,83.95,147.62,147.62,0,0,1-.11,146.57,168.65,168.65,0,0,0-21.88,83.95,4,4,0,0,0,0,.6,106.59,106.59,0,0,1-213.17,0c0-.2,0-.4,0-.6A168.16,168.16,0,0,0,2852.12,1295.41Z" class="colorff9e37 svgShape"></path><path fill="none" stroke="#7b5150" stroke-linecap="round" stroke-linejoin="round" stroke-width="13.42" d="M2980.69,1104.08v424.8a19,19,0,0,1-19,19h0" class="colorStroke7b5150 svgStroke"></path><line x1="2980.69" x2="3070.17" y1="1392.96" y2="1303.49" fill="none" stroke="#7b5150" stroke-linecap="round" stroke-linejoin="round" stroke-width="13.42" class="colorStroke7b5150 svgStroke"></line><line x1="2980.69" x2="3013.09" y1="1299.82" y2="1267.42" fill="none" stroke="#7b5150" stroke-linecap="round" stroke-linejoin="round" stroke-width="13.42" class="colorStroke7b5150 svgStroke"></line><line x1="2980.69" x2="2899.4" y1="1249.87" y2="1168.58" fill="none" stroke="#7b5150" stroke-linecap="round" stroke-linejoin="round" stroke-width="13.42" class="colorStroke7b5150 svgStroke"></line><line x1="2931.8" x2="2950.41" y1="1200.98" y2="1171.57" fill="none" stroke="#7b5150" stroke-linecap="round" stroke-linejoin="round" stroke-width="13.42" class="colorStroke7b5150 svgStroke"></line><line x1="3014.63" x2="3049.34" y1="1167.52" y2="1132.81" fill="none" stroke="#7b5150" stroke-linecap="round" stroke-linejoin="round" stroke-width="13.42" class="colorStroke7b5150 svgStroke"></line><line x1="2899.11" x2="2925.43" y1="1307.92" y2="1334.24" fill="none" stroke="#7b5150" stroke-linecap="round" stroke-linejoin="round" stroke-width="13.42" class="colorStroke7b5150 svgStroke"></line><path fill="#ecc35e" d="M2455.08,835.76a44.41,44.41,0,0,1,62.8-62.8l14.2,14.2c13.21,13.21,35.79,3.85,35.79-14.82V729.26c0-23.65,17.85-44.3,41.45-45.83a44.4,44.4,0,0,1,47.36,44.31v44.6c0,18.68,22.58,28,35.79,14.82l14.2-14.2a44.41,44.41,0,0,1,62.8,62.8L2662,943.18a18.32,18.32,0,0,0-5.36,13h0c0,16.32,19.73,24.49,31.26,13l5.37-5.37a44.41,44.41,0,0,1,62.8,62.8l-94,94a18.51,18.51,0,0,0-5.41,13.06v1.16c0,15.11,16.92,23.51,29.35,14.93a42.48,42.48,0,0,1,10.44-5.22c14.8-5.22,31.75-2.88,44.13,8a44.42,44.42,0,0,1,2.15,64.82l-130.48,130.48L2481.8,1217.27a44.41,44.41,0,0,1,43.08-74.25,39.46,39.46,0,0,1,13.43,6.27c12.35,8.84,29.56-.34,29.56-15.53h0a18.85,18.85,0,0,0-5.53-13.34l-93.9-93.91a44.41,44.41,0,0,1,62.8-62.8l5.37,5.37c11.53,11.54,31.26,3.37,31.26-13h0a18.28,18.28,0,0,0-5.37-13Z" class="colorecc35e svgShape"></path><line x1="2612.28" x2="2612.28" y1="814.66" y2="795.76" fill="none" stroke="#ff9e37" stroke-linecap="round" stroke-linejoin="round" stroke-width="13.42" class="colorStrokeff9e37 svgStroke"></line><line x1="2612.28" x2="2612.28" y1="1155.3" y2="849.76" fill="none" stroke="#ff9e37" stroke-linecap="round" stroke-linejoin="round" stroke-width="13.42" class="colorStrokeff9e37 svgStroke"></line><path fill="none" stroke="#ff9e37" stroke-linecap="round" stroke-linejoin="round" stroke-width="13.42" d="M2635.68,1442.84h0a23.4,23.4,0,0,1-23.4-23.41V1213.35" class="colorStrokeff9e37 svgStroke"></path><path fill="none" stroke="#ff9e37" stroke-linecap="round" stroke-linejoin="round" stroke-width="13.42" d="M2612.28 1264.65l2.25-.45a123 123 0 0093.85-84.6h0M2612.28 1100.59l-2.26-.45a123 123 0 01-93.85-84.6h0" class="colorStrokeff9e37 svgStroke"></path><line x1="2564.22" x2="2564.22" y1="1038.53" y2="1015.54" fill="none" stroke="#ff9e37" stroke-linecap="round" stroke-linejoin="round" stroke-width="13.42" class="colorStrokeff9e37 svgStroke"></line><line x1="2612.28" x2="2682.88" y1="1073.31" y2="1002.7" fill="none" stroke="#ff9e37" stroke-linecap="round" stroke-linejoin="round" stroke-width="13.42" class="colorStrokeff9e37 svgStroke"></line><line x1="2660.33" x2="2697.53" y1="1038" y2="1038" fill="none" stroke="#ff9e37" stroke-linecap="round" stroke-linejoin="round" stroke-width="13.42" class="colorStrokeff9e37 svgStroke"></line><line x1="2516.17" x2="2556.13" y1="1190.25" y2="1230.21" fill="none" stroke="#ff9e37" stroke-linecap="round" stroke-linejoin="round" stroke-width="13.42" class="colorStrokeff9e37 svgStroke"></line><line x1="2612.28" x2="2562.87" y1="914.91" y2="865.51" fill="none" stroke="#ff9e37" stroke-linecap="round" stroke-linejoin="round" stroke-width="13.42" class="colorStrokeff9e37 svgStroke"></line><path fill="#ff9e37" d="M792.12,2251.13a147.61,147.61,0,0,1,.12-146.58,168.89,168.89,0,0,0,21.88-83.94,5.76,5.76,0,0,0,0-.59,106.59,106.59,0,0,1,213.17,0c0,.2,0,.38,0,.59a167.79,167.79,0,0,0,22,83.94,147.68,147.68,0,0,1-.12,146.58,168.65,168.65,0,0,0-21.88,83.95,4,4,0,0,0,0,.6,106.59,106.59,0,0,1-213.17,0c0-.21,0-.41,0-.6A168.05,168.05,0,0,0,792.12,2251.13Z" class="colorff9e37 svgShape"></path><path fill="none" stroke="#fb6d71" stroke-linecap="round" stroke-linejoin="round" stroke-width="13.42" d="M920.55 2130.8h0a33.93 33.93 0 0133.93-33.93h10.58M920.55 2376.23h0a33.93 33.93 0 0133.93-33.93h10.58M920.55 2102.8v-2.21a57.59 57.59 0 00-65-57.24h0M920.7 2232.68h0a70.46 70.46 0 0170.45-70.46h26.7M920.55 2265.22h0a42.6 42.6 0 00-42.6-42.75H851.67" class="colorStrokefb6d71 svgStroke"></path><path fill="none" stroke="#fb6d71" stroke-linecap="round" stroke-linejoin="round" stroke-width="13.42" d="M965.06,1998.5h0a55.51,55.51,0,0,0-44.51,54.41v463.14a18.49,18.49,0,0,0,18.5,18.49h3.67" class="colorStrokefb6d71 svgStroke"></path><path fill="#7b5150" d="M2403.63,1431a2,2,0,0,1,.35,0,62.81,62.81,0,1,0,0-125.62h-.35a98.79,98.79,0,0,1-49.46-13,87.05,87.05,0,0,0-86.38.06,99.32,99.32,0,0,1-49.48,12.9H2218a62.81,62.81,0,0,0,0,125.62l.35,0Z" class="color7b5150 svgShape"></path><polyline fill="none" stroke="#41435c" stroke-linecap="round" stroke-linejoin="round" stroke-width="13.42" points="2311.36 1333.62 2311.36 1465.81 2329.83 1465.81"></polyline><line x1="2311.36" x2="2376.59" y1="1414.69" y2="1349.46" fill="none" stroke="#41435c" stroke-linecap="round" stroke-linejoin="round" stroke-width="13.42" class="colorStroke41435c svgStroke"></line><line x1="2332.27" x2="2411.46" y1="1393.78" y2="1393.78" fill="none" stroke="#41435c" stroke-linecap="round" stroke-linejoin="round" stroke-width="13.42" class="colorStroke41435c svgStroke"></line><line x1="2311.36" x2="2208.69" y1="1382.08" y2="1382.08" fill="none" stroke="#41435c" stroke-linecap="round" stroke-linejoin="round" stroke-width="13.42" class="colorStroke41435c svgStroke"></line><line x1="2272.86" x2="2224.4" y1="1382.08" y2="1333.62" fill="none" stroke="#41435c" stroke-linecap="round" stroke-linejoin="round" stroke-width="13.42" class="colorStroke41435c svgStroke"></line><path fill="#fb6d71" d="M1374.6,2038.54a123.93,123.93,0,0,1-247.86,0c0-80.61,32.29-152.73,32.29-269.24a91.64,91.64,0,0,1,183.28,0C1342.31,1885.81,1374.6,1957.93,1374.6,2038.54Z" class="colorfb6d71 svgShape"></path><path fill="none" stroke="#7b5150" stroke-linecap="round" stroke-linejoin="round" stroke-width="13.42" d="M1250.67,1761v470.23a18.9,18.9,0,0,1-18.9,18.9h0" class="colorStroke7b5150 svgStroke"></path><path fill="none" stroke="#7b5150" stroke-linecap="round" stroke-linejoin="round" stroke-width="13.42" d="M1171 2027.9l.09.55a88.79 88.79 0 0079.59 72.65h0M1250.67 2038.85l6.44.78a69 69 0 0076.45-58.14h0M1250.67 1920.06h0a55.8 55.8 0 01-60-27l-2.15-3.77" class="colorStroke7b5150 svgStroke"></path><line x1="1250.67" x2="1294.17" y1="1853.69" y2="1828.49" fill="none" stroke="#7b5150" stroke-linecap="round" stroke-linejoin="round" stroke-width="13.42" class="colorStroke7b5150 svgStroke"></line><line x1="1304.57" x2="1285.17" y1="2027.9" y2="1996.79" fill="none" stroke="#7b5150" stroke-linecap="round" stroke-linejoin="round" stroke-width="13.42" class="colorStroke7b5150 svgStroke"></line><path fill="#fb6d71" d="M272.76,331.47a123.94,123.94,0,0,1,247.87,0c0,80.6-32.3,152.73-32.3,269.24a91.64,91.64,0,0,1-183.28,0C305.05,484.2,272.76,412.07,272.76,331.47Z" class="colorfb6d71 svgShape"></path><path fill="none" stroke="#7b5150" stroke-linecap="round" stroke-linejoin="round" stroke-width="13.42" d="M397.52,336.78V759a19,19,0,0,1-19,19h0" class="colorStroke7b5150 svgStroke"></path><line x1="397.52" x2="397.52" y1="284.58" y2="298.98" fill="none" stroke="#7b5150" stroke-linecap="round" stroke-linejoin="round" stroke-width="13.42" class="colorStroke7b5150 svgStroke"></line><line x1="397.52" x2="445.54" y1="623.07" y2="575.05" fill="none" stroke="#7b5150" stroke-linecap="round" stroke-linejoin="round" stroke-width="13.42" class="colorStroke7b5150 svgStroke"></line><line x1="448.81" x2="466.83" y1="478.63" y2="460.61" fill="none" stroke="#7b5150" stroke-linecap="round" stroke-linejoin="round" stroke-width="13.42" class="colorStroke7b5150 svgStroke"></line><line x1="397.52" x2="421.53" y1="529.92" y2="505.91" fill="none" stroke="#7b5150" stroke-linecap="round" stroke-linejoin="round" stroke-width="13.42" class="colorStroke7b5150 svgStroke"></line><line x1="397.52" x2="316.23" y1="416.97" y2="335.68" fill="none" stroke="#7b5150" stroke-linecap="round" stroke-linejoin="round" stroke-width="13.42" class="colorStroke7b5150 svgStroke"></line><line x1="431.46" x2="466.17" y1="397.63" y2="362.92" fill="none" stroke="#7b5150" stroke-linecap="round" stroke-linejoin="round" stroke-width="13.42" class="colorStroke7b5150 svgStroke"></line><line x1="327.49" x2="397.52" y1="428.72" y2="492.5" fill="none" stroke="#7b5150" stroke-linecap="round" stroke-linejoin="round" stroke-width="13.42" class="colorStroke7b5150 svgStroke"></line><line x1="341.6" x2="363.33" y1="561.17" y2="582.9" fill="none" stroke="#7b5150" stroke-linecap="round" stroke-linejoin="round" stroke-width="13.42" class="colorStroke7b5150 svgStroke"></line><path fill="#ecc35e" d="M593.31,778.38a58.14,58.14,0,0,1,5.84-25.31,100.14,100.14,0,0,0,0-86.78A58.89,58.89,0,0,1,593.31,641a58.2,58.2,0,0,1,5.84-25.31,100.12,100.12,0,0,0,0-86.77,58.94,58.94,0,0,1-5.79-25.33,58.3,58.3,0,1,1,110.74,25.33,100.15,100.15,0,0,0,.06,86.77A58.88,58.88,0,0,1,709.9,641a58.08,58.08,0,0,1-5.85,25.32,100.17,100.17,0,0,0,.06,86.78,58.81,58.81,0,0,1,5.79,25.31C709.9,858.11,593.31,860.14,593.31,778.38Z" class="colorecc35e svgShape"></path><path fill="none" stroke="#ff9e37" stroke-linecap="round" stroke-linejoin="round" stroke-width="13.42" d="M622.9,515.42h0a64.78,64.78,0,0,1,28.7,53.81v293a18,18,0,0,0,18,18h0" class="colorStrokeff9e37 svgStroke"></path><path fill="none" stroke="#ff9e37" stroke-linecap="round" stroke-linejoin="round" stroke-width="13.42" d="M651.6 715h0a69.4 69.4 0 0130.95-57.77L688.9 653M651.6 800.47h0a39.51 39.51 0 00-25.15-36.81l-7.15-2.79" class="colorStrokeff9e37 svgStroke"></path><line x1="651.6" x2="651.6" y1="497.42" y2="468.07" fill="none" stroke="#ff9e37" stroke-linecap="round" stroke-linejoin="round" stroke-width="13.42" class="colorStrokeff9e37 svgStroke"></line><path fill="#fb6d71" d="M327.43 939.5a51.24 51.24 0 00-19.86 15.7A7.39 7.39 0 00312.45 967l1.33.18a22.17 22.17 0 0025-19h0A8.2 8.2 0 00327.43 939.5zM194.8 885.81A51.23 51.23 0 00178 866.89a7.39 7.39 0 00-11.51 5.55l-.1 1.33a22.16 22.16 0 0020.39 23.82h0A8.2 8.2 0 00194.8 885.81z" class="colorfb6d71 svgShape"></path><path fill="#ecc35e" d="M301.56 895.78a51.13 51.13 0 00-6.1 24.57 7.39 7.39 0 0011.08 6.35l1.16-.67a22.16 22.16 0 008.11-30.29h0A8.19 8.19 0 00301.56 895.78zM253.69 1028.49a44.45 44.45 0 00-18.85-11.41 6.42 6.42 0 00-8.11 7.59l.26 1.14a19.3 19.3 0 0023.09 14.56h0A7.14 7.14 0 00253.69 1028.49z" class="colorecc35e svgShape"></path><path fill="#fb6d71" d="M337.32,1052.07l-18.86,14-3-6.08a35.19,35.19,0,0,1-3.5-17.74h0l-3.93,3A58.23,58.23,0,0,1,281,1056.86l-8.69,1.31.73-15.37a24.17,24.17,0,0,1,7.14-16l8.83-8.72-21.53-8.39,13.18-15.87h0a52.94,52.94,0,0,1,43.66,6.44l3.81,2.48,4,6.67a53.09,53.09,0,0,1,5.22,42.67Z" class="colorfb6d71 svgShape"></path><path fill="#ff9e37" d="M245 891.87l20.8 10.76L263 906a18.75 18.75 0 01-11 6.15h0l4.43 2.21a88.27 88.27 0 0123.72 17.16l5.84 6-11.65 2.61c-4.58 1-10.19.36-15.71-1.88l-11.34-4.58 6 17.25-19-6.27h0c-11.47-9.79-18.71-21.77-19.83-32.81l-.33-3.26 2.63-4.23c5.08-8.17 15.34-12.7 28.25-12.49zM353.52 1011.14a51.15 51.15 0 00-25.31-.51 7.39 7.39 0 00-3.74 12.22l.91 1a22.18 22.18 0 0031.34 1.2h0A8.19 8.19 0 00353.52 1011.14z" class="colorff9e37 svgShape"></path></svg></g></svg>